<svg width="1440" height="858" viewBox="0 0 1440 858" fill="none" xmlns="http://www.w3.org/2000/svg">
<path d="M0 0H1440V774.557C1440 774.557 1358.05 634.526 1305 673.09C1289.55 684.322 1266.86 761.627 1248.59 833.443C1240.72 864.389 1192.28 865.38 1182.55 834.968C1151.82 738.955 1107.26 630.401 1073 673.09C1065.77 682.096 1059.22 695.293 1053.63 709.21C1043.88 733.464 1008.13 740.695 990.337 721.542C951.584 679.815 895.356 634.606 859 673.09C847.772 684.976 834.294 718.92 822.65 753.48C813.296 781.241 770.233 783.837 756.559 757.929C727.756 703.357 687.899 647.555 654.5 673.09C642.103 682.568 630.291 701.085 620.634 719.735C609.289 741.646 576.328 746.21 559.824 727.869C524.455 688.561 471.191 643.164 433.5 673.09C403.324 697.05 384.531 819.875 354.5 844.267C292.135 894.923 266.105 610.348 208.5 673.09C202.046 680.12 196.036 690.237 190.669 701.39C178.775 726.104 139.309 731.306 122.118 709.936C95.9168 677.365 62.876 649.33 38.5 673.09C13.3869 697.569 0 774.557 0 774.557V0Z" fill="#093C73"/>
</svg>
