<svg width="81" height="80" viewBox="0 0 81 80" fill="none" xmlns="http://www.w3.org/2000/svg">
<rect x="0.5" width="80" height="80" rx="8" fill="#F5F2FF"/>
<path d="M31.0656 34.1596C33.1427 34.1596 34.8266 32.4757 34.8266 30.3986C34.8266 28.3215 33.1427 26.6377 31.0656 26.6377C28.9885 26.6377 27.3047 28.3215 27.3047 30.3986C27.3047 32.4757 28.9885 34.1596 31.0656 34.1596Z" fill="#0097EC"/>
<path d="M45.5354 44.6137C47.6125 44.6137 49.2963 42.9298 49.2963 40.8527C49.2963 38.7756 47.6125 37.0918 45.5354 37.0918C43.4582 37.0918 41.7744 38.7756 41.7744 40.8527C41.7744 42.9298 43.4582 44.6137 45.5354 44.6137Z" fill="#0097EC"/>
<path d="M36.1018 55.0678C38.1789 55.0678 39.8627 53.3839 39.8627 51.3068C39.8627 49.2297 38.1789 47.5459 36.1018 47.5459C34.0247 47.5459 32.3408 49.2297 32.3408 51.3068C32.3408 53.3839 34.0247 55.0678 36.1018 55.0678Z" fill="#0097EC"/>
<path d="M25.1374 31.0358H26.7141C27.0239 33.1601 28.857 34.7968 31.0658 34.7968C33.2745 34.7968 35.1076 33.1601 35.4174 31.0358H55.8626C56.2146 31.0358 56.5 30.7504 56.5 30.3984C56.5 30.0463 56.2146 29.7609 55.8626 29.7609H35.4174C35.1076 27.6367 33.2745 26 31.0658 26C28.857 26 27.0239 27.6367 26.7141 29.7609H25.1374C24.7854 29.7609 24.5 30.0463 24.5 30.3984C24.5 30.7504 24.7854 31.0358 25.1374 31.0358ZM31.0658 27.2749C32.7881 27.2749 34.1892 28.6761 34.1892 30.3984C34.1892 32.1207 32.7881 33.5219 31.0658 33.5219C29.3434 33.5219 27.9423 32.1207 27.9423 30.3984C27.9423 28.6761 29.3434 27.2749 31.0658 27.2749Z" fill="#343A40"/>
<path d="M55.8626 40.215H49.8875C49.5777 38.0908 47.7446 36.4541 45.5359 36.4541C43.3271 36.4541 41.4941 38.0908 41.1842 40.215H25.1374C24.7854 40.215 24.5 40.5004 24.5 40.8525C24.5 41.2045 24.7854 41.4899 25.1374 41.4899H41.1842C41.4941 43.6142 43.3271 45.2509 45.5359 45.2509C47.7446 45.2509 49.5777 43.6142 49.8875 41.4899H55.8626C56.2146 41.4899 56.5 41.2045 56.5 40.8525C56.5 40.5004 56.2146 40.215 55.8626 40.215ZM45.5359 43.976C43.8136 43.976 42.4124 42.5748 42.4124 40.8525C42.4124 39.1302 43.8136 37.729 45.5359 37.729C47.2582 37.729 48.6594 39.1302 48.6594 40.8525C48.6594 42.5748 47.2582 43.976 45.5359 43.976Z" fill="#343A40"/>
<path d="M55.8624 50.6689H55.5437C55.1917 50.6689 54.9062 50.9543 54.9062 51.3064C54.9062 51.6584 55.1917 51.9438 55.5437 51.9438H55.8624C56.2144 51.9438 56.4999 51.6584 56.4999 51.3064C56.4999 50.9543 56.2144 50.6689 55.8624 50.6689Z" fill="#343A40"/>
<path d="M53.1215 50.6691H40.4532C40.1434 48.5449 38.3103 46.9082 36.1016 46.9082C33.8928 46.9082 32.0598 48.5449 31.75 50.6691H25.1375C24.7854 50.6691 24.5 50.9545 24.5 51.3066C24.5 51.6586 24.7854 51.944 25.1374 51.944H31.75C32.0598 54.0683 33.8929 55.705 36.1016 55.705C38.3104 55.705 40.1434 54.0683 40.4532 51.944H53.1216C53.4736 51.944 53.759 51.6586 53.759 51.3066C53.759 50.9545 53.4735 50.6691 53.1215 50.6691ZM36.1016 54.4301C34.3793 54.4301 32.9781 53.0289 32.9781 51.3066C32.9781 49.5843 34.3793 48.1831 36.1016 48.1831C37.8239 48.1831 39.2251 49.5843 39.2251 51.3066C39.2251 53.0289 37.8239 54.4301 36.1016 54.4301Z" fill="#343A40"/>
</svg>
