<svg width="80" height="81" viewBox="0 0 80 81" fill="none" xmlns="http://www.w3.org/2000/svg">
<rect width="80" height="80.7336" rx="8" fill="#FCF3E5"/>
<path d="M56 49.1206V53.0669C56 53.4349 55.702 53.7336 55.3334 53.7336H39.0621C38.6934 53.7336 38.3954 53.4349 38.3954 53.0669V50.0192H36.5463C36.5136 50.0245 36.4796 50.0272 36.4449 50.0272H24.6666C24.298 50.0272 24 49.7293 24 49.3606V45.4143C24 43.4371 25.5739 41.8212 27.5344 41.7513C27.5564 41.7493 27.5784 41.748 27.6011 41.748C29.0476 41.748 30.2435 40.6534 30.4048 39.2489C29.1496 38.3363 28.2323 36.7231 27.9684 34.7839C27.9204 34.7299 27.8797 34.6673 27.8504 34.5966C27.7444 34.3373 27.6544 34.0653 27.5844 33.7894C26.8837 31.0443 28.1797 28.2718 30.4728 27.6093C30.7021 27.5433 30.9401 27.4993 31.1834 27.4786C31.8341 27.1606 32.522 27 33.2312 27C35.9744 27 38.2055 29.4011 38.2055 32.3523C38.2055 33.1195 38.0575 33.8608 37.7662 34.5548C37.7355 34.6281 37.6929 34.6921 37.6422 34.7474C37.4762 36.0073 37.0296 37.1718 36.3409 38.1038C36.0003 38.5644 35.6163 38.9497 35.1997 39.2523C35.363 40.6555 36.5576 41.7481 38.0034 41.7481C38.0287 41.7481 38.0527 41.7501 38.0767 41.7528C38.5281 41.7695 38.968 41.8701 39.3746 42.0434C39.7812 42.2168 40.1559 42.4627 40.4779 42.7721L40.4819 42.7681C41.1745 43.4347 41.6064 44.3713 41.6064 45.4065V45.4838C41.7131 45.4705 41.8211 45.4618 41.9304 45.4578C41.9517 45.4558 41.9737 45.4545 41.9964 45.4545C43.443 45.4545 44.6389 44.3606 44.8002 42.9561C44.5202 42.7534 44.2542 42.5154 44.0082 42.2428C43.4316 41.6022 42.977 40.7909 42.6804 39.8883C42.6044 39.995 42.5351 40.1043 42.4818 40.1923C42.3531 40.4023 42.1178 40.5249 41.8731 40.5096C41.6271 40.4949 41.4092 40.3456 41.3065 40.1216C40.9845 39.417 40.7666 38.6584 40.6579 37.8658C40.6172 37.5898 40.5926 37.2992 40.5826 36.9846C40.5233 35.1247 41.0645 33.3522 42.1077 31.9936C43.181 30.5957 44.6542 29.7971 46.2561 29.7458C47.0313 29.7211 47.7846 29.8724 48.4972 30.1957C48.5265 30.1937 48.7098 30.1871 48.7832 30.1904C50.1704 30.2038 51.4796 30.8451 52.4716 31.9976C53.4401 33.1229 54.0014 34.6227 54.0527 36.2199C54.1047 37.8485 53.6214 39.403 52.6915 40.5976C52.5629 40.7629 52.3675 40.8549 52.1656 40.8549C52.0996 40.8549 52.0329 40.8449 51.9683 40.8249C51.7542 40.7589 51.5916 40.5909 51.5276 40.3829C51.0843 41.4675 50.4111 42.3587 49.5944 42.9534C49.7551 44.3586 50.951 45.4545 52.3989 45.4545C52.4216 45.4545 52.4436 45.4558 52.4656 45.4578C54.4261 45.5269 56 47.1434 56 49.1206ZM54.6667 52.4004V49.1206C54.6667 47.8341 53.6202 46.7875 52.3336 46.7875C52.3116 46.7875 52.2896 46.7862 52.2676 46.7842C52.0383 46.7769 51.8137 46.7522 51.5944 46.7089C51.0151 48.6101 49.2439 49.9659 47.1981 49.9659C45.1516 49.9659 43.3804 48.6101 42.8011 46.7089C42.5825 46.7522 42.3572 46.7769 42.1279 46.7842C42.1059 46.7862 42.0839 46.7875 42.0619 46.7875C41.9059 46.7875 41.7539 46.8028 41.6066 46.8322C41.0752 46.9375 40.6086 47.2241 40.2733 47.6241C40.022 47.9234 39.8447 48.2874 39.7694 48.6861C39.7427 48.8267 39.7287 48.9721 39.7287 49.1207V50.0193V52.4004L54.6667 52.4004ZM52.4349 38.2775C52.6443 37.6489 52.7429 36.9656 52.7202 36.2623C52.6789 34.9684 52.2316 33.7625 51.461 32.8666C50.7211 32.0074 49.7618 31.5301 48.7606 31.5234C48.7506 31.5234 48.4086 31.5394 48.3959 31.5394C48.2859 31.5427 48.1726 31.5201 48.0746 31.4707C47.1981 31.0288 46.3381 31.0768 46.2987 31.0781C45.1035 31.1161 43.9909 31.73 43.1657 32.8053C42.3097 33.9205 41.8658 35.3891 41.9151 36.9416C41.9238 37.2062 41.9444 37.4475 41.9778 37.6788C42.0145 37.9481 42.0665 38.2114 42.1318 38.4681C42.6904 37.8674 43.5784 37.3668 44.107 37.1675C44.6423 36.9682 45.2042 36.8582 45.7809 36.8395C45.8982 36.8362 46.0175 36.8362 46.1349 36.8402C46.9175 36.8675 47.6214 36.4962 47.9701 35.8723C48.0934 35.6516 48.2014 35.4176 48.2901 35.1783C48.3527 35.0077 48.4834 34.8703 48.6501 34.7977C48.8167 34.7257 49.0061 34.7244 49.1734 34.795C50.4972 35.3516 51.5805 36.4122 52.2244 37.7814C52.3016 37.9443 52.3716 38.1096 52.4349 38.2775ZM50.7504 37.9276C50.7524 37.9069 50.7551 37.8876 50.7584 37.8676C50.3678 37.2269 49.8479 36.699 49.2399 36.3244C49.2059 36.3911 49.1706 36.4577 49.1339 36.523C48.5399 37.5849 47.376 38.2169 46.0888 38.1729C46.0008 38.1696 45.9115 38.1696 45.8235 38.1722C45.3916 38.1862 44.9716 38.2682 44.5756 38.4155C44.2936 38.5222 44.025 38.6615 43.7717 38.8308C44.229 40.9393 45.6256 42.4312 47.1947 42.4312C48.044 42.4312 48.8699 41.9926 49.5219 41.1959C50.2118 40.3534 50.6484 39.1921 50.7504 37.9276ZM47.1981 48.6327C48.6786 48.6327 49.9578 47.6321 50.3431 46.2409C49.3566 45.6769 48.6219 44.7203 48.3546 43.5851C47.982 43.7018 47.594 43.7644 47.1947 43.7644C46.8034 43.7644 46.4161 43.7024 46.0409 43.5851C45.7736 44.7204 45.0396 45.6769 44.0524 46.2409C44.4376 47.6321 45.7169 48.6327 47.1981 48.6327ZM40.2733 45.9216V45.4062C40.2733 44.9309 40.13 44.4883 39.8847 44.119C39.87 44.103 39.858 44.087 39.8454 44.0697C39.4081 43.4511 38.6948 43.0811 37.9382 43.0811C37.9162 43.0811 37.8942 43.0798 37.8722 43.0778C37.3923 43.0631 36.9323 42.9665 36.5063 42.8012L33.3499 47.3561C33.2259 47.5361 33.0206 47.6434 32.802 47.6434C32.5834 47.6434 32.3787 47.5361 32.2541 47.3561L29.0983 42.8012C28.6724 42.9665 28.2124 43.0632 27.7324 43.0778C27.7104 43.0798 27.6884 43.0811 27.6664 43.0811C26.3799 43.0811 25.3333 44.1277 25.3333 45.4142V48.694H29.1617V48.686H38.4209C38.5621 47.4981 39.2734 46.4822 40.2733 45.9216ZM35.4291 31.7347C35.9697 31.7347 36.4683 31.9148 36.8689 32.2181C36.8049 30.0636 35.1984 28.3331 33.2312 28.3331C32.6926 28.3331 32.168 28.4651 31.6727 28.725C31.586 28.7703 31.4907 28.7963 31.3927 28.801C31.2027 28.8097 31.0181 28.8397 30.8428 28.8903C29.3256 29.3282 28.4549 31.1774 28.8009 33.1099C29.2323 32.5933 29.5502 31.9854 29.7202 31.3321C29.8055 31.0034 30.0902 30.7681 30.4288 30.7468C30.7648 30.7254 31.0768 30.9214 31.2028 31.2347C31.2574 31.3707 31.3481 31.4887 31.4668 31.5773C31.6048 31.68 31.7694 31.7346 31.9434 31.7346C31.9433 31.7347 35.4291 31.7347 35.4291 31.7347ZM35.2684 37.3116C35.9823 36.3451 36.3769 35.0511 36.3816 33.6666C36.2096 33.3133 35.8483 33.068 35.4291 33.068H31.9434C31.4801 33.068 31.0394 32.922 30.6688 32.6454C30.6668 32.6441 30.6648 32.6421 30.6621 32.6407C30.3328 33.3553 29.8622 34.0019 29.2796 34.5359C29.4242 35.6778 29.8422 36.717 30.4748 37.4896C31.1267 38.2863 31.9534 38.7249 32.8019 38.7249C33.7192 38.7248 34.5951 38.2229 35.2684 37.3116ZM32.8019 45.8062L35.3538 42.1239C34.6698 41.5566 34.1712 40.774 33.9599 39.8821C33.5859 39.9981 33.1979 40.0581 32.802 40.0581C32.4041 40.0581 32.0168 39.9961 31.6454 39.8801C31.4341 40.7733 30.9355 41.5559 30.2509 42.1239L32.8019 45.8062Z" fill="#313030"/>
<path d="M54.6666 49.1208V52.4005H39.7285V50.0194V49.1208C39.7285 48.9722 39.7425 48.8268 39.7692 48.6862C39.8445 48.2875 40.0218 47.9235 40.2731 47.6242C40.6085 47.2243 41.0751 46.9376 41.6064 46.8323C41.7537 46.803 41.9057 46.7876 42.0617 46.7876C42.0837 46.7876 42.1057 46.7863 42.1277 46.7843C42.357 46.777 42.5823 46.7523 42.801 46.709C43.3803 48.6102 45.1515 49.966 47.1979 49.966C49.2437 49.966 51.0149 48.6102 51.5942 46.709C51.8135 46.7523 52.0381 46.777 52.2675 46.7843C52.2895 46.7863 52.3115 46.7876 52.3335 46.7876C53.62 46.7877 54.6666 47.8342 54.6666 49.1208Z" fill="#0097EC"/>
<path d="M52.7201 36.2624C52.7428 36.9657 52.6441 37.649 52.4348 38.2776C52.3715 38.1096 52.3015 37.9443 52.2242 37.7817C51.5802 36.4124 50.497 35.3519 49.1731 34.7952C49.0058 34.7245 48.8165 34.7259 48.6498 34.7979C48.4832 34.8706 48.3525 35.0079 48.2898 35.1785C48.2011 35.4179 48.0932 35.6519 47.9698 35.8725C47.6212 36.4964 46.9172 36.8677 46.1346 36.8404C46.0173 36.8364 45.898 36.8364 45.7806 36.8397C45.204 36.8584 44.642 36.9684 44.1067 37.1677C43.5781 37.367 42.6902 37.8677 42.1315 38.4683C42.0662 38.2117 42.0142 37.9484 41.9775 37.679C41.9442 37.4477 41.9235 37.2064 41.9148 36.9418C41.8655 35.3892 42.3095 33.9207 43.1654 32.8055C43.9907 31.7302 45.1032 31.1163 46.2985 31.0783C46.3378 31.077 47.1977 31.029 48.0743 31.4709C48.1723 31.5202 48.2857 31.5429 48.3957 31.5396C48.4083 31.5396 48.7503 31.5236 48.7603 31.5236C49.7615 31.5303 50.7208 32.0075 51.4607 32.8669C52.2315 33.7626 52.6788 34.9685 52.7201 36.2624Z" fill="#0097EC"/>
<path d="M50.7582 37.8674C50.7549 37.8874 50.7522 37.9067 50.7502 37.9274C50.6482 39.192 50.2116 40.3532 49.5217 41.1958C48.8697 41.9924 48.0438 42.431 47.1945 42.431C45.6254 42.431 44.2288 40.9392 43.7715 38.8307C44.0248 38.6613 44.2934 38.522 44.5754 38.4153C44.9714 38.268 45.3914 38.186 45.8233 38.172C45.9113 38.1693 46.0006 38.1693 46.0886 38.1727C47.3759 38.2167 48.5397 37.5848 49.1337 36.5228C49.1704 36.4575 49.2057 36.3908 49.2397 36.3242C49.8477 36.6988 50.3676 37.2268 50.7582 37.8674Z" fill="white"/>
<path d="M50.3426 46.2407C49.9573 47.6319 48.6781 48.6325 47.1975 48.6325C45.7163 48.6325 44.4371 47.632 44.0518 46.2407C45.039 45.6768 45.7729 44.7201 46.0403 43.585C46.4156 43.7023 46.8029 43.7643 47.1941 43.7643C47.5934 43.7643 47.9814 43.7016 48.354 43.585C48.6214 44.7201 49.356 45.6768 50.3426 46.2407Z" fill="white"/>
<path d="M40.2731 45.4058V45.9212C39.2731 46.4818 38.5619 47.4977 38.4206 48.6856H29.1613V48.6936H25.333V45.4138C25.333 44.1273 26.3796 43.0807 27.6661 43.0807C27.6881 43.0807 27.7101 43.0794 27.7321 43.0774C28.2121 43.0627 28.6721 42.9661 29.098 42.8008L32.2538 47.3557C32.3784 47.5357 32.5831 47.643 32.8017 47.643C33.0203 47.643 33.2256 47.5357 33.3496 47.3557L36.506 42.8008C36.9319 42.9661 37.3919 43.0628 37.8719 43.0774C37.8939 43.0794 37.9159 43.0807 37.9379 43.0807C38.6945 43.0807 39.4078 43.4507 39.8451 44.0693C39.8578 44.0866 39.8698 44.1026 39.8844 44.1186C40.1298 44.488 40.2731 44.9306 40.2731 45.4058Z" fill="#0097EC"/>
<path d="M36.8691 32.2179C36.4685 31.9146 35.9699 31.7346 35.4292 31.7346H31.9436C31.7696 31.7346 31.6049 31.6799 31.4669 31.5773C31.3482 31.4886 31.2576 31.3706 31.2029 31.2346C31.0769 30.9213 30.765 30.7253 30.429 30.7467C30.0904 30.768 29.8057 31.0033 29.7204 31.332C29.5504 31.9853 29.2324 32.5933 28.8011 33.1099C28.4551 31.1774 29.3257 29.3282 30.8429 28.8903C31.0182 28.8396 31.2029 28.8096 31.3929 28.8009C31.4909 28.7963 31.5862 28.7703 31.6729 28.7249C32.1682 28.4649 32.6928 28.333 33.2314 28.333C35.1985 28.3328 36.8051 30.0634 36.8691 32.2179Z" fill="#0097EC"/>
<path d="M36.3814 33.6666C36.3767 35.0512 35.982 36.3451 35.2681 37.3116C34.5949 38.2229 33.7189 38.7248 32.8017 38.7248C31.953 38.7248 31.1265 38.2862 30.4745 37.4896C29.8419 36.7169 29.424 35.6777 29.2793 34.5358C29.8619 34.0019 30.3325 33.3553 30.6619 32.6406C30.6645 32.6419 30.6665 32.6439 30.6685 32.6453C31.0392 32.9219 31.4798 33.0679 31.9431 33.0679H35.4288C35.8481 33.068 36.2094 33.3133 36.3814 33.6666Z" fill="white"/>
<path d="M35.3539 42.1237L32.8021 45.8061L30.251 42.1237C30.9356 41.5558 31.4342 40.7731 31.6455 39.8799C32.0169 39.9959 32.4042 40.0579 32.8021 40.0579C33.198 40.0579 33.586 39.9979 33.96 39.8819C34.1713 40.7738 34.6699 41.5564 35.3539 42.1237Z" fill="white"/>
</svg>
