<svg width="1281" height="350" viewBox="0 0 1281 350" fill="none" xmlns="http://www.w3.org/2000/svg">
<path d="M0.984375 0H1280.98V338C1280.98 344.627 1275.61 350 1268.98 350H12.9843C6.35693 350 0.984375 344.627 0.984375 338V0Z" fill="#0097EC"/>
<path d="M1074.4 295.35C1073.37 295.35 1072.47 295.017 1071.7 294.35C1070.93 293.683 1070.55 292.6 1070.55 291.1C1070.55 289.667 1070.8 288.05 1071.3 286.25C1071.83 284.483 1072.53 282.617 1073.4 280.65C1074.3 278.683 1075.27 276.717 1076.3 274.75C1077.4 272.617 1078.53 270.567 1079.7 268.6C1080.87 266.6 1081.83 264.85 1082.6 263.35C1083.07 262.483 1083.43 261.733 1083.7 261.1C1083.97 260.467 1084.1 259.967 1084.1 259.6C1084.1 259.1 1083.83 258.85 1083.3 258.85C1082.87 258.85 1082.15 259.05 1081.15 259.45C1080.38 259.783 1079.6 260.2 1078.8 260.7C1078 261.2 1077.3 261.7 1076.7 262.2C1073.1 265.2 1069.85 268.617 1066.95 272.45C1064.08 276.283 1061.4 280.133 1058.9 284C1058.7 284.3 1058.45 284.45 1058.15 284.45C1057.92 284.45 1057.7 284.367 1057.5 284.2C1057.33 284.033 1057.25 283.833 1057.25 283.6C1057.25 283.433 1057.3 283.283 1057.4 283.15C1059.23 280.183 1060.8 277.317 1062.1 274.55C1063.43 271.783 1064.67 268.733 1065.8 265.4C1066.17 264.4 1066.42 263.533 1066.55 262.8C1066.68 262.033 1066.75 261.383 1066.75 260.85C1066.75 259.517 1066.3 258.85 1065.4 258.85C1065.2 258.85 1064.97 258.9 1064.7 259C1063.7 259.3 1062.63 259.983 1061.5 261.05C1060.37 262.083 1059.18 263.383 1057.95 264.95C1056.75 266.483 1055.52 268.167 1054.25 270C1052.98 271.8 1051.72 273.633 1050.45 275.5C1050.18 275.9 1049.82 276.467 1049.35 277.2C1048.92 277.933 1048.45 278.733 1047.95 279.6C1047.45 280.467 1046.97 281.3 1046.5 282.1C1046.03 282.867 1045.65 283.5 1045.35 284C1045.08 284.5 1044.95 284.75 1044.95 284.75C1044.78 285.05 1044.52 285.2 1044.15 285.2C1043.92 285.2 1043.72 285.133 1043.55 285C1043.38 284.833 1043.3 284.65 1043.3 284.45C1043.3 284.283 1043.35 284.133 1043.45 284C1043.45 284 1043.62 283.7 1043.95 283.1C1044.32 282.467 1044.78 281.633 1045.35 280.6C1045.92 279.567 1046.53 278.45 1047.2 277.25C1047.87 276.05 1048.52 274.85 1049.15 273.65C1049.82 272.45 1050.4 271.367 1050.9 270.4C1052.33 267.633 1053.33 265.283 1053.9 263.35C1054.5 261.417 1054.8 259.8 1054.8 258.5C1054.8 256.8 1054.42 255.6 1053.65 254.9C1052.88 254.2 1052.02 253.833 1051.05 253.8C1048.88 253.7 1046.78 254.083 1044.75 254.95C1042.75 255.783 1040.88 256.933 1039.15 258.4C1037.45 259.867 1035.95 261.483 1034.65 263.25C1033.35 265.017 1032.33 266.8 1031.6 268.6C1030.9 270.367 1030.55 271.983 1030.55 273.45C1030.55 274.883 1030.97 276.067 1031.8 277C1032.63 277.933 1033.97 278.4 1035.8 278.4C1037.1 278.4 1038.27 278.1 1039.3 277.5C1040.33 276.9 1041.22 276.133 1041.95 275.2C1042.68 274.267 1043.25 273.283 1043.65 272.25C1044.05 271.217 1044.25 270.267 1044.25 269.4C1044.25 268.667 1044.08 268.05 1043.75 267.55C1043.45 267.05 1042.97 266.783 1042.3 266.75C1042.07 266.75 1041.88 266.683 1041.75 266.55C1041.65 266.383 1041.6 266.217 1041.6 266.05C1041.6 265.817 1041.67 265.617 1041.8 265.45C1041.97 265.25 1042.18 265.15 1042.45 265.15C1043.68 265.15 1044.58 265.567 1045.15 266.4C1045.72 267.2 1046 268.183 1046 269.35C1046 270.45 1045.75 271.617 1045.25 272.85C1044.78 274.083 1044.1 275.25 1043.2 276.35C1042.3 277.45 1041.22 278.35 1039.95 279.05C1038.68 279.717 1037.25 280.05 1035.65 280.05C1033.22 280.05 1031.43 279.433 1030.3 278.2C1029.2 276.933 1028.65 275.35 1028.65 273.45C1028.65 271.683 1029.07 269.75 1029.9 267.65C1030.77 265.55 1031.97 263.517 1033.5 261.55C1034.9 259.75 1036.53 258.117 1038.4 256.65C1040.3 255.183 1042.35 254.033 1044.55 253.2C1046.75 252.367 1048.98 252 1051.25 252.1C1052.88 252.167 1054.17 252.717 1055.1 253.75C1056.07 254.783 1056.55 256.283 1056.55 258.25C1056.55 259.55 1056.32 261.05 1055.85 262.75C1055.42 264.417 1054.72 266.3 1053.75 268.4C1054.32 267.533 1055.03 266.467 1055.9 265.2C1056.77 263.933 1057.73 262.683 1058.8 261.45C1059.87 260.217 1060.98 259.183 1062.15 258.35C1063.32 257.483 1064.47 257.05 1065.6 257.05C1066.63 257.05 1067.37 257.4 1067.8 258.1C1068.23 258.767 1068.45 259.6 1068.45 260.6C1068.45 261.567 1068.32 262.617 1068.05 263.75C1067.78 264.883 1067.45 266 1067.05 267.1C1066.65 268.2 1066.25 269.217 1065.85 270.15C1065.48 271.05 1065.18 271.767 1064.95 272.3C1065.72 271.333 1066.65 270.2 1067.75 268.9C1068.88 267.567 1070.12 266.217 1071.45 264.85C1072.78 263.45 1074.15 262.15 1075.55 260.95C1076.98 259.75 1078.4 258.783 1079.8 258.05C1081.23 257.317 1082.58 256.95 1083.85 256.95C1085.35 256.95 1086.1 257.65 1086.1 259.05C1086.1 260.083 1085.7 261.333 1084.9 262.8C1084.63 263.3 1084.15 264.167 1083.45 265.4C1082.75 266.6 1081.93 268.05 1081 269.75C1080.07 271.417 1079.1 273.217 1078.1 275.15C1077.13 277.083 1076.22 279.017 1075.35 280.95C1074.52 282.85 1073.83 284.633 1073.3 286.3C1072.77 288 1072.5 289.45 1072.5 290.65C1072.5 291.583 1072.7 292.317 1073.1 292.85C1073.5 293.383 1074.17 293.65 1075.1 293.65C1075.87 293.65 1076.65 293.417 1077.45 292.95C1078.28 292.483 1078.93 291.983 1079.4 291.45C1079.57 291.183 1079.78 291.05 1080.05 291.05C1080.42 291.05 1080.6 291.267 1080.6 291.7C1080.6 291.9 1080.5 292.133 1080.3 292.4C1079.57 293.267 1078.67 293.967 1077.6 294.5C1076.53 295.067 1075.47 295.35 1074.4 295.35ZM1084.11 285.25C1083.18 285.25 1082.48 284.983 1082.01 284.45C1081.58 283.883 1081.36 283.183 1081.36 282.35C1081.36 281.417 1081.63 280.333 1082.16 279.1C1082.73 277.833 1083.46 276.533 1084.36 275.2C1085.26 273.867 1086.24 272.633 1087.31 271.5C1088.41 270.333 1089.51 269.4 1090.61 268.7C1091.71 267.967 1092.73 267.6 1093.66 267.6C1094.29 267.6 1094.91 267.7 1095.51 267.9C1096.11 268.067 1096.59 268.417 1096.96 268.95C1097.36 269.483 1097.56 270.267 1097.56 271.3C1097.56 271.667 1097.46 271.933 1097.26 272.1C1097.06 272.267 1096.88 272.35 1096.71 272.35C1096.34 272.35 1096.16 272.217 1096.16 271.95C1095.99 270.883 1095.64 270.183 1095.11 269.85C1094.61 269.517 1094.13 269.35 1093.66 269.35C1092.99 269.35 1092.21 269.683 1091.31 270.35C1090.41 271.017 1089.49 271.867 1088.56 272.9C1087.63 273.933 1086.74 275.05 1085.91 276.25C1085.11 277.417 1084.46 278.55 1083.96 279.65C1083.46 280.717 1083.21 281.6 1083.21 282.3C1083.21 282.633 1083.26 282.933 1083.36 283.2C1083.49 283.467 1083.69 283.6 1083.96 283.6C1084.46 283.6 1085.11 283.333 1085.91 282.8C1086.71 282.267 1087.56 281.583 1088.46 280.75C1089.39 279.883 1090.31 278.983 1091.21 278.05C1092.11 277.117 1092.93 276.233 1093.66 275.4C1094.39 274.567 1094.96 273.9 1095.36 273.4C1095.56 273.1 1095.81 272.95 1096.11 272.95C1096.34 272.95 1096.56 273.033 1096.76 273.2C1096.96 273.367 1097.06 273.583 1097.06 273.85C1097.06 273.983 1097.01 274.133 1096.91 274.3C1096.68 274.667 1096.39 275.183 1096.06 275.85C1095.76 276.517 1095.44 277.233 1095.11 278C1094.81 278.767 1094.54 279.483 1094.31 280.15C1094.11 280.783 1094.01 281.267 1094.01 281.6C1094.01 281.933 1094.13 282.1 1094.36 282.1C1094.53 282.1 1094.73 282.017 1094.96 281.85C1095.23 281.683 1095.46 281.533 1095.66 281.4C1096.46 280.733 1097.23 280.033 1097.96 279.3C1098.69 278.533 1099.36 277.817 1099.96 277.15C1100.09 276.983 1100.26 276.9 1100.46 276.9C1100.63 276.9 1100.78 277 1100.91 277.2C1101.08 277.367 1101.16 277.583 1101.16 277.85C1101.16 278.15 1101.08 278.4 1100.91 278.6C1100.38 279.3 1099.68 280.083 1098.81 280.95C1097.94 281.783 1097.18 282.45 1096.51 282.95C1096.08 283.25 1095.56 283.55 1094.96 283.85C1094.39 284.117 1093.84 284.25 1093.31 284.25C1092.91 284.25 1092.58 284.133 1092.31 283.9C1092.04 283.633 1091.91 283.183 1091.91 282.55C1091.91 282.05 1091.99 281.483 1092.16 280.85C1092.33 280.217 1092.53 279.567 1092.76 278.9C1091.83 279.9 1090.83 280.883 1089.76 281.85C1088.69 282.817 1087.66 283.633 1086.66 284.3C1085.69 284.933 1084.84 285.25 1084.11 285.25ZM1100.81 285.25C1099.87 285.25 1099.17 284.983 1098.71 284.45C1098.27 283.883 1098.06 283.183 1098.06 282.35C1098.06 281.417 1098.32 280.333 1098.86 279.1C1099.42 277.833 1100.16 276.533 1101.06 275.2C1101.96 273.867 1102.94 272.633 1104.01 271.5C1105.11 270.333 1106.21 269.4 1107.31 268.7C1108.41 267.967 1109.42 267.6 1110.36 267.6C1111.02 267.6 1111.67 267.717 1112.31 267.95C1112.97 268.15 1113.47 268.583 1113.81 269.25C1114.64 267.317 1115.64 265.4 1116.81 263.5C1117.97 261.567 1119.17 259.833 1120.41 258.3C1121.67 256.767 1122.87 255.617 1124.01 254.85C1124.84 254.283 1125.59 254 1126.26 254C1126.79 254 1127.21 254.183 1127.51 254.55C1127.84 254.883 1128.01 255.4 1128.01 256.1C1128.01 257.433 1127.64 258.85 1126.91 260.35C1126.21 261.85 1125.27 263.35 1124.11 264.85C1122.94 266.35 1121.67 267.817 1120.31 269.25C1118.97 270.65 1117.67 271.967 1116.41 273.2C1115.14 274.4 1114.04 275.45 1113.11 276.35C1112.57 277.25 1112.06 278.3 1111.56 279.5C1111.09 280.667 1110.86 281.65 1110.86 282.45C1110.86 283.35 1111.21 283.8 1111.91 283.8C1112.47 283.8 1113.32 283.533 1114.46 283C1115.62 282.433 1116.76 281.667 1117.86 280.7C1118.52 280.133 1119.14 279.533 1119.71 278.9C1120.27 278.267 1120.81 277.683 1121.31 277.15C1121.44 276.983 1121.61 276.9 1121.81 276.9C1121.97 276.9 1122.12 277 1122.26 277.2C1122.42 277.367 1122.51 277.583 1122.51 277.85C1122.51 278.15 1122.42 278.4 1122.26 278.6C1121.76 279.3 1121.06 280.083 1120.16 280.95C1119.29 281.783 1118.52 282.45 1117.86 282.95C1116.59 283.883 1115.22 284.583 1113.76 285.05C1112.86 285.35 1112.06 285.5 1111.36 285.5C1109.52 285.5 1108.61 284.583 1108.61 282.75C1108.61 281.983 1108.77 281.117 1109.11 280.15C1109.11 280.117 1109.12 280.083 1109.16 280.05C1108.12 280.917 1107.06 281.75 1105.96 282.55C1104.89 283.35 1103.89 284 1102.96 284.5C1102.02 285 1101.31 285.25 1100.81 285.25ZM1113.91 272.95C1114.24 272.683 1114.82 272.15 1115.66 271.35C1116.49 270.55 1117.44 269.6 1118.51 268.5C1119.61 267.367 1120.69 266.15 1121.76 264.85C1122.82 263.55 1123.76 262.25 1124.56 260.95C1125.36 259.65 1125.91 258.433 1126.21 257.3C1126.24 257.167 1126.26 257 1126.26 256.8C1126.26 256.3 1126.06 256.05 1125.66 256.05C1125.16 256.05 1124.57 256.383 1123.91 257.05C1122.61 258.317 1121.34 259.85 1120.11 261.65C1118.91 263.417 1117.77 265.283 1116.71 267.25C1115.67 269.183 1114.74 271.083 1113.91 272.95ZM1100.66 283.6C1101.12 283.6 1101.72 283.383 1102.46 282.95C1103.22 282.517 1104.04 281.967 1104.91 281.3C1105.77 280.633 1106.62 279.933 1107.46 279.2C1108.32 278.467 1109.09 277.783 1109.76 277.15C1110.42 276.517 1110.92 276.033 1111.26 275.7L1112.76 271.45C1112.52 270.583 1112.17 270.017 1111.71 269.75C1111.24 269.483 1110.79 269.35 1110.36 269.35C1109.69 269.35 1108.91 269.683 1108.01 270.35C1107.11 271.017 1106.19 271.867 1105.26 272.9C1104.32 273.933 1103.44 275.05 1102.61 276.25C1101.81 277.417 1101.16 278.55 1100.66 279.65C1100.16 280.717 1099.91 281.6 1099.91 282.3C1099.91 282.633 1099.96 282.933 1100.06 283.2C1100.19 283.467 1100.39 283.6 1100.66 283.6ZM1120.2 285.1C1119.66 285.1 1119.26 284.917 1119 284.55C1118.73 284.183 1118.6 283.733 1118.6 283.2C1118.6 282.333 1118.83 281.433 1119.3 280.5C1119.76 279.533 1120.33 278.567 1121 277.6C1121.66 276.633 1122.4 275.633 1123.2 274.6C1123.36 274.4 1123.6 274.05 1123.9 273.55C1124.23 273.05 1124.53 272.533 1124.8 272C1125.06 271.467 1125.18 271.05 1125.15 270.75C1125.11 270.183 1125.23 269.767 1125.5 269.5C1125.76 269.2 1126.06 269.05 1126.4 269.05C1126.73 269.05 1126.98 269.183 1127.15 269.45C1127.35 269.75 1127.45 270.117 1127.45 270.55C1127.45 271.017 1127.28 271.6 1126.95 272.3C1126.65 272.967 1126.11 273.817 1125.35 274.85C1124.75 275.65 1124.08 276.517 1123.35 277.45C1122.65 278.35 1122.05 279.233 1121.55 280.1C1121.05 280.967 1120.8 281.7 1120.8 282.3C1120.8 282.733 1120.98 282.95 1121.35 282.95C1121.58 282.95 1121.91 282.85 1122.35 282.65C1122.88 282.383 1123.61 281.867 1124.55 281.1C1125.51 280.333 1126.51 279.467 1127.55 278.5C1128.61 277.5 1129.58 276.533 1130.45 275.6C1131.35 274.667 1132 273.933 1132.4 273.4C1132.6 273.1 1132.85 272.95 1133.15 272.95C1133.38 272.95 1133.6 273.033 1133.8 273.2C1134 273.367 1134.1 273.583 1134.1 273.85C1134.1 273.983 1134.05 274.133 1133.95 274.3C1133.75 274.667 1133.48 275.183 1133.15 275.85C1132.81 276.517 1132.48 277.233 1132.15 278C1131.85 278.767 1131.58 279.483 1131.35 280.15C1131.15 280.783 1131.05 281.267 1131.05 281.6C1131.05 281.967 1131.16 282.15 1131.4 282.15C1131.56 282.15 1131.76 282.067 1132 281.9C1132.26 281.7 1132.5 281.533 1132.7 281.4C1133.53 280.733 1134.3 280.033 1135 279.3C1135.73 278.533 1136.4 277.817 1137 277.15C1137.13 276.983 1137.3 276.9 1137.5 276.9C1137.66 276.9 1137.81 277 1137.95 277.2C1138.11 277.367 1138.2 277.583 1138.2 277.85C1138.2 278.15 1138.11 278.4 1137.95 278.6C1137.41 279.3 1136.71 280.083 1135.85 280.95C1134.98 281.783 1134.21 282.45 1133.55 282.95C1133.11 283.25 1132.6 283.55 1132 283.85C1131.43 284.117 1130.9 284.25 1130.4 284.25C1129.96 284.25 1129.61 284.133 1129.35 283.9C1129.11 283.633 1129 283.183 1129 282.55C1129 282.017 1129.08 281.4 1129.25 280.7C1129.45 280 1129.68 279.283 1129.95 278.55C1128.81 279.683 1127.53 280.817 1126.1 281.95C1124.7 283.083 1123.41 283.933 1122.25 284.5C1121.41 284.9 1120.73 285.1 1120.2 285.1ZM1145.22 284.7C1144.62 284.7 1144.12 284.533 1143.72 284.2C1143.35 283.867 1143.17 283.4 1143.17 282.8C1143.17 281.533 1143.49 280.267 1144.12 279C1144.75 277.7 1145.47 276.433 1146.27 275.2C1147.1 273.933 1147.79 272.767 1148.32 271.7C1147.79 272.067 1147.19 272.333 1146.52 272.5C1145.85 272.667 1145.2 272.75 1144.57 272.75C1143.67 272.75 1142.97 272.633 1142.47 272.4C1141.84 273.5 1141.1 274.617 1140.27 275.75C1139.44 276.85 1138.62 277.85 1137.82 278.75C1137.05 279.65 1136.4 280.333 1135.87 280.8C1135.64 281 1135.4 281.1 1135.17 281.1C1134.94 281.1 1134.74 281.017 1134.57 280.85C1134.4 280.683 1134.32 280.5 1134.32 280.3C1134.32 280.133 1134.39 279.983 1134.52 279.85C1135.12 279.217 1135.82 278.4 1136.62 277.4C1137.45 276.4 1138.27 275.333 1139.07 274.2C1139.9 273.067 1140.59 272.017 1141.12 271.05C1141.09 270.383 1141.17 269.633 1141.37 268.8C1141.6 267.967 1141.9 267.167 1142.27 266.4C1142.67 265.633 1143.1 265 1143.57 264.5C1144.04 263.967 1144.52 263.7 1145.02 263.7C1145.55 263.7 1145.82 264.017 1145.82 264.65C1145.82 265.183 1145.65 265.867 1145.32 266.7C1145.02 267.533 1144.65 268.35 1144.22 269.15C1143.82 269.917 1143.47 270.55 1143.17 271.05C1143.6 271.183 1144.05 271.25 1144.52 271.25C1145.32 271.25 1146.02 271.1 1146.62 270.8C1147.22 270.467 1147.75 270.15 1148.22 269.85C1148.69 269.517 1149.09 269.35 1149.42 269.35C1149.85 269.35 1150.14 269.467 1150.27 269.7C1150.44 269.9 1150.52 270.167 1150.52 270.5C1150.52 271.133 1150.35 271.833 1150.02 272.6C1149.69 273.333 1149.44 273.8 1149.27 274C1149.04 274.367 1148.69 274.917 1148.22 275.65C1147.75 276.35 1147.29 277.1 1146.82 277.9C1146.35 278.7 1145.97 279.467 1145.67 280.2C1145.54 280.567 1145.4 280.95 1145.27 281.35C1145.17 281.717 1145.12 282.033 1145.12 282.3C1145.12 282.733 1145.3 282.95 1145.67 282.95C1146 282.95 1146.49 282.783 1147.12 282.45C1147.92 282.017 1148.65 281.467 1149.32 280.8C1150.02 280.1 1150.62 279.5 1151.12 279C1151.15 278.967 1151.3 278.8 1151.57 278.5C1151.87 278.2 1152.15 277.9 1152.42 277.6C1152.72 277.3 1152.87 277.15 1152.87 277.15C1153 276.983 1153.17 276.9 1153.37 276.9C1153.54 276.9 1153.69 277 1153.82 277.2C1153.99 277.367 1154.07 277.583 1154.07 277.85C1154.07 278.15 1153.99 278.4 1153.82 278.6C1153.32 279.3 1152.64 280.067 1151.77 280.9C1150.9 281.733 1150.14 282.417 1149.47 282.95C1148.77 283.483 1148.05 283.917 1147.32 284.25C1146.62 284.55 1145.92 284.7 1145.22 284.7ZM1153.79 285.25C1152.85 285.25 1152.15 284.983 1151.69 284.45C1151.25 283.883 1151.04 283.183 1151.04 282.35C1151.04 281.417 1151.3 280.333 1151.84 279.1C1152.4 277.833 1153.14 276.533 1154.04 275.2C1154.94 273.867 1155.92 272.633 1156.99 271.5C1158.09 270.333 1159.19 269.4 1160.29 268.7C1161.39 267.967 1162.4 267.6 1163.34 267.6C1163.97 267.6 1164.59 267.7 1165.19 267.9C1165.79 268.067 1166.27 268.417 1166.64 268.95C1167.04 269.483 1167.24 270.267 1167.24 271.3C1167.24 271.667 1167.14 271.933 1166.94 272.1C1166.74 272.267 1166.55 272.35 1166.39 272.35C1166.02 272.35 1165.84 272.217 1165.84 271.95C1165.67 270.883 1165.32 270.183 1164.79 269.85C1164.29 269.517 1163.8 269.35 1163.34 269.35C1162.67 269.35 1161.89 269.683 1160.99 270.35C1160.09 271.017 1159.17 271.867 1158.24 272.9C1157.3 273.933 1156.42 275.05 1155.59 276.25C1154.79 277.417 1154.14 278.55 1153.64 279.65C1153.14 280.717 1152.89 281.6 1152.89 282.3C1152.89 282.633 1152.94 282.933 1153.04 283.2C1153.17 283.467 1153.37 283.6 1153.64 283.6C1154.14 283.6 1154.79 283.333 1155.59 282.8C1156.39 282.267 1157.24 281.583 1158.14 280.75C1159.07 279.883 1159.99 278.983 1160.89 278.05C1161.79 277.117 1162.6 276.233 1163.34 275.4C1164.07 274.567 1164.64 273.9 1165.04 273.4C1165.24 273.1 1165.49 272.95 1165.79 272.95C1166.02 272.95 1166.24 273.033 1166.44 273.2C1166.64 273.367 1166.74 273.583 1166.74 273.85C1166.74 273.983 1166.69 274.133 1166.59 274.3C1166.35 274.667 1166.07 275.183 1165.74 275.85C1165.44 276.517 1165.12 277.233 1164.79 278C1164.49 278.767 1164.22 279.483 1163.99 280.15C1163.79 280.783 1163.69 281.267 1163.69 281.6C1163.69 281.933 1163.8 282.1 1164.04 282.1C1164.2 282.1 1164.4 282.017 1164.64 281.85C1164.9 281.683 1165.14 281.533 1165.34 281.4C1166.14 280.733 1166.9 280.033 1167.64 279.3C1168.37 278.533 1169.04 277.817 1169.64 277.15C1169.77 276.983 1169.94 276.9 1170.14 276.9C1170.3 276.9 1170.45 277 1170.59 277.2C1170.75 277.367 1170.84 277.583 1170.84 277.85C1170.84 278.15 1170.75 278.4 1170.59 278.6C1170.05 279.3 1169.35 280.083 1168.49 280.95C1167.62 281.783 1166.85 282.45 1166.19 282.95C1165.75 283.25 1165.24 283.55 1164.64 283.85C1164.07 284.117 1163.52 284.25 1162.99 284.25C1162.59 284.25 1162.25 284.133 1161.99 283.9C1161.72 283.633 1161.59 283.183 1161.59 282.55C1161.59 282.05 1161.67 281.483 1161.84 280.85C1162 280.217 1162.2 279.567 1162.44 278.9C1161.5 279.9 1160.5 280.883 1159.44 281.85C1158.37 282.817 1157.34 283.633 1156.34 284.3C1155.37 284.933 1154.52 285.25 1153.79 285.25ZM1177.38 269.45C1176.98 269.45 1176.61 269.317 1176.28 269.05C1175.98 268.75 1175.83 268.383 1175.83 267.95C1175.83 267.483 1175.98 267.1 1176.28 266.8C1176.58 266.5 1176.94 266.35 1177.38 266.35C1177.84 266.35 1178.23 266.5 1178.53 266.8C1178.83 267.1 1178.98 267.483 1178.98 267.95C1178.98 268.383 1178.81 268.75 1178.48 269.05C1178.18 269.317 1177.81 269.45 1177.38 269.45ZM1169.98 284.45C1169.54 284.45 1169.19 284.333 1168.93 284.1C1168.66 283.833 1168.53 283.417 1168.53 282.85C1168.53 282.15 1168.69 281.3 1169.03 280.3C1169.36 279.267 1169.79 278.217 1170.33 277.15C1170.86 276.05 1171.43 275.05 1172.03 274.15C1172.66 273.217 1173.26 272.483 1173.83 271.95C1174.06 271.717 1174.34 271.6 1174.68 271.6C1174.94 271.6 1175.18 271.667 1175.38 271.8C1175.58 271.933 1175.68 272.1 1175.68 272.3C1175.68 272.467 1175.59 272.633 1175.43 272.8C1175.19 273.033 1174.89 273.417 1174.53 273.95C1174.19 274.45 1173.86 274.983 1173.53 275.55C1173.19 276.083 1172.94 276.533 1172.78 276.9C1172.48 277.533 1172.14 278.25 1171.78 279.05C1171.41 279.85 1171.14 280.5 1170.98 281C1170.88 281.333 1170.83 281.583 1170.83 281.75C1170.83 282.117 1170.96 282.3 1171.23 282.3C1171.46 282.3 1171.73 282.2 1172.03 282C1172.33 281.767 1172.59 281.567 1172.83 281.4C1173.66 280.733 1174.43 280.033 1175.13 279.3C1175.86 278.533 1176.53 277.817 1177.13 277.15C1177.26 276.983 1177.43 276.9 1177.63 276.9C1177.79 276.9 1177.94 277 1178.08 277.2C1178.24 277.367 1178.33 277.583 1178.33 277.85C1178.33 278.15 1178.24 278.4 1178.08 278.6C1177.58 279.3 1176.88 280.083 1175.98 280.95C1175.11 281.783 1174.34 282.45 1173.68 282.95C1173.24 283.283 1172.66 283.617 1171.93 283.95C1171.23 284.283 1170.58 284.45 1169.98 284.45Z" fill="white"/>
<path d="M1075.5 114.422C1074.99 114.796 1074.44 115.051 1073.84 115.186C1073.26 115.32 1072.67 115.388 1072.07 115.388C1070.02 115.388 1068.19 115.081 1066.59 114.467C1065 113.868 1063.6 113.037 1062.39 111.974C1061.19 110.91 1060.16 109.66 1059.31 108.223C1058.47 106.785 1057.77 105.235 1057.2 103.573C1056.64 101.911 1056.22 100.174 1055.92 98.3623C1055.62 96.5505 1055.42 94.7461 1055.31 92.9492C1055.21 91.1374 1055.18 89.3704 1055.22 87.6484C1055.28 85.9115 1055.39 84.3018 1055.54 82.8193C1055.27 83.2236 1054.94 83.8675 1054.55 84.751C1054.16 85.6344 1053.72 86.6676 1053.25 87.8506C1052.78 89.0335 1052.29 90.3288 1051.79 91.7363C1051.28 93.1289 1050.77 94.5365 1050.26 95.959C1049.76 97.3815 1049.28 98.7816 1048.8 100.159C1048.33 101.522 1047.91 102.765 1047.54 103.888C1047.18 105.011 1046.87 105.962 1046.6 106.74C1046.34 107.534 1046.18 108.065 1046.1 108.335C1046.04 108.515 1045.96 108.739 1045.86 109.009C1045.77 109.278 1045.65 109.54 1045.5 109.795C1045.36 110.049 1045.2 110.267 1045 110.446C1044.82 110.626 1044.61 110.716 1044.37 110.716C1044.1 110.716 1043.88 110.604 1043.7 110.379C1043.52 110.169 1043.37 109.915 1043.25 109.615C1043.15 109.316 1043.06 109.016 1042.98 108.717C1042.92 108.417 1042.88 108.178 1042.85 107.998C1042.76 107.369 1042.67 106.576 1042.6 105.617C1042.52 104.659 1042.46 103.596 1042.4 102.428C1042.35 101.26 1042.31 100.017 1042.28 98.6992C1042.25 97.3665 1042.22 96.0339 1042.19 94.7012C1042.18 93.3535 1042.16 92.0358 1042.15 90.748C1042.15 89.4453 1042.14 88.2324 1042.13 87.1094C1042.13 85.9714 1042.13 84.9531 1042.13 84.0547C1042.13 83.1562 1042.13 82.4375 1042.13 81.8984C1041.8 82.6471 1041.4 83.598 1040.94 84.751C1040.49 85.904 1039.99 87.1992 1039.45 88.6367C1038.93 90.0742 1038.38 91.624 1037.79 93.2861C1037.22 94.9333 1036.65 96.6328 1036.08 98.3848C1035.53 100.137 1034.99 101.904 1034.47 103.686C1033.96 105.467 1033.5 107.197 1033.1 108.874C1033.05 109.024 1032.99 109.203 1032.92 109.413C1032.86 109.638 1032.78 109.847 1032.67 110.042C1032.57 110.237 1032.43 110.401 1032.27 110.536C1032.12 110.686 1031.93 110.761 1031.71 110.761C1031.5 110.761 1031.31 110.693 1031.14 110.559C1030.98 110.424 1030.84 110.259 1030.72 110.064C1030.61 109.885 1030.52 109.683 1030.45 109.458C1030.39 109.248 1030.35 109.054 1030.33 108.874C1030.26 108.5 1030.19 108.088 1030.13 107.639C1030.09 107.189 1030.04 106.725 1030 106.246C1029.97 105.782 1029.94 105.318 1029.91 104.854C1029.88 104.404 1029.85 103.985 1029.82 103.596C1029.65 101.544 1029.53 99.5153 1029.46 97.5088C1029.4 95.5023 1029.37 93.4808 1029.37 91.4443C1029.37 89.4378 1029.4 87.4463 1029.46 85.4697C1029.53 83.4932 1029.64 81.4941 1029.77 79.4727C1029.82 78.8887 1029.89 78.2373 1029.98 77.5186C1030.07 76.7848 1030.24 76.096 1030.49 75.4521C1030.76 74.8083 1031.14 74.2692 1031.64 73.835C1032.15 73.4007 1032.84 73.1836 1033.7 73.1836C1033.91 73.1836 1034.09 73.236 1034.24 73.3408C1034.39 73.4307 1034.47 73.5954 1034.47 73.835V74.0596C1034.33 74.958 1034.2 75.8564 1034.06 76.7549C1033.93 77.6383 1033.79 78.5443 1033.64 79.4727C1033.28 82.4674 1032.97 85.4622 1032.72 88.457C1032.48 91.4368 1032.36 94.4391 1032.36 97.4639C1032.36 98.6468 1032.38 99.8148 1032.42 100.968C1032.47 102.121 1032.55 103.281 1032.67 104.449C1033.7 101.245 1034.61 98.4072 1035.39 95.9365C1036.18 93.4658 1036.88 91.3021 1037.48 89.4453C1038.08 87.5885 1038.58 86.0088 1038.98 84.7061C1039.4 83.3883 1039.75 82.2878 1040.04 81.4043C1040.32 80.5208 1040.55 79.8171 1040.71 79.293C1040.88 78.7539 1041.01 78.3421 1041.12 78.0576C1041.22 77.7581 1041.3 77.541 1041.34 77.4062C1041.39 77.2715 1041.43 77.1517 1041.48 77.0469C1041.7 76.5378 1042.01 76.0811 1042.4 75.6768C1042.79 75.2725 1043.29 75.0703 1043.9 75.0703C1044.32 75.0703 1044.66 75.1751 1044.91 75.3848C1045.18 75.5944 1045.39 75.8564 1045.54 76.1709C1045.69 76.4854 1045.79 76.8298 1045.83 77.2041C1045.89 77.5785 1045.92 77.9229 1045.92 78.2373C1045.89 80.5583 1045.83 82.8568 1045.72 85.1328C1045.62 87.3939 1045.53 89.64 1045.45 91.8711C1045.38 94.1022 1045.34 96.3184 1045.34 98.5195C1045.35 100.721 1045.46 102.914 1045.65 105.101C1046.25 103.334 1046.81 101.672 1047.32 100.114C1047.82 98.542 1048.3 97.0446 1048.75 95.6221C1049.22 94.1995 1049.66 92.8294 1050.08 91.5117C1050.51 90.194 1050.95 88.8913 1051.4 87.6035C1051.87 86.3158 1052.35 85.028 1052.84 83.7402C1053.33 82.4525 1053.88 81.1273 1054.48 79.7646C1054.62 79.4951 1054.76 79.2256 1054.93 78.9561C1055.09 78.6715 1055.28 78.417 1055.49 78.1924C1055.7 77.9678 1055.94 77.7806 1056.21 77.6309C1056.48 77.4811 1056.78 77.4062 1057.11 77.4062C1057.57 77.4062 1057.94 77.556 1058.21 77.8555C1058.48 78.1549 1058.68 78.5143 1058.82 78.9336C1058.97 79.3529 1059.06 79.7946 1059.11 80.2588C1059.15 80.708 1059.17 81.0898 1059.17 81.4043C1059.17 82.7819 1059.13 84.3092 1059.04 85.9863C1058.95 87.6484 1058.88 89.3779 1058.84 91.1748C1058.81 92.9717 1058.83 94.791 1058.91 96.6328C1058.98 98.4746 1059.18 100.257 1059.51 101.979C1059.84 103.701 1060.33 105.31 1060.97 106.808C1061.62 108.305 1062.48 109.608 1063.58 110.716C1064.67 111.839 1066.02 112.722 1067.62 113.366C1069.24 114.01 1071.18 114.332 1073.44 114.332C1073.78 114.332 1074.11 114.302 1074.43 114.242C1074.76 114.197 1075.07 114.107 1075.37 113.973L1075.5 114.422ZM1074.65 92.2305C1074.65 92.3952 1074.59 92.5449 1074.47 92.6797C1074.35 92.7995 1074.21 92.8594 1074.04 92.8594C1073.91 92.8594 1073.77 92.8219 1073.62 92.7471C1073.47 92.6572 1073.3 92.5599 1073.1 92.4551C1072.92 92.3503 1072.7 92.2604 1072.45 92.1855C1072.21 92.0957 1071.93 92.0508 1071.62 92.0508C1070.88 92.0508 1070.23 92.2829 1069.64 92.7471C1069.07 93.1963 1068.59 93.7578 1068.18 94.4316C1067.79 95.1055 1067.49 95.8242 1067.28 96.5879C1067.07 97.3516 1066.97 98.0404 1066.97 98.6543C1066.97 99.0885 1067.01 99.5153 1067.08 99.9346C1067.16 100.339 1067.28 100.713 1067.46 101.058C1067.66 101.387 1067.92 101.657 1068.25 101.866C1068.58 102.061 1069 102.158 1069.51 102.158C1070.05 102.158 1070.56 102.061 1071.06 101.866C1071.55 101.657 1072.01 101.387 1072.45 101.058C1072.46 100.578 1072.54 100.077 1072.67 99.5527C1072.82 99.0137 1073.01 98.4896 1073.24 97.9805C1073.46 97.4564 1073.71 96.9622 1074 96.498C1074.3 96.0339 1074.61 95.6221 1074.92 95.2627L1075.21 95.4424C1075.05 95.9515 1074.93 96.4756 1074.85 97.0146C1074.78 97.5537 1074.74 98.0853 1074.74 98.6094C1074.74 99.1484 1074.79 99.6576 1074.88 100.137C1074.96 100.616 1075.12 101.035 1075.35 101.395C1075.57 101.739 1075.88 102.016 1076.27 102.226C1076.66 102.42 1077.16 102.518 1077.77 102.518C1078.52 102.518 1079.21 102.345 1079.84 102.001C1080.47 101.657 1081.02 101.222 1081.5 100.698L1081.68 100.788C1081.41 101.312 1081.06 101.814 1080.62 102.293C1080.19 102.772 1079.7 103.206 1079.17 103.596C1078.64 103.97 1078.08 104.27 1077.48 104.494C1076.88 104.719 1076.29 104.831 1075.71 104.831C1074.88 104.831 1074.21 104.591 1073.68 104.112C1073.16 103.648 1072.8 103.057 1072.61 102.338C1071.98 102.967 1071.27 103.498 1070.5 103.933C1069.73 104.352 1068.92 104.562 1068.07 104.562C1067.44 104.562 1066.88 104.442 1066.38 104.202C1065.91 103.978 1065.5 103.671 1065.17 103.281C1064.84 102.892 1064.59 102.435 1064.41 101.911C1064.24 101.372 1064.16 100.811 1064.16 100.227C1064.16 99.5527 1064.27 98.8639 1064.48 98.1602C1064.7 97.4414 1065 96.7376 1065.37 96.0488C1065.76 95.36 1066.22 94.7087 1066.74 94.0947C1067.27 93.4808 1067.84 92.9417 1068.45 92.4775C1069.08 92.0133 1069.74 91.6465 1070.43 91.377C1071.12 91.1074 1071.82 90.9727 1072.54 90.9727C1072.7 90.9727 1072.91 90.9951 1073.15 91.04C1073.39 91.07 1073.62 91.1299 1073.84 91.2197C1074.07 91.3096 1074.25 91.4368 1074.4 91.6016C1074.57 91.7663 1074.65 91.9759 1074.65 92.2305ZM1101.38 100.788C1101.14 101.282 1100.84 101.731 1100.48 102.136C1100.12 102.525 1099.72 102.862 1099.27 103.146C1098.82 103.416 1098.34 103.626 1097.83 103.775C1097.32 103.925 1096.79 104 1096.24 104C1095.07 104 1094.07 103.715 1093.25 103.146C1092.44 102.577 1091.76 101.836 1091.2 100.923C1090.8 101.372 1090.35 101.821 1089.86 102.271C1089.38 102.705 1088.86 103.094 1088.31 103.438C1087.77 103.768 1087.21 104.037 1086.62 104.247C1086.04 104.457 1085.45 104.562 1084.87 104.562C1084.17 104.562 1083.54 104.419 1082.98 104.135C1082.43 103.85 1081.96 103.476 1081.57 103.012C1081.18 102.533 1080.88 101.993 1080.67 101.395C1080.46 100.781 1080.36 100.144 1080.36 99.4854C1080.36 98.4971 1080.57 97.5013 1081.01 96.498C1081.46 95.4948 1082.04 94.5889 1082.76 93.7803C1083.49 92.9567 1084.33 92.2904 1085.27 91.7812C1086.22 91.2721 1087.2 91.0176 1088.22 91.0176C1088.52 91.0176 1088.78 91.0475 1089 91.1074V90.1641C1089 89.7298 1089.02 89.1533 1089.05 88.4346C1089.08 87.7158 1089.14 86.9222 1089.23 86.0537C1089.32 85.1702 1089.43 84.2493 1089.56 83.291C1089.71 82.3177 1089.9 81.3594 1090.13 80.416C1090.37 79.4577 1090.64 78.5518 1090.96 77.6982C1091.27 76.8298 1091.64 76.0736 1092.06 75.4297C1092.48 74.7708 1092.96 74.2467 1093.5 73.8574C1094.03 73.4681 1094.64 73.2734 1095.31 73.2734C1096.11 73.2734 1096.75 73.5055 1097.25 73.9697C1097.74 74.4339 1098.13 75.0104 1098.41 75.6992C1098.7 76.373 1098.89 77.0918 1098.98 77.8555C1099.08 78.6191 1099.13 79.3005 1099.13 79.8994C1099.13 80.6781 1099.06 81.584 1098.91 82.6172C1098.76 83.6354 1098.55 84.721 1098.28 85.874C1098.01 87.012 1097.69 88.18 1097.31 89.3779C1096.94 90.5758 1096.53 91.7288 1096.1 92.8369C1095.67 93.945 1095.19 94.9782 1094.69 95.9365C1094.19 96.8799 1093.69 97.681 1093.18 98.3398C1093.38 98.9238 1093.61 99.4629 1093.88 99.957C1094.16 100.451 1094.49 100.878 1094.87 101.237C1095.24 101.597 1095.67 101.881 1096.15 102.091C1096.62 102.285 1097.17 102.383 1097.79 102.383C1099.19 102.383 1100.35 101.821 1101.24 100.698L1101.38 100.788ZM1092.17 88.2773C1092.17 88.8164 1092.17 89.4453 1092.17 90.1641C1092.17 90.8678 1092.18 91.6165 1092.21 92.4102C1092.26 93.2038 1092.33 94.0199 1092.42 94.8584C1092.52 95.682 1092.67 96.4831 1092.87 97.2617C1093.5 96.0488 1094.07 94.7236 1094.6 93.2861C1095.12 91.8337 1095.57 90.3512 1095.94 88.8389C1096.33 87.3115 1096.63 85.7917 1096.84 84.2793C1097.05 82.7669 1097.16 81.3369 1097.16 79.9893C1097.16 79.7048 1097.14 79.293 1097.11 78.7539C1097.08 78.2148 1097 77.6833 1096.86 77.1592C1096.73 76.6201 1096.53 76.1559 1096.26 75.7666C1095.99 75.3623 1095.62 75.1602 1095.16 75.1602C1094.8 75.1602 1094.48 75.3324 1094.19 75.6768C1093.91 76.0062 1093.66 76.4554 1093.45 77.0244C1093.24 77.5785 1093.06 78.2148 1092.91 78.9336C1092.78 79.6523 1092.66 80.401 1092.55 81.1797C1092.46 81.9583 1092.39 82.7295 1092.33 83.4932C1092.28 84.2568 1092.24 84.9681 1092.21 85.627C1092.2 86.2708 1092.18 86.8324 1092.17 87.3115C1092.17 87.7757 1092.17 88.0977 1092.17 88.2773ZM1086.51 102.113C1087.36 102.113 1088.15 101.949 1088.87 101.619C1089.6 101.29 1090.27 100.855 1090.87 100.316C1090.58 99.7624 1090.34 99.1709 1090.13 98.542C1089.93 97.8981 1089.76 97.2542 1089.61 96.6104C1089.47 95.9515 1089.36 95.2926 1089.27 94.6338C1089.2 93.9749 1089.14 93.3385 1089.09 92.7246C1088.91 92.5299 1088.69 92.3727 1088.42 92.2529C1088.15 92.1182 1087.82 92.0508 1087.43 92.0508C1086.73 92.0508 1086.1 92.2454 1085.54 92.6348C1085 93.0091 1084.55 93.4883 1084.17 94.0723C1083.8 94.6413 1083.51 95.2702 1083.32 95.959C1083.13 96.6328 1083.03 97.2767 1083.03 97.8906C1083.03 98.4596 1083.09 99.0062 1083.21 99.5303C1083.34 100.039 1083.55 100.489 1083.84 100.878C1084.12 101.252 1084.48 101.552 1084.92 101.776C1085.36 102.001 1085.9 102.113 1086.51 102.113ZM1114.59 100.788C1114.2 101.357 1113.72 101.889 1113.17 102.383C1112.63 102.877 1112.03 103.304 1111.37 103.663C1110.73 104.022 1110.05 104.307 1109.33 104.517C1108.63 104.726 1107.92 104.831 1107.2 104.831C1106.18 104.831 1105.23 104.696 1104.34 104.427C1103.46 104.172 1102.69 103.775 1102.03 103.236C1101.37 102.697 1100.85 102.023 1100.48 101.215C1100.11 100.391 1099.92 99.4329 1099.92 98.3398C1099.92 97.2617 1100.11 96.2585 1100.5 95.3301C1100.91 94.3867 1101.45 93.5706 1102.14 92.8818C1102.85 92.1781 1103.67 91.624 1104.61 91.2197C1105.56 90.8154 1106.57 90.6133 1107.65 90.6133C1108.15 90.6133 1108.63 90.6882 1109.06 90.8379C1109.51 90.9727 1109.9 91.1823 1110.23 91.4668C1110.56 91.7363 1110.81 92.0732 1110.99 92.4775C1111.19 92.8818 1111.28 93.346 1111.28 93.8701C1111.28 94.499 1111.16 95.0531 1110.9 95.5322C1110.65 96.0114 1110.31 96.4307 1109.89 96.79C1109.47 97.1494 1108.99 97.4489 1108.45 97.6885C1107.93 97.9281 1107.38 98.1227 1106.79 98.2725C1106.22 98.4222 1105.65 98.5345 1105.08 98.6094C1104.53 98.6693 1104.02 98.6992 1103.56 98.6992H1103.02C1103.21 100.062 1103.75 101.103 1104.64 101.821C1105.52 102.54 1106.74 102.899 1108.3 102.899C1109.4 102.899 1110.48 102.705 1111.53 102.315C1112.59 101.926 1113.55 101.387 1114.41 100.698L1114.59 100.788ZM1102.95 98.0254H1103.51C1104.05 98.0254 1104.61 97.943 1105.17 97.7783C1105.74 97.5986 1106.25 97.3441 1106.7 97.0146C1107.17 96.6702 1107.55 96.251 1107.85 95.7568C1108.15 95.2627 1108.3 94.7012 1108.3 94.0723C1108.3 93.4583 1108.16 92.9492 1107.89 92.5449C1107.64 92.1406 1107.19 91.9385 1106.54 91.9385C1105.89 91.9385 1105.32 92.1406 1104.86 92.5449C1104.41 92.9342 1104.04 93.4209 1103.76 94.0049C1103.48 94.5739 1103.27 95.1803 1103.13 95.8242C1103.01 96.4531 1102.95 97.0146 1102.95 97.5088V98.0254ZM1136.35 90.9727C1136.08 91.2122 1135.71 91.4518 1135.25 91.6914C1134.79 91.916 1134.26 92.1406 1133.68 92.3652C1133.09 92.5749 1132.46 92.777 1131.79 92.9717C1131.13 93.1663 1130.47 93.3385 1129.81 93.4883C1129.83 95.4648 1129.82 97.4414 1129.79 99.418C1129.76 101.395 1129.66 103.364 1129.5 105.325C1129.35 107.302 1129.11 109.256 1128.78 111.188C1128.47 113.119 1128.02 115.013 1127.43 116.87H1126.87V94.0498C1126.5 94.1097 1126.15 94.1546 1125.84 94.1846C1125.52 94.1995 1125.25 94.207 1125.01 94.207C1124.71 94.207 1124.42 94.1921 1124.13 94.1621C1123.86 94.1172 1123.62 94.0348 1123.39 93.915C1123.18 93.7803 1123.01 93.6006 1122.87 93.376C1122.74 93.1514 1122.67 92.8444 1122.67 92.4551C1122.67 91.9909 1122.82 91.6315 1123.12 91.377C1123.42 91.1074 1123.79 90.9727 1124.22 90.9727C1124.66 90.9727 1125.09 90.9951 1125.52 91.04C1125.97 91.07 1126.42 91.1074 1126.87 91.1523V91.085C1126.87 90.0218 1126.89 88.8538 1126.94 87.5811C1127 86.2933 1127.13 85.0055 1127.32 83.7178C1127.53 82.43 1127.83 81.1797 1128.22 79.9668C1128.61 78.7539 1129.14 77.6833 1129.81 76.7549C1130.5 75.8115 1131.36 75.0553 1132.38 74.4863C1133.39 73.9173 1134.63 73.6328 1136.08 73.6328C1136.84 73.6328 1137.52 73.7676 1138.1 74.0371C1138.69 74.3066 1139.17 74.681 1139.56 75.1602C1139.95 75.6243 1140.24 76.1784 1140.44 76.8223C1140.63 77.4512 1140.73 78.125 1140.73 78.8438C1140.73 79.6224 1140.59 80.3861 1140.3 81.1348C1140.02 81.8835 1139.64 82.5872 1139.18 83.2461C1138.72 83.9049 1138.18 84.5114 1137.56 85.0654C1136.96 85.6045 1136.34 86.0612 1135.7 86.4355L1135.47 85.9189C1135.91 85.5296 1136.28 85.0804 1136.6 84.5713C1136.93 84.0472 1137.2 83.4932 1137.41 82.9092C1137.62 82.3252 1137.77 81.7337 1137.86 81.1348C1137.96 80.5208 1138.01 79.9219 1138.01 79.3379C1138.01 78.8288 1137.95 78.3047 1137.83 77.7656C1137.71 77.2266 1137.53 76.7399 1137.27 76.3057C1137.02 75.8564 1136.68 75.4971 1136.26 75.2275C1135.84 74.943 1135.33 74.8008 1134.73 74.8008C1133.88 74.8008 1133.16 75.0329 1132.58 75.4971C1132.01 75.9613 1131.54 76.5602 1131.16 77.2939C1130.8 78.0277 1130.53 78.8587 1130.33 79.7871C1130.14 80.7155 1129.99 81.6439 1129.9 82.5723C1129.83 83.4857 1129.78 84.3617 1129.77 85.2002C1129.77 86.0387 1129.77 86.7425 1129.77 87.3115C1129.77 87.9854 1129.77 88.6592 1129.77 89.333C1129.77 90.0068 1129.78 90.6807 1129.79 91.3545C1130.83 91.3545 1131.89 91.3171 1132.98 91.2422C1134.09 91.1523 1135.14 90.9577 1136.13 90.6582L1136.35 90.9727ZM1152.86 100.788C1152.59 101.387 1152.25 101.926 1151.83 102.405C1151.42 102.884 1150.98 103.296 1150.5 103.641C1150.02 103.97 1149.53 104.225 1149.02 104.404C1148.51 104.599 1148.02 104.696 1147.56 104.696C1146.69 104.696 1145.96 104.547 1145.36 104.247C1144.76 103.948 1144.27 103.543 1143.9 103.034C1143.52 102.525 1143.25 101.926 1143.09 101.237C1142.92 100.549 1142.84 99.8148 1142.84 99.0361C1142.84 98.4372 1142.89 97.8158 1142.98 97.1719C1143.07 96.528 1143.19 95.9066 1143.36 95.3076C1143.39 95.2178 1143.42 95.113 1143.45 94.9932C1143.48 94.8584 1143.49 94.7461 1143.49 94.6562C1143.49 94.5814 1143.45 94.5215 1143.36 94.4766C1143.1 94.3867 1142.83 94.3044 1142.55 94.2295C1142.27 94.1396 1141.98 94.0423 1141.7 93.9375C1141.43 93.8327 1141.16 93.7129 1140.91 93.5781C1140.67 93.4434 1140.46 93.2712 1140.28 93.0615C1140.27 93.96 1140.12 94.8734 1139.83 95.8018C1139.55 96.7152 1139.17 97.5986 1138.69 98.4521C1138.22 99.2907 1137.68 100.077 1137.05 100.811C1136.42 101.544 1135.75 102.181 1135.05 102.72L1134.82 102.495C1135.26 102.016 1135.65 101.447 1136.01 100.788C1136.37 100.129 1136.68 99.4404 1136.93 98.7217C1137.19 98.0029 1137.38 97.2767 1137.52 96.543C1137.67 95.8092 1137.74 95.1204 1137.74 94.4766C1137.74 94.1471 1137.71 93.8402 1137.65 93.5557C1137.59 93.2562 1137.53 92.9717 1137.45 92.7021C1137.39 92.4326 1137.33 92.1781 1137.27 91.9385C1137.21 91.6839 1137.18 91.4294 1137.18 91.1748C1137.18 90.7555 1137.32 90.4261 1137.59 90.1865C1137.86 89.9469 1138.2 89.8271 1138.62 89.8271C1138.84 89.8271 1139.02 89.8945 1139.14 90.0293C1139.26 90.1491 1139.36 90.2988 1139.45 90.4785C1139.54 90.6582 1139.64 90.8454 1139.76 91.04C1139.88 91.2347 1140.06 91.3994 1140.28 91.5342C1140.57 91.6989 1140.93 91.8187 1141.36 91.8936C1141.79 91.9684 1142.25 92.0358 1142.73 92.0957C1143.21 92.1556 1143.69 92.2155 1144.17 92.2754C1144.65 92.3353 1145.07 92.4401 1145.45 92.5898C1145.84 92.7246 1146.15 92.9193 1146.39 93.1738C1146.63 93.4134 1146.75 93.7428 1146.75 94.1621C1146.75 94.3717 1146.73 94.5814 1146.68 94.791C1146.65 94.9857 1146.6 95.1729 1146.53 95.3525C1146.35 95.9814 1146.19 96.6253 1146.05 97.2842C1145.93 97.9281 1145.87 98.5719 1145.87 99.2158C1145.87 99.7699 1145.91 100.279 1145.99 100.743C1146.08 101.192 1146.23 101.582 1146.46 101.911C1146.68 102.241 1146.98 102.495 1147.36 102.675C1147.73 102.854 1148.21 102.944 1148.79 102.944C1149.63 102.944 1150.37 102.742 1151 102.338C1151.62 101.919 1152.18 101.372 1152.66 100.698L1152.86 100.788ZM1164.7 97.374C1164.7 98.4222 1164.52 99.3955 1164.18 100.294C1163.84 101.192 1163.35 101.971 1162.72 102.63C1162.09 103.289 1161.33 103.805 1160.45 104.18C1159.58 104.554 1158.62 104.741 1157.55 104.741C1156.61 104.741 1155.76 104.562 1154.99 104.202C1154.24 103.858 1153.6 103.386 1153.06 102.787C1152.52 102.188 1152.11 101.492 1151.83 100.698C1151.54 99.8896 1151.4 99.0286 1151.4 98.1152C1151.4 97.3516 1151.5 96.6253 1151.71 95.9365C1151.94 95.2477 1152.25 94.6113 1152.63 94.0273C1153.02 93.4284 1153.49 92.8818 1154.03 92.3877C1154.57 91.8786 1155.15 91.4219 1155.78 91.0176L1156.05 91.2197C1155.42 91.9535 1154.93 92.762 1154.57 93.6455C1154.21 94.529 1154.03 95.4648 1154.03 96.4531C1154.03 97.1719 1154.13 97.9056 1154.34 98.6543C1154.57 99.388 1154.89 100.062 1155.31 100.676C1155.73 101.29 1156.25 101.791 1156.88 102.181C1157.51 102.57 1158.23 102.765 1159.04 102.765C1159.55 102.765 1160.02 102.66 1160.47 102.45C1160.92 102.241 1161.31 101.956 1161.64 101.597C1161.99 101.237 1162.26 100.833 1162.45 100.384C1162.66 99.9196 1162.76 99.4404 1162.76 98.9463C1162.76 98.4671 1162.69 98.0029 1162.54 97.5537C1162.41 97.0895 1162.21 96.6628 1161.96 96.2734C1161.7 95.8691 1161.39 95.5098 1161.04 95.1953C1160.68 94.8659 1160.29 94.5964 1159.87 94.3867C1159.63 94.2669 1159.4 94.1771 1159.17 94.1172C1158.96 94.0573 1158.73 93.9899 1158.47 93.915C1158.37 93.9001 1158.26 93.8776 1158.14 93.8477C1158.02 93.8027 1157.91 93.7578 1157.8 93.7129C1157.7 93.653 1157.61 93.5781 1157.53 93.4883C1157.46 93.3984 1157.42 93.2861 1157.42 93.1514C1157.42 92.8818 1157.52 92.6348 1157.71 92.4102C1157.91 92.1855 1158.14 91.9909 1158.41 91.8262C1158.68 91.6465 1158.96 91.5117 1159.26 91.4219C1159.56 91.3171 1159.82 91.2646 1160.05 91.2646C1160.81 91.2646 1161.48 91.4593 1162.07 91.8486C1162.65 92.238 1163.14 92.7321 1163.53 93.3311C1163.92 93.93 1164.21 94.5889 1164.4 95.3076C1164.6 96.0264 1164.7 96.7152 1164.7 97.374ZM1193.2 100.788C1192.93 101.327 1192.61 101.851 1192.23 102.36C1191.86 102.854 1191.44 103.296 1190.98 103.686C1190.51 104.075 1189.99 104.382 1189.43 104.606C1188.87 104.846 1188.27 104.966 1187.61 104.966C1186.68 104.966 1185.92 104.651 1185.34 104.022C1184.75 103.394 1184.27 102.577 1183.9 101.574C1183.54 100.556 1183.26 99.4105 1183.05 98.1377C1182.84 96.8499 1182.66 95.5547 1182.51 94.252C1182.16 94.8659 1181.84 95.5098 1181.54 96.1836C1181.26 96.8424 1180.98 97.5387 1180.71 98.2725C1180.44 99.0062 1180.17 99.7624 1179.9 100.541C1179.63 101.32 1179.34 102.121 1179.03 102.944C1178.95 103.124 1178.87 103.326 1178.78 103.551C1178.69 103.76 1178.57 103.963 1178.42 104.157C1178.29 104.367 1178.12 104.539 1177.93 104.674C1177.73 104.809 1177.5 104.876 1177.23 104.876C1177.03 104.876 1176.86 104.831 1176.71 104.741C1176.56 104.651 1176.43 104.539 1176.31 104.404C1176.2 104.285 1176.11 104.15 1176.02 104C1175.94 103.835 1175.87 103.686 1175.81 103.551C1175.51 102.877 1175.28 102.188 1175.1 101.484C1174.92 100.781 1174.76 100.054 1174.62 99.3057C1174.5 98.557 1174.4 97.7633 1174.31 96.9248C1174.22 96.0863 1174.13 95.1953 1174.04 94.252C1173.73 94.9857 1173.44 95.6895 1173.19 96.3633C1172.95 97.0221 1172.71 97.6885 1172.47 98.3623C1172.24 99.0212 1172.01 99.71 1171.77 100.429C1171.55 101.132 1171.31 101.896 1171.05 102.72C1170.99 102.914 1170.93 103.124 1170.85 103.349C1170.79 103.558 1170.71 103.753 1170.6 103.933C1170.51 104.112 1170.39 104.262 1170.22 104.382C1170.07 104.502 1169.88 104.562 1169.64 104.562C1169.25 104.562 1168.96 104.434 1168.78 104.18C1168.6 103.94 1168.45 103.656 1168.33 103.326C1168.16 102.877 1167.98 102.256 1167.82 101.462C1167.65 100.653 1167.5 99.7773 1167.37 98.834C1167.23 97.8906 1167.13 96.9173 1167.05 95.9141C1166.98 94.9108 1166.94 93.9749 1166.94 93.1064C1166.94 92.2679 1167.17 91.654 1167.62 91.2646C1168.07 90.8604 1168.66 90.6582 1169.39 90.6582C1169.44 90.6582 1169.5 90.6582 1169.59 90.6582C1169.68 90.6582 1169.77 90.6732 1169.86 90.7031C1169.95 90.7181 1170.03 90.748 1170.09 90.793C1170.16 90.8379 1170.19 90.8978 1170.18 90.9727C1170.04 92.0208 1169.95 93.0166 1169.91 93.96C1169.86 94.9033 1169.85 95.8242 1169.86 96.7227C1169.88 97.6061 1169.92 98.4821 1170 99.3506C1170.09 100.204 1170.2 101.08 1170.33 101.979C1170.59 101.125 1170.84 100.309 1171.08 99.5303C1171.33 98.7516 1171.59 97.9805 1171.86 97.2168C1172.13 96.4531 1172.42 95.682 1172.71 94.9033C1173.03 94.1097 1173.37 93.2786 1173.73 92.4102C1173.92 91.9609 1174.12 91.6465 1174.33 91.4668C1174.56 91.2871 1174.84 91.1973 1175.19 91.1973C1175.62 91.1973 1175.96 91.362 1176.2 91.6914C1176.45 92.0208 1176.62 92.3952 1176.69 92.8145C1176.81 93.5781 1176.92 94.3643 1177 95.1729C1177.09 95.9665 1177.19 96.7676 1177.3 97.5762C1177.4 98.3848 1177.53 99.1859 1177.68 99.9795C1177.83 100.758 1178.02 101.514 1178.26 102.248C1178.56 101.469 1178.86 100.661 1179.16 99.8223C1179.46 98.9688 1179.77 98.1152 1180.08 97.2617C1180.4 96.4082 1180.73 95.5697 1181.07 94.7461C1181.43 93.9225 1181.81 93.1439 1182.22 92.4102C1182.41 92.0658 1182.63 91.7812 1182.87 91.5566C1183.12 91.3171 1183.44 91.1973 1183.81 91.1973C1184.02 91.1973 1184.21 91.2497 1184.37 91.3545C1184.54 91.4443 1184.68 91.5716 1184.8 91.7363C1184.92 91.8861 1185.02 92.0583 1185.09 92.2529C1185.17 92.4326 1185.22 92.6198 1185.25 92.8145C1185.32 93.2487 1185.39 93.8102 1185.45 94.499C1185.53 95.1878 1185.61 95.9215 1185.72 96.7002C1185.84 97.4788 1185.98 98.265 1186.15 99.0586C1186.31 99.8372 1186.52 100.549 1186.78 101.192C1187.03 101.821 1187.34 102.338 1187.7 102.742C1188.06 103.146 1188.49 103.349 1189 103.349C1189.42 103.349 1189.82 103.274 1190.21 103.124C1190.6 102.959 1190.97 102.757 1191.31 102.518C1191.66 102.263 1191.97 101.979 1192.26 101.664C1192.56 101.335 1192.82 101.013 1193.06 100.698L1193.2 100.788Z" fill="white"/>
<mask id="path-4-inside-1_306_298" fill="white">
<path fill-rule="evenodd" clip-rule="evenodd" d="M920.285 96.2105C901.491 105.649 868.87 145.932 855.237 176.534C851.707 184.46 851.309 184.864 842.48 189.492C830.897 195.564 811.7 203.199 799.954 206.406C779.319 212.037 763.177 212.825 747.846 208.949C742.323 207.551 737.494 206.715 737.119 207.092C736.012 208.198 742.75 210.384 753.175 212.3C774.677 216.25 804.682 209.879 836.714 194.561C843.561 191.287 849.298 188.741 849.463 188.906C849.627 189.07 848.871 192.168 847.782 195.79C844.848 205.544 844.925 218.38 847.948 223.511C852.147 230.64 856.156 232.751 865.477 232.748C872.848 232.744 874.899 232.149 885.128 227.036C898.15 220.527 915.769 207.673 931.292 193.357C937.146 187.959 942.248 183.542 942.632 183.542C943.015 183.542 943.328 186.177 943.328 189.396C943.328 197.423 946.438 207.211 950.377 211.585C954.251 215.888 960.581 217.046 961.297 213.583C961.561 212.311 961.111 211.562 960.203 211.76C959.355 211.945 958.443 211.094 958.176 209.871C957.715 207.753 957.845 207.746 960.83 209.701C962.782 210.98 965.09 211.475 966.941 211.009C970.377 210.147 980.034 200.537 986.681 191.366C990.989 185.421 991.643 185.002 997.536 184.393C1004.72 183.652 1009.85 181.314 1016.99 175.538L1022 171.479L1017.78 181.248C1010 199.243 1011.11 210.273 1020.7 210.273C1025.4 210.273 1033.41 203.666 1039.57 194.713L1043.21 189.427L1046.22 192.257C1048.51 194.41 1050.63 195.085 1055.09 195.085H1060.94L1061.55 200.512C1062.03 204.809 1063.1 206.799 1066.68 210.082C1071.04 214.071 1071.49 214.203 1078.65 213.579C1087.96 212.77 1098.44 208.37 1119.51 196.416C1162.69 171.917 1176.01 166.529 1195.55 165.64C1213.52 164.821 1221.1 166.911 1228.98 174.852C1232.06 177.962 1234.86 181.325 1235.2 182.327C1235.54 183.33 1236.25 183.751 1236.77 183.263C1238.33 181.81 1231.62 172.846 1226.61 169.679C1215.97 162.968 1200.51 161.192 1183.43 164.721C1168.56 167.793 1157.15 172.978 1123.76 191.845C1088.26 211.901 1074.93 215.695 1067.17 207.937C1064.34 205.104 1063.62 203.321 1063.62 199.128C1063.62 193.958 1063.74 193.811 1070.61 190.26C1078.75 186.053 1091.08 174.349 1092.24 169.732C1093.75 163.711 1090.73 160.701 1084.71 162.214C1079.78 163.451 1069.52 174.843 1065.44 183.614C1063.43 187.918 1061.25 191.842 1060.58 192.333C1058.44 193.907 1050.88 193.325 1048.09 191.371C1044.76 189.04 1044.7 186.545 1047.79 179.726C1050.48 173.806 1051.01 168.506 1048.84 169.229C1046.58 169.983 1042.96 177.704 1042.96 181.767C1042.96 188.314 1030.64 204.893 1023.62 207.803C1019.26 209.606 1015.37 207.89 1014.77 203.897C1013.59 196.073 1019.36 179.957 1029.07 163.969C1031.51 159.954 1033.27 156.441 1033 156.162C1032.72 155.882 1028.23 160.306 1023.03 165.992C1012.81 177.156 1004.7 182.327 997.423 182.327H993.114L997.408 173.8C999.77 169.11 1002.03 162.899 1002.43 159.996C1003.06 155.4 1002.78 154.462 1000.31 152.728C993.976 148.293 987.122 151.567 975.05 164.788L968.5 171.964L969.353 163.998C970.702 151.401 967.828 147.56 957.773 148.52C954.092 148.873 953.228 149.722 949.626 156.536C947.408 160.728 944.916 167.836 944.086 172.331L942.58 180.505L929.892 191.87C911.667 208.197 898.165 218.08 885.271 224.529C866.57 233.885 854.702 233.054 849.701 222.04C846.684 215.393 846.751 208.372 849.943 196.543L852.544 186.899L861.623 181.271C905.737 153.928 939.683 119.781 939.683 102.75C939.683 92.7355 932.217 90.218 920.285 96.2105ZM936.152 97.3891C939.457 100.694 938.549 106.305 933.225 115.5C928.107 124.337 901.936 150.493 887.437 161.26C876.714 169.223 856.687 182.327 855.239 182.327C853.92 182.327 865.626 160.587 872.902 149.521C893.124 118.774 917.99 95.0963 930.267 94.8983C932.104 94.8691 934.753 95.9894 936.152 97.3891ZM977.41 125.102C975.947 127.969 975.061 130.628 975.442 131.009C975.823 131.389 976.134 131.063 976.134 130.284C976.134 128.376 983.038 128.465 983.919 130.385C984.303 131.221 984.281 130.536 983.869 128.866C983.458 127.195 982.435 124.492 981.596 122.857L980.071 119.887L977.41 125.102ZM990.31 121.171C989.864 121.616 989.5 124.076 989.5 126.639C989.5 130.535 989.909 131.296 992.01 131.296C996.169 131.296 999.22 128.982 999.22 125.828C999.22 121.889 992.896 118.584 990.31 121.171ZM1004.56 122.081C1004.2 123.026 1004.08 125.351 1004.29 127.245C1004.62 130.125 1005.28 130.717 1008.33 130.865C1011.8 131.031 1011.81 131.012 1008.64 130.479C1004.61 129.805 1004.2 126.816 1008.03 126.078L1010.76 125.551L1008.03 125.386C1004.14 125.15 1004.62 121.838 1008.64 121.231L1011.98 120.725L1008.6 120.543C1006.67 120.438 1004.94 121.097 1004.56 122.081ZM1049.86 121.306C1050.64 121.806 1051.51 124.394 1051.78 127.059L1052.27 131.903L1052.48 126.84C1052.59 124.057 1053.37 121.503 1054.2 121.165C1055.04 120.828 1054.08 120.517 1052.07 120.475C1050.03 120.431 1049.05 120.796 1049.86 121.306ZM960.543 125.828C960.619 128.752 960.884 129.56 961.209 127.856C961.723 125.161 961.833 125.132 963.474 127.249C965.145 129.405 965.252 129.405 966.924 127.249C968.564 125.132 968.675 125.161 969.189 127.856C969.513 129.56 969.778 128.752 969.855 125.828C969.972 121.361 969.841 121.154 968.241 123.267C967.285 124.531 966.209 126.171 965.85 126.912C965.374 127.897 965.024 127.897 964.548 126.912C964.189 126.171 963.113 124.531 962.156 123.267C960.556 121.154 960.426 121.361 960.543 125.828ZM997.203 124.207C998.775 126.718 996.366 130.081 992.996 130.081C991.19 130.081 990.715 129.177 990.715 125.743C990.715 121.996 991.069 121.459 993.324 121.794C994.759 122.008 996.505 123.094 997.203 124.207ZM1024.49 126.629L1026.47 131.681L1028.2 127.54L1029.94 123.398L1031.76 127.651L1033.58 131.903L1035.18 128.258C1036.06 126.253 1036.78 123.793 1036.78 122.791C1036.78 121.788 1036.07 122.608 1035.22 124.613L1033.65 128.258L1031.71 124.613L1029.77 120.968L1028.01 125.127L1026.24 129.286L1025.39 125.431C1024.92 123.311 1024.08 121.576 1023.52 121.576C1022.96 121.576 1023.39 123.849 1024.49 126.629ZM1042.05 125.828C1042.07 128.501 1042.31 129.451 1042.61 127.94C1042.9 126.428 1042.88 124.241 1042.58 123.08C1042.28 121.918 1042.04 123.155 1042.05 125.828ZM1061.05 125.524C1060.72 128.031 1060.9 130.081 1061.43 130.081C1061.96 130.081 1062.4 129.261 1062.4 128.258C1062.4 125.62 1068.16 125.891 1068.85 128.562C1069.16 129.732 1069.41 128.501 1069.41 125.828C1069.41 123.155 1069.16 121.924 1068.85 123.094C1068.52 124.359 1067.14 125.221 1065.44 125.221C1063.71 125.221 1062.4 124.384 1062.11 123.094C1061.85 121.924 1061.37 123.019 1061.05 125.524ZM982.191 126.739C982.201 127.24 981.389 127.651 980.387 127.651C978.527 127.651 977.897 125.077 979.393 123.583C980.208 122.766 982.155 124.962 982.191 126.739ZM1090.35 166.904C1090.35 172.42 1079.94 183.137 1069.28 188.601L1064.62 190.992L1065.49 188.178C1069.75 174.399 1090.35 156.77 1090.35 166.904ZM958.071 203.778C956.928 205.743 956.763 205.578 956.73 202.436C956.703 199.823 957.057 199.215 958.035 200.193C958.996 201.154 959.006 202.169 958.071 203.778Z"/>
</mask>
<path fill-rule="evenodd" clip-rule="evenodd" d="M920.285 96.2105C901.491 105.649 868.87 145.932 855.237 176.534C851.707 184.46 851.309 184.864 842.48 189.492C830.897 195.564 811.7 203.199 799.954 206.406C779.319 212.037 763.177 212.825 747.846 208.949C742.323 207.551 737.494 206.715 737.119 207.092C736.012 208.198 742.75 210.384 753.175 212.3C774.677 216.25 804.682 209.879 836.714 194.561C843.561 191.287 849.298 188.741 849.463 188.906C849.627 189.07 848.871 192.168 847.782 195.79C844.848 205.544 844.925 218.38 847.948 223.511C852.147 230.64 856.156 232.751 865.477 232.748C872.848 232.744 874.899 232.149 885.128 227.036C898.15 220.527 915.769 207.673 931.292 193.357C937.146 187.959 942.248 183.542 942.632 183.542C943.015 183.542 943.328 186.177 943.328 189.396C943.328 197.423 946.438 207.211 950.377 211.585C954.251 215.888 960.581 217.046 961.297 213.583C961.561 212.311 961.111 211.562 960.203 211.76C959.355 211.945 958.443 211.094 958.176 209.871C957.715 207.753 957.845 207.746 960.83 209.701C962.782 210.98 965.09 211.475 966.941 211.009C970.377 210.147 980.034 200.537 986.681 191.366C990.989 185.421 991.643 185.002 997.536 184.393C1004.72 183.652 1009.85 181.314 1016.99 175.538L1022 171.479L1017.78 181.248C1010 199.243 1011.11 210.273 1020.7 210.273C1025.4 210.273 1033.41 203.666 1039.57 194.713L1043.21 189.427L1046.22 192.257C1048.51 194.41 1050.63 195.085 1055.09 195.085H1060.94L1061.55 200.512C1062.03 204.809 1063.1 206.799 1066.68 210.082C1071.04 214.071 1071.49 214.203 1078.65 213.579C1087.96 212.77 1098.44 208.37 1119.51 196.416C1162.69 171.917 1176.01 166.529 1195.55 165.64C1213.52 164.821 1221.1 166.911 1228.98 174.852C1232.06 177.962 1234.86 181.325 1235.2 182.327C1235.54 183.33 1236.25 183.751 1236.77 183.263C1238.33 181.81 1231.62 172.846 1226.61 169.679C1215.97 162.968 1200.51 161.192 1183.43 164.721C1168.56 167.793 1157.15 172.978 1123.76 191.845C1088.26 211.901 1074.93 215.695 1067.17 207.937C1064.34 205.104 1063.62 203.321 1063.62 199.128C1063.62 193.958 1063.74 193.811 1070.61 190.26C1078.75 186.053 1091.08 174.349 1092.24 169.732C1093.75 163.711 1090.73 160.701 1084.71 162.214C1079.78 163.451 1069.52 174.843 1065.44 183.614C1063.43 187.918 1061.25 191.842 1060.58 192.333C1058.44 193.907 1050.88 193.325 1048.09 191.371C1044.76 189.04 1044.7 186.545 1047.79 179.726C1050.48 173.806 1051.01 168.506 1048.84 169.229C1046.58 169.983 1042.96 177.704 1042.96 181.767C1042.96 188.314 1030.64 204.893 1023.62 207.803C1019.26 209.606 1015.37 207.89 1014.77 203.897C1013.59 196.073 1019.36 179.957 1029.07 163.969C1031.51 159.954 1033.27 156.441 1033 156.162C1032.72 155.882 1028.23 160.306 1023.03 165.992C1012.81 177.156 1004.7 182.327 997.423 182.327H993.114L997.408 173.8C999.77 169.11 1002.03 162.899 1002.43 159.996C1003.06 155.4 1002.78 154.462 1000.31 152.728C993.976 148.293 987.122 151.567 975.05 164.788L968.5 171.964L969.353 163.998C970.702 151.401 967.828 147.56 957.773 148.52C954.092 148.873 953.228 149.722 949.626 156.536C947.408 160.728 944.916 167.836 944.086 172.331L942.58 180.505L929.892 191.87C911.667 208.197 898.165 218.08 885.271 224.529C866.57 233.885 854.702 233.054 849.701 222.04C846.684 215.393 846.751 208.372 849.943 196.543L852.544 186.899L861.623 181.271C905.737 153.928 939.683 119.781 939.683 102.75C939.683 92.7355 932.217 90.218 920.285 96.2105ZM936.152 97.3891C939.457 100.694 938.549 106.305 933.225 115.5C928.107 124.337 901.936 150.493 887.437 161.26C876.714 169.223 856.687 182.327 855.239 182.327C853.92 182.327 865.626 160.587 872.902 149.521C893.124 118.774 917.99 95.0963 930.267 94.8983C932.104 94.8691 934.753 95.9894 936.152 97.3891ZM977.41 125.102C975.947 127.969 975.061 130.628 975.442 131.009C975.823 131.389 976.134 131.063 976.134 130.284C976.134 128.376 983.038 128.465 983.919 130.385C984.303 131.221 984.281 130.536 983.869 128.866C983.458 127.195 982.435 124.492 981.596 122.857L980.071 119.887L977.41 125.102ZM990.31 121.171C989.864 121.616 989.5 124.076 989.5 126.639C989.5 130.535 989.909 131.296 992.01 131.296C996.169 131.296 999.22 128.982 999.22 125.828C999.22 121.889 992.896 118.584 990.31 121.171ZM1004.56 122.081C1004.2 123.026 1004.08 125.351 1004.29 127.245C1004.62 130.125 1005.28 130.717 1008.33 130.865C1011.8 131.031 1011.81 131.012 1008.64 130.479C1004.61 129.805 1004.2 126.816 1008.03 126.078L1010.76 125.551L1008.03 125.386C1004.14 125.15 1004.62 121.838 1008.64 121.231L1011.98 120.725L1008.6 120.543C1006.67 120.438 1004.94 121.097 1004.56 122.081ZM1049.86 121.306C1050.64 121.806 1051.51 124.394 1051.78 127.059L1052.27 131.903L1052.48 126.84C1052.59 124.057 1053.37 121.503 1054.2 121.165C1055.04 120.828 1054.08 120.517 1052.07 120.475C1050.03 120.431 1049.05 120.796 1049.86 121.306ZM960.543 125.828C960.619 128.752 960.884 129.56 961.209 127.856C961.723 125.161 961.833 125.132 963.474 127.249C965.145 129.405 965.252 129.405 966.924 127.249C968.564 125.132 968.675 125.161 969.189 127.856C969.513 129.56 969.778 128.752 969.855 125.828C969.972 121.361 969.841 121.154 968.241 123.267C967.285 124.531 966.209 126.171 965.85 126.912C965.374 127.897 965.024 127.897 964.548 126.912C964.189 126.171 963.113 124.531 962.156 123.267C960.556 121.154 960.426 121.361 960.543 125.828ZM997.203 124.207C998.775 126.718 996.366 130.081 992.996 130.081C991.19 130.081 990.715 129.177 990.715 125.743C990.715 121.996 991.069 121.459 993.324 121.794C994.759 122.008 996.505 123.094 997.203 124.207ZM1024.49 126.629L1026.47 131.681L1028.2 127.54L1029.94 123.398L1031.76 127.651L1033.58 131.903L1035.18 128.258C1036.06 126.253 1036.78 123.793 1036.78 122.791C1036.78 121.788 1036.07 122.608 1035.22 124.613L1033.65 128.258L1031.71 124.613L1029.77 120.968L1028.01 125.127L1026.24 129.286L1025.39 125.431C1024.92 123.311 1024.08 121.576 1023.52 121.576C1022.96 121.576 1023.39 123.849 1024.49 126.629ZM1042.05 125.828C1042.07 128.501 1042.31 129.451 1042.61 127.94C1042.9 126.428 1042.88 124.241 1042.58 123.08C1042.28 121.918 1042.04 123.155 1042.05 125.828ZM1061.05 125.524C1060.72 128.031 1060.9 130.081 1061.43 130.081C1061.96 130.081 1062.4 129.261 1062.4 128.258C1062.4 125.62 1068.16 125.891 1068.85 128.562C1069.16 129.732 1069.41 128.501 1069.41 125.828C1069.41 123.155 1069.16 121.924 1068.85 123.094C1068.52 124.359 1067.14 125.221 1065.44 125.221C1063.71 125.221 1062.4 124.384 1062.11 123.094C1061.85 121.924 1061.37 123.019 1061.05 125.524ZM982.191 126.739C982.201 127.24 981.389 127.651 980.387 127.651C978.527 127.651 977.897 125.077 979.393 123.583C980.208 122.766 982.155 124.962 982.191 126.739ZM1090.35 166.904C1090.35 172.42 1079.94 183.137 1069.28 188.601L1064.62 190.992L1065.49 188.178C1069.75 174.399 1090.35 156.77 1090.35 166.904ZM958.071 203.778C956.928 205.743 956.763 205.578 956.73 202.436C956.703 199.823 957.057 199.215 958.035 200.193C958.996 201.154 959.006 202.169 958.071 203.778Z" fill="white" stroke="white" stroke-width="2" mask="url(#path-4-inside-1_306_298)"/>
<path d="M967.249 210.858C965.995 207.436 961.173 196.886 950.846 198.708L960.566 215.111C960.566 215.111 962.282 214.059 963.604 213.288C964.925 212.517 967.249 210.858 967.249 210.858Z" fill="white"/>
<rect x="950.846" y="114.871" width="132.439" height="25.5157" fill="#0097EC"/>
</svg>
