<svg width="80" height="80" viewBox="0 0 80 80" fill="none" xmlns="http://www.w3.org/2000/svg">
<path fill-rule="evenodd" clip-rule="evenodd" d="M64.9993 31.8677C65.1107 45.6743 53.605 58.444 39.7983 58.3327C25.9916 58.2213 15.1122 45.271 15.0008 31.4643C14.8894 17.6576 25.9916 6.55545 39.7983 6.66685C53.605 6.77825 64.8877 18.0611 64.9993 31.8677ZM41.687 17.4994C40.3063 17.4883 39.178 18.5985 39.1667 19.9792C39.1557 21.3598 40.2657 22.4881 41.6463 22.4993C45.7603 22.5324 49.1337 25.9058 49.1667 30.0195C49.178 31.4002 50.3063 32.5104 51.687 32.4993C53.0677 32.4881 54.1777 31.3598 54.1667 29.9792C54.1113 23.1356 48.5303 17.5546 41.687 17.4994Z" fill="#0097EC"/>
<path d="M47.2227 60.4123C48.33 63.9533 46.0354 67.518 42.4997 68.2363V73.0303C42.4997 74.411 41.3804 75.5303 39.9997 75.5303C38.619 75.5303 37.4997 74.411 37.4997 73.0303V68.2363C33.964 67.518 31.6692 63.9533 32.7766 60.4123L32.7995 60.341C35.014 60.9867 37.347 61.344 39.771 61.3636C42.341 61.3843 44.8304 61.022 47.1977 60.334C47.2067 60.3603 47.2147 60.3863 47.2227 60.4123Z" fill="#0097EC"/>
</svg>
