<svg width="82" height="80" viewBox="0 0 82 80" fill="none" xmlns="http://www.w3.org/2000/svg">
<rect x="0.363281" width="81.2727" height="79.9999" rx="8" fill="#FFF3F4"/>
<path d="M42.454 54.5454C42.454 53.742 41.8028 53.0908 40.9995 53.0908C40.1962 53.0908 39.5449 53.742 39.5449 54.5454C39.5449 55.3487 40.1962 55.9999 40.9995 55.9999C41.8028 55.9999 42.454 55.3487 42.454 54.5454Z" fill="black"/>
<path fill-rule="evenodd" clip-rule="evenodd" d="M50.648 42.1412C51.9733 40.1755 52.636 38.0072 52.636 35.6364C52.636 32.4231 51.5 29.6804 49.2279 27.4082C46.9557 25.1361 44.2129 24 40.9997 24C37.7864 24 35.0436 25.1361 32.7715 27.4082C30.4994 29.6804 29.3633 32.4231 29.3633 35.6364C29.3633 38.0072 30.0259 40.1755 31.3513 42.1412C32.2485 43.472 33.3456 44.5561 34.6427 45.3935V45.3984C35.2641 45.8673 35.7517 46.4812 36.1054 47.2397C36.4592 47.9983 36.636 48.8092 36.636 49.6727C36.636 49.7511 36.6345 49.8295 36.6314 49.9078C36.6283 49.9862 36.6236 50.0643 36.6174 50.1424H36.636V50.1818H45.3633V49.6727C45.3633 48.7962 45.5451 47.9747 45.9089 47.2079C46.2727 46.4409 46.7728 45.8247 47.4093 45.3593C48.6834 44.5267 49.7629 43.454 50.648 42.1412Z" fill="url(#paint0_radial_330_69)"/>
<path d="M36.6357 51.6361C36.6357 53.2428 37.9382 54.5452 39.5449 54.5452H42.4539C44.0606 54.5452 45.363 53.2428 45.363 51.6361V50.1816H36.6357V51.6361Z" fill="url(#paint1_radial_330_69)"/>
<path d="M43.1817 51.6367H38.8181C38.4164 51.6367 38.0908 51.9623 38.0908 52.3639C38.0908 52.7656 38.4164 53.0912 38.8181 53.0912H43.1817C43.5834 53.0912 43.909 52.7656 43.909 52.3639C43.909 51.9623 43.5834 51.6367 43.1817 51.6367Z" fill="black" fill-opacity="0.2"/>
<path fill-rule="evenodd" clip-rule="evenodd" d="M37.9137 32.5505C38.7658 31.6984 39.7943 31.2724 40.9993 31.2724C41.401 31.2724 41.7438 31.1304 42.0278 30.8464C42.3118 30.5623 42.4539 30.2195 42.4539 29.8178C42.4539 29.4162 42.3118 29.0733 42.0278 28.7893C41.7438 28.5053 41.401 28.3633 40.9993 28.3633C38.991 28.3633 37.2768 29.0733 35.8567 30.4934C34.4366 31.9135 33.7266 33.6277 33.7266 35.636C33.7266 36.0376 33.8686 36.3805 34.1526 36.6645C34.4366 36.9485 34.7795 37.0905 35.1811 37.0905C35.5828 37.0905 35.9256 36.9485 36.2096 36.6645C36.4937 36.3805 36.6357 36.0376 36.6357 35.636C36.6357 34.431 37.0617 33.4025 37.9137 32.5505Z" fill="white"/>
<defs>
<radialGradient id="paint0_radial_330_69" cx="0" cy="0" r="1" gradientUnits="userSpaceOnUse" gradientTransform="translate(37.109 31.1989) rotate(56.4705) scale(19.63 17.4489)">
<stop stop-color="#1F96DE" stop-opacity="0.3"/>
<stop offset="0.457142" stop-color="#1F96DE" stop-opacity="0.3"/>
<stop offset="1" stop-color="#1F96DE"/>
</radialGradient>
<radialGradient id="paint1_radial_330_69" cx="0" cy="0" r="1" gradientUnits="userSpaceOnUse" gradientTransform="translate(33.7902 48.8261) rotate(38.4256) scale(9.20221 18.4044)">
<stop stop-color="#EFFCFF"/>
<stop offset="0.999999" stop-color="#A5F2FF"/>
</radialGradient>
</defs>
</svg>
