<svg width="80" height="80" viewBox="0 0 80 80" fill="none" xmlns="http://www.w3.org/2000/svg">
<g clip-path="url(#clip0_330_378)">
<path d="M58.1821 77.0775C58.1821 77.0775 59.0196 72.0475 53.8546 65.905C58.8821 51.8025 59.5796 38.96 59.5796 38.96C59.5796 38.96 69.9121 41.335 69.9121 51.525C69.9096 68.9775 58.1821 77.0775 58.1821 77.0775ZM29.7021 70.95C29.7021 70.95 22.7821 48.7425 22.7821 39.53C22.7821 35.385 23.2496 31.6975 23.9771 28.35H55.5021C56.2346 31.7 56.7046 35.39 56.7046 39.5325C56.7046 48.605 49.8046 70.95 49.8046 70.95H29.7021ZM39.7296 33.4275C36.1846 33.4275 33.3096 36.3025 33.3096 39.85C33.3096 43.395 36.1846 46.2725 39.7296 46.2725C43.2746 46.2725 46.1521 43.3975 46.1521 39.85C46.1546 36.3025 43.2771 33.4275 39.7296 33.4275ZM38.3496 4.745V-4H40.8496V4.5225C43.7071 6.6025 51.4396 13.2175 54.9371 25.96L24.5371 25.96C27.9171 13.5675 35.2771 7.025 38.3496 4.745ZM21.3271 77.0775C21.3271 77.0775 9.59961 68.9775 9.59961 51.525C9.59961 41.335 19.9321 38.96 19.9321 38.96C19.9321 38.96 20.6296 51.8025 25.6546 65.905C20.4871 72.05 21.3271 77.0775 21.3271 77.0775ZM43.9821 78.3675L41.8871 76.2725L39.6546 83.255L36.9996 76.2725L35.1846 79.9L32.5296 73.3375H46.9096L43.9821 78.3675Z" fill="#0097EC"/>
</g>
<defs>
<clipPath id="clip0_330_378">
<rect width="80" height="80" fill="white"/>
</clipPath>
</defs>
</svg>
