<svg width="500" height="233" viewBox="0 0 500 233" fill="none" xmlns="http://www.w3.org/2000/svg">
<path d="M337.4 232.35C336.367 232.35 335.467 232.017 334.7 231.35C333.933 230.683 333.55 229.6 333.55 228.1C333.55 226.667 333.8 225.05 334.3 223.25C334.833 221.483 335.533 219.617 336.4 217.65C337.3 215.683 338.267 213.717 339.3 211.75C340.4 209.617 341.533 207.567 342.7 205.6C343.867 203.6 344.833 201.85 345.6 200.35C346.067 199.483 346.433 198.733 346.7 198.1C346.967 197.467 347.1 196.967 347.1 196.6C347.1 196.1 346.833 195.85 346.3 195.85C345.867 195.85 345.15 196.05 344.15 196.45C343.383 196.783 342.6 197.2 341.8 197.7C341 198.2 340.3 198.7 339.7 199.2C336.1 202.2 332.85 205.617 329.95 209.45C327.083 213.283 324.4 217.133 321.9 221C321.7 221.3 321.45 221.45 321.15 221.45C320.917 221.45 320.7 221.367 320.5 221.2C320.333 221.033 320.25 220.833 320.25 220.6C320.25 220.433 320.3 220.283 320.4 220.15C322.233 217.183 323.8 214.317 325.1 211.55C326.433 208.783 327.667 205.733 328.8 202.4C329.167 201.4 329.417 200.533 329.55 199.8C329.683 199.033 329.75 198.383 329.75 197.85C329.75 196.517 329.3 195.85 328.4 195.85C328.2 195.85 327.967 195.9 327.7 196C326.7 196.3 325.633 196.983 324.5 198.05C323.367 199.083 322.183 200.383 320.95 201.95C319.75 203.483 318.517 205.167 317.25 207C315.983 208.8 314.717 210.633 313.45 212.5C313.183 212.9 312.817 213.467 312.35 214.2C311.917 214.933 311.45 215.733 310.95 216.6C310.45 217.467 309.967 218.3 309.5 219.1C309.033 219.867 308.65 220.5 308.35 221C308.083 221.5 307.95 221.75 307.95 221.75C307.783 222.05 307.517 222.2 307.15 222.2C306.917 222.2 306.717 222.133 306.55 222C306.383 221.833 306.3 221.65 306.3 221.45C306.3 221.283 306.35 221.133 306.45 221C306.45 221 306.617 220.7 306.95 220.1C307.317 219.467 307.783 218.633 308.35 217.6C308.917 216.567 309.533 215.45 310.2 214.25C310.867 213.05 311.517 211.85 312.15 210.65C312.817 209.45 313.4 208.367 313.9 207.4C315.333 204.633 316.333 202.283 316.9 200.35C317.5 198.417 317.8 196.8 317.8 195.5C317.8 193.8 317.417 192.6 316.65 191.9C315.883 191.2 315.017 190.833 314.05 190.8C311.883 190.7 309.783 191.083 307.75 191.95C305.75 192.783 303.883 193.933 302.15 195.4C300.45 196.867 298.95 198.483 297.65 200.25C296.35 202.017 295.333 203.8 294.6 205.6C293.9 207.367 293.55 208.983 293.55 210.45C293.55 211.883 293.967 213.067 294.8 214C295.633 214.933 296.967 215.4 298.8 215.4C300.1 215.4 301.267 215.1 302.3 214.5C303.333 213.9 304.217 213.133 304.95 212.2C305.683 211.267 306.25 210.283 306.65 209.25C307.05 208.217 307.25 207.267 307.25 206.4C307.25 205.667 307.083 205.05 306.75 204.55C306.45 204.05 305.967 203.783 305.3 203.75C305.067 203.75 304.883 203.683 304.75 203.55C304.65 203.383 304.6 203.217 304.6 203.05C304.6 202.817 304.667 202.617 304.8 202.45C304.967 202.25 305.183 202.15 305.45 202.15C306.683 202.15 307.583 202.567 308.15 203.4C308.717 204.2 309 205.183 309 206.35C309 207.45 308.75 208.617 308.25 209.85C307.783 211.083 307.1 212.25 306.2 213.35C305.3 214.45 304.217 215.35 302.95 216.05C301.683 216.717 300.25 217.05 298.65 217.05C296.217 217.05 294.433 216.433 293.3 215.2C292.2 213.933 291.65 212.35 291.65 210.45C291.65 208.683 292.067 206.75 292.9 204.65C293.767 202.55 294.967 200.517 296.5 198.55C297.9 196.75 299.533 195.117 301.4 193.65C303.3 192.183 305.35 191.033 307.55 190.2C309.75 189.367 311.983 189 314.25 189.1C315.883 189.167 317.167 189.717 318.1 190.75C319.067 191.783 319.55 193.283 319.55 195.25C319.55 196.55 319.317 198.05 318.85 199.75C318.417 201.417 317.717 203.3 316.75 205.4C317.317 204.533 318.033 203.467 318.9 202.2C319.767 200.933 320.733 199.683 321.8 198.45C322.867 197.217 323.983 196.183 325.15 195.35C326.317 194.483 327.467 194.05 328.6 194.05C329.633 194.05 330.367 194.4 330.8 195.1C331.233 195.767 331.45 196.6 331.45 197.6C331.45 198.567 331.317 199.617 331.05 200.75C330.783 201.883 330.45 203 330.05 204.1C329.65 205.2 329.25 206.217 328.85 207.15C328.483 208.05 328.183 208.767 327.95 209.3C328.717 208.333 329.65 207.2 330.75 205.9C331.883 204.567 333.117 203.217 334.45 201.85C335.783 200.45 337.15 199.15 338.55 197.95C339.983 196.75 341.4 195.783 342.8 195.05C344.233 194.317 345.583 193.95 346.85 193.95C348.35 193.95 349.1 194.65 349.1 196.05C349.1 197.083 348.7 198.333 347.9 199.8C347.633 200.3 347.15 201.167 346.45 202.4C345.75 203.6 344.933 205.05 344 206.75C343.067 208.417 342.1 210.217 341.1 212.15C340.133 214.083 339.217 216.017 338.35 217.95C337.517 219.85 336.833 221.633 336.3 223.3C335.767 225 335.5 226.45 335.5 227.65C335.5 228.583 335.7 229.317 336.1 229.85C336.5 230.383 337.167 230.65 338.1 230.65C338.867 230.65 339.65 230.417 340.45 229.95C341.283 229.483 341.933 228.983 342.4 228.45C342.567 228.183 342.783 228.05 343.05 228.05C343.417 228.05 343.6 228.267 343.6 228.7C343.6 228.9 343.5 229.133 343.3 229.4C342.567 230.267 341.667 230.967 340.6 231.5C339.533 232.067 338.467 232.35 337.4 232.35ZM347.109 222.25C346.175 222.25 345.475 221.983 345.009 221.45C344.575 220.883 344.359 220.183 344.359 219.35C344.359 218.417 344.625 217.333 345.159 216.1C345.725 214.833 346.459 213.533 347.359 212.2C348.259 210.867 349.242 209.633 350.309 208.5C351.409 207.333 352.509 206.4 353.609 205.7C354.709 204.967 355.725 204.6 356.659 204.6C357.292 204.6 357.909 204.7 358.509 204.9C359.109 205.067 359.592 205.417 359.959 205.95C360.359 206.483 360.559 207.267 360.559 208.3C360.559 208.667 360.459 208.933 360.259 209.1C360.059 209.267 359.875 209.35 359.709 209.35C359.342 209.35 359.159 209.217 359.159 208.95C358.992 207.883 358.642 207.183 358.109 206.85C357.609 206.517 357.125 206.35 356.659 206.35C355.992 206.35 355.209 206.683 354.309 207.35C353.409 208.017 352.492 208.867 351.559 209.9C350.625 210.933 349.742 212.05 348.909 213.25C348.109 214.417 347.459 215.55 346.959 216.65C346.459 217.717 346.209 218.6 346.209 219.3C346.209 219.633 346.259 219.933 346.359 220.2C346.492 220.467 346.692 220.6 346.959 220.6C347.459 220.6 348.109 220.333 348.909 219.8C349.709 219.267 350.559 218.583 351.459 217.75C352.392 216.883 353.309 215.983 354.209 215.05C355.109 214.117 355.925 213.233 356.659 212.4C357.392 211.567 357.959 210.9 358.359 210.4C358.559 210.1 358.809 209.95 359.109 209.95C359.342 209.95 359.559 210.033 359.759 210.2C359.959 210.367 360.059 210.583 360.059 210.85C360.059 210.983 360.009 211.133 359.909 211.3C359.675 211.667 359.392 212.183 359.059 212.85C358.759 213.517 358.442 214.233 358.109 215C357.809 215.767 357.542 216.483 357.309 217.15C357.109 217.783 357.009 218.267 357.009 218.6C357.009 218.933 357.125 219.1 357.359 219.1C357.525 219.1 357.725 219.017 357.959 218.85C358.225 218.683 358.459 218.533 358.659 218.4C359.459 217.733 360.225 217.033 360.959 216.3C361.692 215.533 362.359 214.817 362.959 214.15C363.092 213.983 363.259 213.9 363.459 213.9C363.625 213.9 363.775 214 363.909 214.2C364.075 214.367 364.159 214.583 364.159 214.85C364.159 215.15 364.075 215.4 363.909 215.6C363.375 216.3 362.675 217.083 361.809 217.95C360.942 218.783 360.175 219.45 359.509 219.95C359.075 220.25 358.559 220.55 357.959 220.85C357.392 221.117 356.842 221.25 356.309 221.25C355.909 221.25 355.575 221.133 355.309 220.9C355.042 220.633 354.909 220.183 354.909 219.55C354.909 219.05 354.992 218.483 355.159 217.85C355.325 217.217 355.525 216.567 355.759 215.9C354.825 216.9 353.825 217.883 352.759 218.85C351.692 219.817 350.659 220.633 349.659 221.3C348.692 221.933 347.842 222.25 347.109 222.25ZM363.808 222.25C362.874 222.25 362.174 221.983 361.708 221.45C361.274 220.883 361.058 220.183 361.058 219.35C361.058 218.417 361.324 217.333 361.858 216.1C362.424 214.833 363.158 213.533 364.058 212.2C364.958 210.867 365.941 209.633 367.008 208.5C368.108 207.333 369.208 206.4 370.308 205.7C371.408 204.967 372.424 204.6 373.358 204.6C374.024 204.6 374.674 204.717 375.308 204.95C375.974 205.15 376.474 205.583 376.808 206.25C377.641 204.317 378.641 202.4 379.808 200.5C380.974 198.567 382.174 196.833 383.408 195.3C384.674 193.767 385.874 192.617 387.008 191.85C387.841 191.283 388.591 191 389.258 191C389.791 191 390.208 191.183 390.508 191.55C390.841 191.883 391.008 192.4 391.008 193.1C391.008 194.433 390.641 195.85 389.908 197.35C389.208 198.85 388.274 200.35 387.108 201.85C385.941 203.35 384.674 204.817 383.308 206.25C381.974 207.65 380.674 208.967 379.408 210.2C378.141 211.4 377.041 212.45 376.108 213.35C375.574 214.25 375.058 215.3 374.558 216.5C374.091 217.667 373.858 218.65 373.858 219.45C373.858 220.35 374.208 220.8 374.908 220.8C375.474 220.8 376.324 220.533 377.458 220C378.624 219.433 379.758 218.667 380.858 217.7C381.524 217.133 382.141 216.533 382.708 215.9C383.274 215.267 383.808 214.683 384.308 214.15C384.441 213.983 384.608 213.9 384.808 213.9C384.974 213.9 385.124 214 385.258 214.2C385.424 214.367 385.508 214.583 385.508 214.85C385.508 215.15 385.424 215.4 385.258 215.6C384.758 216.3 384.058 217.083 383.158 217.95C382.291 218.783 381.524 219.45 380.858 219.95C379.591 220.883 378.224 221.583 376.758 222.05C375.858 222.35 375.058 222.5 374.358 222.5C372.524 222.5 371.608 221.583 371.608 219.75C371.608 218.983 371.774 218.117 372.108 217.15C372.108 217.117 372.124 217.083 372.158 217.05C371.124 217.917 370.058 218.75 368.958 219.55C367.891 220.35 366.891 221 365.958 221.5C365.024 222 364.308 222.25 363.808 222.25ZM376.908 209.95C377.241 209.683 377.824 209.15 378.658 208.35C379.491 207.55 380.441 206.6 381.508 205.5C382.608 204.367 383.691 203.15 384.758 201.85C385.824 200.55 386.758 199.25 387.558 197.95C388.358 196.65 388.908 195.433 389.208 194.3C389.241 194.167 389.258 194 389.258 193.8C389.258 193.3 389.058 193.05 388.658 193.05C388.158 193.05 387.574 193.383 386.908 194.05C385.608 195.317 384.341 196.85 383.108 198.65C381.908 200.417 380.774 202.283 379.708 204.25C378.674 206.183 377.741 208.083 376.908 209.95ZM363.658 220.6C364.124 220.6 364.724 220.383 365.458 219.95C366.224 219.517 367.041 218.967 367.908 218.3C368.774 217.633 369.624 216.933 370.458 216.2C371.324 215.467 372.091 214.783 372.758 214.15C373.424 213.517 373.924 213.033 374.258 212.7L375.758 208.45C375.524 207.583 375.174 207.017 374.708 206.75C374.241 206.483 373.791 206.35 373.358 206.35C372.691 206.35 371.908 206.683 371.008 207.35C370.108 208.017 369.191 208.867 368.258 209.9C367.324 210.933 366.441 212.05 365.608 213.25C364.808 214.417 364.158 215.55 363.658 216.65C363.158 217.717 362.908 218.6 362.908 219.3C362.908 219.633 362.958 219.933 363.058 220.2C363.191 220.467 363.391 220.6 363.658 220.6ZM383.196 222.1C382.662 222.1 382.262 221.917 381.996 221.55C381.729 221.183 381.596 220.733 381.596 220.2C381.596 219.333 381.829 218.433 382.296 217.5C382.762 216.533 383.329 215.567 383.996 214.6C384.662 213.633 385.396 212.633 386.196 211.6C386.362 211.4 386.596 211.05 386.896 210.55C387.229 210.05 387.529 209.533 387.796 209C388.062 208.467 388.179 208.05 388.146 207.75C388.112 207.183 388.229 206.767 388.496 206.5C388.762 206.2 389.062 206.05 389.396 206.05C389.729 206.05 389.979 206.183 390.146 206.45C390.346 206.75 390.446 207.117 390.446 207.55C390.446 208.017 390.279 208.6 389.946 209.3C389.646 209.967 389.112 210.817 388.346 211.85C387.746 212.65 387.079 213.517 386.346 214.45C385.646 215.35 385.046 216.233 384.546 217.1C384.046 217.967 383.796 218.7 383.796 219.3C383.796 219.733 383.979 219.95 384.346 219.95C384.579 219.95 384.912 219.85 385.346 219.65C385.879 219.383 386.612 218.867 387.546 218.1C388.512 217.333 389.512 216.467 390.546 215.5C391.612 214.5 392.579 213.533 393.446 212.6C394.346 211.667 394.996 210.933 395.396 210.4C395.596 210.1 395.846 209.95 396.146 209.95C396.379 209.95 396.596 210.033 396.796 210.2C396.996 210.367 397.096 210.583 397.096 210.85C397.096 210.983 397.046 211.133 396.946 211.3C396.746 211.667 396.479 212.183 396.146 212.85C395.812 213.517 395.479 214.233 395.146 215C394.846 215.767 394.579 216.483 394.346 217.15C394.146 217.783 394.046 218.267 394.046 218.6C394.046 218.967 394.162 219.15 394.396 219.15C394.562 219.15 394.762 219.067 394.996 218.9C395.262 218.7 395.496 218.533 395.696 218.4C396.529 217.733 397.296 217.033 397.996 216.3C398.729 215.533 399.396 214.817 399.996 214.15C400.129 213.983 400.296 213.9 400.496 213.9C400.662 213.9 400.812 214 400.946 214.2C401.112 214.367 401.196 214.583 401.196 214.85C401.196 215.15 401.112 215.4 400.946 215.6C400.412 216.3 399.712 217.083 398.846 217.95C397.979 218.783 397.212 219.45 396.546 219.95C396.112 220.25 395.596 220.55 394.996 220.85C394.429 221.117 393.896 221.25 393.396 221.25C392.962 221.25 392.612 221.133 392.346 220.9C392.112 220.633 391.996 220.183 391.996 219.55C391.996 219.017 392.079 218.4 392.246 217.7C392.446 217 392.679 216.283 392.946 215.55C391.812 216.683 390.529 217.817 389.096 218.95C387.696 220.083 386.412 220.933 385.246 221.5C384.412 221.9 383.729 222.1 383.196 222.1ZM408.218 221.7C407.618 221.7 407.118 221.533 406.718 221.2C406.352 220.867 406.168 220.4 406.168 219.8C406.168 218.533 406.485 217.267 407.118 216C407.752 214.7 408.468 213.433 409.268 212.2C410.102 210.933 410.785 209.767 411.318 208.7C410.785 209.067 410.185 209.333 409.518 209.5C408.852 209.667 408.202 209.75 407.568 209.75C406.668 209.75 405.968 209.633 405.468 209.4C404.835 210.5 404.102 211.617 403.268 212.75C402.435 213.85 401.618 214.85 400.818 215.75C400.052 216.65 399.402 217.333 398.868 217.8C398.635 218 398.402 218.1 398.168 218.1C397.935 218.1 397.735 218.017 397.568 217.85C397.402 217.683 397.318 217.5 397.318 217.3C397.318 217.133 397.385 216.983 397.518 216.85C398.118 216.217 398.818 215.4 399.618 214.4C400.452 213.4 401.268 212.333 402.068 211.2C402.902 210.067 403.585 209.017 404.118 208.05C404.085 207.383 404.168 206.633 404.368 205.8C404.602 204.967 404.902 204.167 405.268 203.4C405.668 202.633 406.102 202 406.568 201.5C407.035 200.967 407.518 200.7 408.018 200.7C408.552 200.7 408.818 201.017 408.818 201.65C408.818 202.183 408.652 202.867 408.318 203.7C408.018 204.533 407.652 205.35 407.218 206.15C406.818 206.917 406.468 207.55 406.168 208.05C406.602 208.183 407.052 208.25 407.518 208.25C408.318 208.25 409.018 208.1 409.618 207.8C410.218 207.467 410.752 207.15 411.218 206.85C411.685 206.517 412.085 206.35 412.418 206.35C412.852 206.35 413.135 206.467 413.268 206.7C413.435 206.9 413.518 207.167 413.518 207.5C413.518 208.133 413.352 208.833 413.018 209.6C412.685 210.333 412.435 210.8 412.268 211C412.035 211.367 411.685 211.917 411.218 212.65C410.752 213.35 410.285 214.1 409.818 214.9C409.352 215.7 408.968 216.467 408.668 217.2C408.535 217.567 408.402 217.95 408.268 218.35C408.168 218.717 408.118 219.033 408.118 219.3C408.118 219.733 408.302 219.95 408.668 219.95C409.002 219.95 409.485 219.783 410.118 219.45C410.918 219.017 411.652 218.467 412.318 217.8C413.018 217.1 413.618 216.5 414.118 216C414.152 215.967 414.302 215.8 414.568 215.5C414.868 215.2 415.152 214.9 415.418 214.6C415.718 214.3 415.868 214.15 415.868 214.15C416.002 213.983 416.168 213.9 416.368 213.9C416.535 213.9 416.685 214 416.818 214.2C416.985 214.367 417.068 214.583 417.068 214.85C417.068 215.15 416.985 215.4 416.818 215.6C416.318 216.3 415.635 217.067 414.768 217.9C413.902 218.733 413.135 219.417 412.468 219.95C411.768 220.483 411.052 220.917 410.318 221.25C409.618 221.55 408.918 221.7 408.218 221.7ZM416.786 222.25C415.853 222.25 415.153 221.983 414.686 221.45C414.253 220.883 414.036 220.183 414.036 219.35C414.036 218.417 414.303 217.333 414.836 216.1C415.403 214.833 416.136 213.533 417.036 212.2C417.936 210.867 418.92 209.633 419.986 208.5C421.086 207.333 422.186 206.4 423.286 205.7C424.386 204.967 425.403 204.6 426.336 204.6C426.97 204.6 427.586 204.7 428.186 204.9C428.786 205.067 429.27 205.417 429.636 205.95C430.036 206.483 430.236 207.267 430.236 208.3C430.236 208.667 430.136 208.933 429.936 209.1C429.736 209.267 429.553 209.35 429.386 209.35C429.02 209.35 428.836 209.217 428.836 208.95C428.67 207.883 428.32 207.183 427.786 206.85C427.286 206.517 426.803 206.35 426.336 206.35C425.67 206.35 424.886 206.683 423.986 207.35C423.086 208.017 422.17 208.867 421.236 209.9C420.303 210.933 419.42 212.05 418.586 213.25C417.786 214.417 417.136 215.55 416.636 216.65C416.136 217.717 415.886 218.6 415.886 219.3C415.886 219.633 415.936 219.933 416.036 220.2C416.17 220.467 416.37 220.6 416.636 220.6C417.136 220.6 417.786 220.333 418.586 219.8C419.386 219.267 420.236 218.583 421.136 217.75C422.07 216.883 422.986 215.983 423.886 215.05C424.786 214.117 425.603 213.233 426.336 212.4C427.07 211.567 427.636 210.9 428.036 210.4C428.236 210.1 428.486 209.95 428.786 209.95C429.02 209.95 429.236 210.033 429.436 210.2C429.636 210.367 429.736 210.583 429.736 210.85C429.736 210.983 429.686 211.133 429.586 211.3C429.353 211.667 429.07 212.183 428.736 212.85C428.436 213.517 428.12 214.233 427.786 215C427.486 215.767 427.22 216.483 426.986 217.15C426.786 217.783 426.686 218.267 426.686 218.6C426.686 218.933 426.803 219.1 427.036 219.1C427.203 219.1 427.403 219.017 427.636 218.85C427.903 218.683 428.136 218.533 428.336 218.4C429.136 217.733 429.903 217.033 430.636 216.3C431.37 215.533 432.036 214.817 432.636 214.15C432.77 213.983 432.936 213.9 433.136 213.9C433.303 213.9 433.453 214 433.586 214.2C433.753 214.367 433.836 214.583 433.836 214.85C433.836 215.15 433.753 215.4 433.586 215.6C433.053 216.3 432.353 217.083 431.486 217.95C430.62 218.783 429.853 219.45 429.186 219.95C428.753 220.25 428.236 220.55 427.636 220.85C427.07 221.117 426.52 221.25 425.986 221.25C425.586 221.25 425.253 221.133 424.986 220.9C424.72 220.633 424.586 220.183 424.586 219.55C424.586 219.05 424.67 218.483 424.836 217.85C425.003 217.217 425.203 216.567 425.436 215.9C424.503 216.9 423.503 217.883 422.436 218.85C421.37 219.817 420.336 220.633 419.336 221.3C418.37 221.933 417.52 222.25 416.786 222.25ZM440.378 206.45C439.978 206.45 439.611 206.317 439.278 206.05C438.978 205.75 438.828 205.383 438.828 204.95C438.828 204.483 438.978 204.1 439.278 203.8C439.578 203.5 439.944 203.35 440.378 203.35C440.844 203.35 441.228 203.5 441.528 203.8C441.828 204.1 441.978 204.483 441.978 204.95C441.978 205.383 441.811 205.75 441.478 206.05C441.178 206.317 440.811 206.45 440.378 206.45ZM432.978 221.45C432.544 221.45 432.194 221.333 431.928 221.1C431.661 220.833 431.528 220.417 431.528 219.85C431.528 219.15 431.694 218.3 432.028 217.3C432.361 216.267 432.794 215.217 433.328 214.15C433.861 213.05 434.428 212.05 435.028 211.15C435.661 210.217 436.261 209.483 436.828 208.95C437.061 208.717 437.344 208.6 437.678 208.6C437.944 208.6 438.178 208.667 438.378 208.8C438.578 208.933 438.678 209.1 438.678 209.3C438.678 209.467 438.594 209.633 438.428 209.8C438.194 210.033 437.894 210.417 437.528 210.95C437.194 211.45 436.861 211.983 436.528 212.55C436.194 213.083 435.944 213.533 435.778 213.9C435.478 214.533 435.144 215.25 434.778 216.05C434.411 216.85 434.144 217.5 433.978 218C433.878 218.333 433.828 218.583 433.828 218.75C433.828 219.117 433.961 219.3 434.228 219.3C434.461 219.3 434.728 219.2 435.028 219C435.328 218.767 435.594 218.567 435.828 218.4C436.661 217.733 437.428 217.033 438.128 216.3C438.861 215.533 439.528 214.817 440.128 214.15C440.261 213.983 440.428 213.9 440.628 213.9C440.794 213.9 440.944 214 441.078 214.2C441.244 214.367 441.328 214.583 441.328 214.85C441.328 215.15 441.244 215.4 441.078 215.6C440.578 216.3 439.878 217.083 438.978 217.95C438.111 218.783 437.344 219.45 436.678 219.95C436.244 220.283 435.661 220.617 434.928 220.95C434.228 221.283 433.578 221.45 432.978 221.45Z" fill="white"/>
<path d="M338.504 51.4219C337.995 51.7962 337.441 52.0508 336.842 52.1855C336.258 52.3203 335.666 52.3877 335.067 52.3877C333.016 52.3877 331.189 52.0807 329.587 51.4668C328 50.8678 326.6 50.0368 325.387 48.9736C324.189 47.9105 323.163 46.6602 322.31 45.2227C321.471 43.7852 320.767 42.2354 320.198 40.5732C319.644 38.9111 319.217 37.1742 318.918 35.3623C318.618 33.5505 318.416 31.7461 318.312 29.9492C318.207 28.1374 318.177 26.3704 318.222 24.6484C318.282 22.9115 318.386 21.3018 318.536 19.8193C318.267 20.2236 317.937 20.8675 317.548 21.751C317.159 22.6344 316.724 23.6676 316.245 24.8506C315.781 26.0335 315.294 27.3288 314.785 28.7363C314.276 30.1289 313.767 31.5365 313.258 32.959C312.764 34.3815 312.277 35.7816 311.798 37.1592C311.334 38.5218 310.914 39.7646 310.54 40.8877C310.181 42.0107 309.866 42.9616 309.597 43.7402C309.342 44.5339 309.177 45.0654 309.103 45.335C309.043 45.5146 308.96 45.7393 308.855 46.0088C308.766 46.2783 308.646 46.5404 308.496 46.7949C308.361 47.0495 308.197 47.2666 308.002 47.4463C307.822 47.626 307.613 47.7158 307.373 47.7158C307.104 47.7158 306.879 47.6035 306.699 47.3789C306.52 47.1693 306.37 46.9147 306.25 46.6152C306.145 46.3158 306.055 46.0163 305.98 45.7168C305.921 45.4173 305.876 45.1777 305.846 44.998C305.756 44.3691 305.674 43.5755 305.599 42.6172C305.524 41.6589 305.456 40.5957 305.396 39.4277C305.352 38.2598 305.314 37.0169 305.284 35.6992C305.254 34.3665 305.224 33.0339 305.194 31.7012C305.179 30.3535 305.164 29.0358 305.149 27.748C305.149 26.4453 305.142 25.2324 305.127 24.1094C305.127 22.9714 305.127 21.9531 305.127 21.0547C305.127 20.1562 305.127 19.4375 305.127 18.8984C304.798 19.6471 304.401 20.598 303.937 21.751C303.487 22.904 302.993 24.1992 302.454 25.6367C301.93 27.0742 301.376 28.624 300.792 30.2861C300.223 31.9333 299.654 33.6328 299.085 35.3848C298.531 37.1367 297.992 38.9036 297.468 40.6855C296.959 42.4674 296.502 44.1969 296.098 45.874C296.053 46.0238 295.993 46.2035 295.918 46.4131C295.858 46.6377 295.776 46.8473 295.671 47.042C295.566 47.2367 295.431 47.4014 295.267 47.5361C295.117 47.6859 294.93 47.7607 294.705 47.7607C294.495 47.7607 294.308 47.6934 294.144 47.5586C293.979 47.4238 293.837 47.2591 293.717 47.0645C293.612 46.8848 293.522 46.6826 293.447 46.458C293.387 46.2484 293.35 46.0537 293.335 45.874C293.26 45.4997 293.193 45.0879 293.133 44.6387C293.088 44.1895 293.043 43.7253 292.998 43.2461C292.968 42.7819 292.938 42.3177 292.908 41.8535C292.878 41.4043 292.848 40.985 292.818 40.5957C292.654 38.5443 292.534 36.5153 292.459 34.5088C292.399 32.5023 292.369 30.4808 292.369 28.4443C292.369 26.4378 292.399 24.4463 292.459 22.4697C292.534 20.4932 292.639 18.4941 292.773 16.4727C292.818 15.8887 292.886 15.2373 292.976 14.5186C293.065 13.7848 293.238 13.096 293.492 12.4521C293.762 11.8083 294.144 11.2692 294.638 10.835C295.147 10.4007 295.836 10.1836 296.704 10.1836C296.914 10.1836 297.093 10.236 297.243 10.3408C297.393 10.4307 297.468 10.5954 297.468 10.835V11.0596C297.333 11.958 297.198 12.8564 297.063 13.7549C296.929 14.6383 296.786 15.5443 296.637 16.4727C296.277 19.4674 295.97 22.4622 295.716 25.457C295.476 28.4368 295.356 31.4391 295.356 34.4639C295.356 35.6468 295.379 36.8148 295.424 37.9678C295.469 39.1208 295.551 40.2812 295.671 41.4492C296.704 38.2448 297.61 35.4072 298.389 32.9365C299.182 30.4658 299.879 28.3021 300.478 26.4453C301.076 24.5885 301.578 23.0088 301.982 21.7061C302.402 20.3883 302.754 19.2878 303.038 18.4043C303.323 17.5208 303.547 16.8171 303.712 16.293C303.877 15.7539 304.011 15.3421 304.116 15.0576C304.221 14.7581 304.296 14.541 304.341 14.4062C304.386 14.2715 304.431 14.1517 304.476 14.0469C304.7 13.5378 305.007 13.0811 305.396 12.6768C305.786 12.2725 306.287 12.0703 306.901 12.0703C307.321 12.0703 307.658 12.1751 307.912 12.3848C308.182 12.5944 308.391 12.8564 308.541 13.1709C308.691 13.4854 308.788 13.8298 308.833 14.2041C308.893 14.5785 308.923 14.9229 308.923 15.2373C308.893 17.5583 308.826 19.8568 308.721 22.1328C308.616 24.3939 308.526 26.64 308.451 28.8711C308.376 31.1022 308.339 33.3184 308.339 35.5195C308.354 37.7207 308.459 39.9144 308.653 42.1006C309.252 40.3337 309.806 38.6715 310.315 37.1143C310.825 35.542 311.304 34.0446 311.753 32.6221C312.217 31.1995 312.659 29.8294 313.078 28.5117C313.512 27.194 313.954 25.8913 314.403 24.6035C314.868 23.3158 315.347 22.028 315.841 20.7402C316.335 19.4525 316.882 18.1273 317.48 16.7646C317.615 16.4951 317.765 16.2256 317.93 15.9561C318.094 15.6715 318.282 15.417 318.491 15.1924C318.701 14.9678 318.94 14.7806 319.21 14.6309C319.479 14.4811 319.779 14.4062 320.108 14.4062C320.573 14.4062 320.939 14.556 321.209 14.8555C321.479 15.1549 321.681 15.5143 321.815 15.9336C321.965 16.3529 322.062 16.7946 322.107 17.2588C322.152 17.708 322.175 18.0898 322.175 18.4043C322.175 19.7819 322.13 21.3092 322.04 22.9863C321.95 24.6484 321.883 26.3779 321.838 28.1748C321.808 29.9717 321.83 31.791 321.905 33.6328C321.98 35.4746 322.182 37.2565 322.512 38.9785C322.841 40.7005 323.328 42.3102 323.972 43.8076C324.616 45.305 325.484 46.6077 326.577 47.7158C327.67 48.8389 329.018 49.7223 330.62 50.3662C332.237 51.0101 334.176 51.332 336.438 51.332C336.782 51.332 337.111 51.3021 337.426 51.2422C337.755 51.1973 338.07 51.1074 338.369 50.9727L338.504 51.4219ZM337.65 29.2305C337.65 29.3952 337.59 29.5449 337.471 29.6797C337.351 29.7995 337.209 29.8594 337.044 29.8594C336.909 29.8594 336.767 29.8219 336.617 29.7471C336.467 29.6572 336.295 29.5599 336.101 29.4551C335.921 29.3503 335.704 29.2604 335.449 29.1855C335.21 29.0957 334.933 29.0508 334.618 29.0508C333.884 29.0508 333.226 29.2829 332.642 29.7471C332.073 30.1963 331.586 30.7578 331.182 31.4316C330.792 32.1055 330.493 32.8242 330.283 33.5879C330.074 34.3516 329.969 35.0404 329.969 35.6543C329.969 36.0885 330.006 36.5153 330.081 36.9346C330.156 37.3389 330.283 37.7132 330.463 38.0576C330.658 38.387 330.92 38.6566 331.249 38.8662C331.578 39.0609 331.998 39.1582 332.507 39.1582C333.046 39.1582 333.562 39.0609 334.057 38.8662C334.551 38.6566 335.015 38.387 335.449 38.0576C335.464 37.5785 335.539 37.0768 335.674 36.5527C335.824 36.0137 336.011 35.4896 336.235 34.9805C336.46 34.4564 336.715 33.9622 336.999 33.498C337.299 33.0339 337.605 32.6221 337.92 32.2627L338.212 32.4424C338.047 32.9515 337.927 33.4756 337.853 34.0146C337.778 34.5537 337.74 35.0853 337.74 35.6094C337.74 36.1484 337.785 36.6576 337.875 37.1367C337.965 37.6159 338.122 38.0352 338.347 38.3945C338.571 38.7389 338.878 39.016 339.268 39.2256C339.657 39.4202 340.159 39.5176 340.772 39.5176C341.521 39.5176 342.21 39.3454 342.839 39.001C343.468 38.6566 344.022 38.2223 344.501 37.6982L344.681 37.7881C344.411 38.3122 344.059 38.8138 343.625 39.293C343.191 39.7721 342.704 40.2064 342.165 40.5957C341.641 40.9701 341.079 41.2695 340.48 41.4941C339.882 41.7188 339.29 41.8311 338.706 41.8311C337.882 41.8311 337.209 41.5915 336.685 41.1123C336.16 40.6481 335.801 40.0566 335.606 39.3379C334.978 39.9668 334.274 40.4984 333.495 40.9326C332.731 41.3519 331.923 41.5615 331.069 41.5615C330.44 41.5615 329.879 41.4417 329.385 41.2021C328.906 40.9775 328.501 40.6706 328.172 40.2812C327.842 39.8919 327.588 39.4352 327.408 38.9111C327.243 38.3721 327.161 37.8105 327.161 37.2266C327.161 36.5527 327.266 35.8639 327.476 35.1602C327.7 34.4414 328 33.7376 328.374 33.0488C328.763 32.36 329.22 31.7087 329.744 31.0947C330.268 30.4808 330.837 29.9417 331.451 29.4775C332.08 29.0133 332.739 28.6465 333.428 28.377C334.117 28.1074 334.82 27.9727 335.539 27.9727C335.704 27.9727 335.906 27.9951 336.146 28.04C336.385 28.07 336.617 28.1299 336.842 28.2197C337.066 28.3096 337.254 28.4368 337.403 28.6016C337.568 28.7663 337.65 28.9759 337.65 29.2305ZM364.379 37.7881C364.139 38.2822 363.84 38.7314 363.48 39.1357C363.121 39.5251 362.717 39.862 362.268 40.1465C361.818 40.416 361.339 40.6257 360.83 40.7754C360.321 40.9251 359.789 41 359.235 41C358.067 41 357.072 40.7155 356.248 40.1465C355.439 39.5775 354.758 38.8363 354.204 37.9229C353.8 38.3721 353.351 38.8213 352.856 39.2705C352.377 39.7048 351.861 40.0941 351.307 40.4385C350.768 40.7679 350.206 41.0374 349.622 41.2471C349.038 41.4567 348.454 41.5615 347.87 41.5615C347.166 41.5615 346.537 41.4193 345.983 41.1348C345.429 40.8503 344.958 40.4759 344.568 40.0117C344.179 39.5326 343.88 38.9935 343.67 38.3945C343.46 37.7806 343.355 37.1442 343.355 36.4854C343.355 35.4971 343.573 34.5013 344.007 33.498C344.456 32.4948 345.04 31.5889 345.759 30.7803C346.493 29.9567 347.331 29.2904 348.274 28.7812C349.218 28.2721 350.199 28.0176 351.217 28.0176C351.516 28.0176 351.778 28.0475 352.003 28.1074V27.1641C352.003 26.7298 352.018 26.1533 352.048 25.4346C352.078 24.7158 352.138 23.9222 352.228 23.0537C352.317 22.1702 352.43 21.2493 352.564 20.291C352.714 19.3177 352.901 18.3594 353.126 17.416C353.366 16.4577 353.643 15.5518 353.957 14.6982C354.271 13.8298 354.638 13.0736 355.058 12.4297C355.477 11.7708 355.956 11.2467 356.495 10.8574C357.034 10.4681 357.641 10.2734 358.314 10.2734C359.108 10.2734 359.752 10.5055 360.246 10.9697C360.74 11.4339 361.13 12.0104 361.414 12.6992C361.699 13.373 361.886 14.0918 361.976 14.8555C362.08 15.6191 362.133 16.3005 362.133 16.8994C362.133 17.6781 362.058 18.584 361.908 19.6172C361.758 20.6354 361.549 21.721 361.279 22.874C361.01 24.012 360.688 25.18 360.313 26.3779C359.939 27.5758 359.535 28.7288 359.101 29.8369C358.666 30.945 358.195 31.9782 357.686 32.9365C357.191 33.8799 356.69 34.681 356.181 35.3398C356.375 35.9238 356.607 36.4629 356.877 36.957C357.161 37.4512 357.491 37.8779 357.865 38.2373C358.24 38.5967 358.666 38.8812 359.146 39.0908C359.625 39.2855 360.171 39.3828 360.785 39.3828C362.193 39.3828 363.346 38.8213 364.244 37.6982L364.379 37.7881ZM355.17 25.2773C355.17 25.8164 355.17 26.4453 355.17 27.1641C355.17 27.8678 355.185 28.6165 355.215 29.4102C355.26 30.2038 355.327 31.0199 355.417 31.8584C355.522 32.682 355.672 33.4831 355.866 34.2617C356.495 33.0488 357.072 31.7236 357.596 30.2861C358.12 28.8337 358.569 27.3512 358.943 25.8389C359.333 24.3115 359.632 22.7917 359.842 21.2793C360.051 19.7669 360.156 18.3369 360.156 16.9893C360.156 16.7048 360.141 16.293 360.111 15.7539C360.081 15.2148 359.999 14.6833 359.864 14.1592C359.729 13.6201 359.527 13.1559 359.258 12.7666C358.988 12.3623 358.621 12.1602 358.157 12.1602C357.798 12.1602 357.476 12.3324 357.191 12.6768C356.907 13.0062 356.66 13.4554 356.45 14.0244C356.241 14.5785 356.061 15.2148 355.911 15.9336C355.776 16.6523 355.657 17.401 355.552 18.1797C355.462 18.9583 355.387 19.7295 355.327 20.4932C355.282 21.2568 355.245 21.9681 355.215 22.627C355.2 23.2708 355.185 23.8324 355.17 24.3115C355.17 24.7757 355.17 25.0977 355.17 25.2773ZM349.51 39.1133C350.363 39.1133 351.149 38.9486 351.868 38.6191C352.602 38.2897 353.268 37.8555 353.867 37.3164C353.583 36.7624 353.336 36.1709 353.126 35.542C352.931 34.8981 352.759 34.2542 352.609 33.6104C352.475 32.9515 352.362 32.2926 352.272 31.6338C352.198 30.9749 352.138 30.3385 352.093 29.7246C351.913 29.5299 351.688 29.3727 351.419 29.2529C351.149 29.1182 350.82 29.0508 350.431 29.0508C349.727 29.0508 349.098 29.2454 348.544 29.6348C348.005 30.0091 347.548 30.4883 347.174 31.0723C346.799 31.6413 346.515 32.2702 346.32 32.959C346.126 33.6328 346.028 34.2767 346.028 34.8906C346.028 35.4596 346.088 36.0062 346.208 36.5303C346.343 37.0394 346.552 37.4886 346.837 37.8779C347.121 38.2523 347.481 38.5518 347.915 38.7764C348.364 39.001 348.896 39.1133 349.51 39.1133ZM377.586 37.7881C377.197 38.3571 376.725 38.8887 376.171 39.3828C375.632 39.877 375.033 40.3037 374.374 40.6631C373.73 41.0225 373.049 41.307 372.33 41.5166C371.626 41.7262 370.915 41.8311 370.196 41.8311C369.178 41.8311 368.227 41.6963 367.344 41.4268C366.46 41.1722 365.689 40.7754 365.03 40.2363C364.371 39.6973 363.855 39.0234 363.48 38.2148C363.106 37.3913 362.919 36.4329 362.919 35.3398C362.919 34.2617 363.114 33.2585 363.503 32.3301C363.907 31.3867 364.454 30.5706 365.143 29.8818C365.846 29.1781 366.67 28.624 367.613 28.2197C368.557 27.8154 369.567 27.6133 370.646 27.6133C371.155 27.6133 371.626 27.6882 372.061 27.8379C372.51 27.9727 372.899 28.1823 373.229 28.4668C373.558 28.7363 373.812 29.0732 373.992 29.4775C374.187 29.8818 374.284 30.346 374.284 30.8701C374.284 31.499 374.157 32.0531 373.902 32.5322C373.648 33.0114 373.311 33.4307 372.892 33.79C372.472 34.1494 371.993 34.4489 371.454 34.6885C370.93 34.9281 370.376 35.1227 369.792 35.2725C369.223 35.4222 368.654 35.5345 368.085 35.6094C367.531 35.6693 367.022 35.6992 366.558 35.6992H366.019C366.213 37.0618 366.752 38.1025 367.636 38.8213C368.519 39.54 369.74 39.8994 371.297 39.8994C372.405 39.8994 373.483 39.7048 374.531 39.3154C375.594 38.9261 376.553 38.387 377.406 37.6982L377.586 37.7881ZM365.951 35.0254H366.513C367.052 35.0254 367.606 34.943 368.175 34.7783C368.744 34.5986 369.253 34.3441 369.702 34.0146C370.166 33.6702 370.548 33.251 370.848 32.7568C371.147 32.2627 371.297 31.7012 371.297 31.0723C371.297 30.4583 371.162 29.9492 370.893 29.5449C370.638 29.1406 370.189 28.9385 369.545 28.9385C368.886 28.9385 368.325 29.1406 367.86 29.5449C367.411 29.9342 367.044 30.4209 366.76 31.0049C366.475 31.5739 366.266 32.1803 366.131 32.8242C366.011 33.4531 365.951 34.0146 365.951 34.5088V35.0254ZM399.351 27.9727C399.081 28.2122 398.714 28.4518 398.25 28.6914C397.786 28.916 397.262 29.1406 396.678 29.3652C396.094 29.5749 395.465 29.777 394.791 29.9717C394.132 30.1663 393.473 30.3385 392.814 30.4883C392.829 32.4648 392.822 34.4414 392.792 36.418C392.762 38.3945 392.665 40.3636 392.5 42.3252C392.35 44.3018 392.111 46.2559 391.781 48.1875C391.467 50.1191 391.018 52.0133 390.434 53.8701H389.872V31.0498C389.498 31.1097 389.153 31.1546 388.839 31.1846C388.524 31.1995 388.247 31.207 388.008 31.207C387.708 31.207 387.416 31.1921 387.132 31.1621C386.862 31.1172 386.615 31.0348 386.391 30.915C386.181 30.7803 386.009 30.6006 385.874 30.376C385.739 30.1514 385.672 29.8444 385.672 29.4551C385.672 28.9909 385.822 28.6315 386.121 28.377C386.421 28.1074 386.787 27.9727 387.222 27.9727C387.656 27.9727 388.09 27.9951 388.524 28.04C388.974 28.07 389.423 28.1074 389.872 28.1523V28.085C389.872 27.0218 389.895 25.8538 389.939 24.5811C389.999 23.2933 390.127 22.0055 390.321 20.7178C390.531 19.43 390.83 18.1797 391.22 16.9668C391.609 15.7539 392.141 14.6833 392.814 13.7549C393.503 12.8115 394.357 12.0553 395.375 11.4863C396.393 10.9173 397.629 10.6328 399.081 10.6328C399.845 10.6328 400.519 10.7676 401.103 11.0371C401.687 11.3066 402.173 11.681 402.562 12.1602C402.952 12.6243 403.244 13.1784 403.438 13.8223C403.633 14.4512 403.73 15.125 403.73 15.8438C403.73 16.6224 403.588 17.3861 403.304 18.1348C403.019 18.8835 402.645 19.5872 402.181 20.2461C401.716 20.9049 401.177 21.5114 400.563 22.0654C399.965 22.6045 399.343 23.0612 398.699 23.4355L398.475 22.9189C398.909 22.5296 399.283 22.0804 399.598 21.5713C399.927 21.0472 400.197 20.4932 400.406 19.9092C400.616 19.3252 400.766 18.7337 400.855 18.1348C400.96 17.5208 401.013 16.9219 401.013 16.3379C401.013 15.8288 400.953 15.3047 400.833 14.7656C400.713 14.2266 400.526 13.7399 400.271 13.3057C400.017 12.8564 399.68 12.4971 399.261 12.2275C398.841 11.943 398.332 11.8008 397.733 11.8008C396.88 11.8008 396.161 12.0329 395.577 12.4971C395.008 12.9613 394.536 13.5602 394.162 14.2939C393.803 15.0277 393.526 15.8587 393.331 16.7871C393.136 17.7155 392.994 18.6439 392.904 19.5723C392.829 20.4857 392.785 21.3617 392.77 22.2002C392.77 23.0387 392.77 23.7425 392.77 24.3115C392.77 24.9854 392.77 25.6592 392.77 26.333C392.77 27.0068 392.777 27.6807 392.792 28.3545C393.825 28.3545 394.888 28.3171 395.981 28.2422C397.09 28.1523 398.138 27.9577 399.126 27.6582L399.351 27.9727ZM415.859 37.7881C415.59 38.387 415.245 38.9261 414.826 39.4053C414.422 39.8844 413.98 40.2962 413.501 40.6406C413.022 40.9701 412.528 41.2246 412.019 41.4043C411.509 41.599 411.023 41.6963 410.559 41.6963C409.69 41.6963 408.956 41.5465 408.357 41.2471C407.758 40.9476 407.272 40.5433 406.897 40.0342C406.523 39.5251 406.254 38.9261 406.089 38.2373C405.924 37.5485 405.842 36.8148 405.842 36.0361C405.842 35.4372 405.887 34.8158 405.977 34.1719C406.066 33.528 406.194 32.9066 406.358 32.3076C406.388 32.2178 406.418 32.113 406.448 31.9932C406.478 31.8584 406.493 31.7461 406.493 31.6562C406.493 31.5814 406.448 31.5215 406.358 31.4766C406.104 31.3867 405.834 31.3044 405.55 31.2295C405.265 31.1396 404.981 31.0423 404.696 30.9375C404.427 30.8327 404.165 30.7129 403.91 30.5781C403.671 30.4434 403.461 30.2712 403.281 30.0615C403.266 30.96 403.117 31.8734 402.832 32.8018C402.548 33.7152 402.166 34.5986 401.687 35.4521C401.222 36.2907 400.676 37.0768 400.047 37.8105C399.418 38.5443 398.752 39.1807 398.048 39.7197L397.823 39.4951C398.257 39.016 398.654 38.4469 399.014 37.7881C399.373 37.1292 399.68 36.4404 399.935 35.7217C400.189 35.0029 400.384 34.2767 400.519 33.543C400.668 32.8092 400.743 32.1204 400.743 31.4766C400.743 31.1471 400.713 30.8402 400.653 30.5557C400.593 30.2562 400.526 29.9717 400.451 29.7021C400.391 29.4326 400.331 29.1781 400.271 28.9385C400.212 28.6839 400.182 28.4294 400.182 28.1748C400.182 27.7555 400.316 27.4261 400.586 27.1865C400.855 26.9469 401.2 26.8271 401.619 26.8271C401.844 26.8271 402.016 26.8945 402.136 27.0293C402.256 27.1491 402.36 27.2988 402.45 27.4785C402.54 27.6582 402.645 27.8454 402.765 28.04C402.884 28.2347 403.057 28.3994 403.281 28.5342C403.566 28.6989 403.925 28.8187 404.359 28.8936C404.794 28.9684 405.25 29.0358 405.729 29.0957C406.209 29.1556 406.688 29.2155 407.167 29.2754C407.646 29.3353 408.073 29.4401 408.447 29.5898C408.837 29.7246 409.151 29.9193 409.391 30.1738C409.63 30.4134 409.75 30.7428 409.75 31.1621C409.75 31.3717 409.728 31.5814 409.683 31.791C409.653 31.9857 409.6 32.1729 409.525 32.3525C409.346 32.9814 409.188 33.6253 409.054 34.2842C408.934 34.9281 408.874 35.5719 408.874 36.2158C408.874 36.7699 408.911 37.279 408.986 37.7432C409.076 38.1924 409.233 38.5817 409.458 38.9111C409.683 39.2406 409.982 39.4951 410.356 39.6748C410.731 39.8545 411.21 39.9443 411.794 39.9443C412.632 39.9443 413.366 39.7422 413.995 39.3379C414.624 38.9186 415.178 38.3721 415.657 37.6982L415.859 37.7881ZM427.696 34.374C427.696 35.4222 427.524 36.3955 427.18 37.2939C426.835 38.1924 426.349 38.971 425.72 39.6299C425.091 40.2887 424.335 40.8053 423.451 41.1797C422.583 41.554 421.617 41.7412 420.554 41.7412C419.61 41.7412 418.757 41.5615 417.993 41.2021C417.244 40.8577 416.601 40.3861 416.062 39.7871C415.522 39.1882 415.111 38.4919 414.826 37.6982C414.542 36.8896 414.399 36.0286 414.399 35.1152C414.399 34.3516 414.504 33.6253 414.714 32.9365C414.938 32.2477 415.245 31.6113 415.635 31.0273C416.024 30.4284 416.488 29.8818 417.027 29.3877C417.566 28.8786 418.15 28.4219 418.779 28.0176L419.049 28.2197C418.42 28.9535 417.926 29.762 417.566 30.6455C417.207 31.529 417.027 32.4648 417.027 33.4531C417.027 34.1719 417.132 34.9056 417.342 35.6543C417.566 36.388 417.888 37.0618 418.308 37.6758C418.727 38.2897 419.251 38.7913 419.88 39.1807C420.509 39.57 421.228 39.7646 422.036 39.7646C422.545 39.7646 423.024 39.6598 423.474 39.4502C423.923 39.2406 424.312 38.9561 424.642 38.5967C424.986 38.2373 425.256 37.833 425.45 37.3838C425.66 36.9196 425.765 36.4404 425.765 35.9463C425.765 35.4671 425.69 35.0029 425.54 34.5537C425.405 34.0895 425.211 33.6628 424.956 33.2734C424.701 32.8691 424.395 32.5098 424.035 32.1953C423.676 31.8659 423.286 31.5964 422.867 31.3867C422.628 31.2669 422.396 31.1771 422.171 31.1172C421.961 31.0573 421.729 30.9899 421.475 30.915C421.37 30.9001 421.257 30.8776 421.138 30.8477C421.018 30.8027 420.906 30.7578 420.801 30.7129C420.696 30.653 420.606 30.5781 420.531 30.4883C420.456 30.3984 420.419 30.2861 420.419 30.1514C420.419 29.8818 420.516 29.6348 420.711 29.4102C420.906 29.1855 421.138 28.9909 421.407 28.8262C421.677 28.6465 421.961 28.5117 422.261 28.4219C422.56 28.3171 422.822 28.2646 423.047 28.2646C423.811 28.2646 424.484 28.4593 425.068 28.8486C425.652 29.238 426.139 29.7321 426.528 30.3311C426.918 30.93 427.21 31.5889 427.404 32.3076C427.599 33.0264 427.696 33.7152 427.696 34.374ZM456.199 37.7881C455.93 38.3271 455.608 38.8512 455.233 39.3604C454.859 39.8545 454.44 40.2962 453.976 40.6855C453.511 41.0749 452.995 41.3818 452.426 41.6064C451.872 41.846 451.265 41.9658 450.606 41.9658C449.678 41.9658 448.922 41.6514 448.338 41.0225C447.754 40.3936 447.275 39.5775 446.9 38.5742C446.541 37.556 446.257 36.4105 446.047 35.1377C445.837 33.8499 445.658 32.5547 445.508 31.252C445.163 31.8659 444.841 32.5098 444.542 33.1836C444.257 33.8424 443.98 34.5387 443.711 35.2725C443.441 36.0062 443.172 36.7624 442.902 37.541C442.633 38.3197 442.341 39.1208 442.026 39.9443C441.951 40.124 441.869 40.3262 441.779 40.5508C441.689 40.7604 441.57 40.9626 441.42 41.1572C441.285 41.3669 441.12 41.5391 440.926 41.6738C440.731 41.8086 440.499 41.876 440.229 41.876C440.035 41.876 439.863 41.8311 439.713 41.7412C439.563 41.6514 439.428 41.5391 439.309 41.4043C439.204 41.2845 439.106 41.1497 439.017 41C438.942 40.8353 438.874 40.6855 438.814 40.5508C438.515 39.877 438.275 39.1882 438.096 38.4844C437.916 37.7806 437.759 37.0544 437.624 36.3057C437.504 35.557 437.399 34.7633 437.31 33.9248C437.22 33.0863 437.13 32.1953 437.04 31.252C436.726 31.9857 436.441 32.6895 436.187 33.3633C435.947 34.0221 435.707 34.6885 435.468 35.3623C435.243 36.0212 435.011 36.71 434.771 37.4287C434.547 38.1325 434.307 38.8962 434.053 39.7197C433.993 39.9144 433.925 40.124 433.851 40.3486C433.791 40.5583 433.708 40.7529 433.604 40.9326C433.514 41.1123 433.386 41.262 433.222 41.3818C433.072 41.5016 432.877 41.5615 432.638 41.5615C432.248 41.5615 431.964 41.4342 431.784 41.1797C431.604 40.9401 431.455 40.6556 431.335 40.3262C431.155 39.877 430.983 39.2555 430.818 38.4619C430.654 37.6533 430.504 36.7773 430.369 35.834C430.234 34.8906 430.13 33.9173 430.055 32.9141C429.98 31.9108 429.942 30.9749 429.942 30.1064C429.942 29.2679 430.167 28.654 430.616 28.2646C431.065 27.8604 431.657 27.6582 432.391 27.6582C432.436 27.6582 432.503 27.6582 432.593 27.6582C432.683 27.6582 432.772 27.6732 432.862 27.7031C432.952 27.7181 433.027 27.748 433.087 27.793C433.162 27.8379 433.192 27.8978 433.177 27.9727C433.042 29.0208 432.952 30.0166 432.907 30.96C432.862 31.9033 432.847 32.8242 432.862 33.7227C432.877 34.6061 432.922 35.4821 432.997 36.3506C433.087 37.2041 433.199 38.0801 433.334 38.9785C433.589 38.125 433.836 37.3089 434.075 36.5303C434.33 35.7516 434.592 34.9805 434.861 34.2168C435.131 33.4531 435.415 32.682 435.715 31.9033C436.029 31.1097 436.366 30.2786 436.726 29.4102C436.92 28.9609 437.122 28.6465 437.332 28.4668C437.557 28.2871 437.841 28.1973 438.186 28.1973C438.62 28.1973 438.957 28.362 439.196 28.6914C439.451 29.0208 439.616 29.3952 439.69 29.8145C439.81 30.5781 439.915 31.3643 440.005 32.1729C440.095 32.9665 440.192 33.7676 440.297 34.5762C440.402 35.3848 440.529 36.1859 440.679 36.9795C440.828 37.7581 441.023 38.5143 441.263 39.248C441.562 38.4694 441.862 37.6608 442.161 36.8223C442.461 35.9688 442.768 35.1152 443.082 34.2617C443.396 33.4082 443.726 32.5697 444.07 31.7461C444.43 30.9225 444.812 30.1439 445.216 29.4102C445.41 29.0658 445.628 28.7812 445.867 28.5566C446.122 28.3171 446.436 28.1973 446.811 28.1973C447.02 28.1973 447.207 28.2497 447.372 28.3545C447.537 28.4443 447.679 28.5716 447.799 28.7363C447.919 28.8861 448.016 29.0583 448.091 29.2529C448.166 29.4326 448.218 29.6198 448.248 29.8145C448.323 30.2487 448.39 30.8102 448.45 31.499C448.525 32.1878 448.615 32.9215 448.72 33.7002C448.84 34.4788 448.982 35.265 449.146 36.0586C449.311 36.8372 449.521 37.5485 449.775 38.1924C450.03 38.8213 450.337 39.3379 450.696 39.7422C451.056 40.1465 451.49 40.3486 451.999 40.3486C452.418 40.3486 452.823 40.2738 453.212 40.124C453.601 39.9593 453.968 39.7572 454.312 39.5176C454.657 39.263 454.971 38.9785 455.256 38.6641C455.555 38.3346 455.825 38.0127 456.064 37.6982L456.199 37.7881Z" fill="white"/>
<mask id="path-3-inside-1_359_36" fill="white">
<path fill-rule="evenodd" clip-rule="evenodd" d="M183.285 33.2105C164.491 42.6489 131.87 82.9321 118.237 113.534C114.707 121.46 114.309 121.864 105.48 126.492C93.8974 132.564 74.6999 140.199 62.9541 143.406C42.3192 149.037 26.1775 149.825 10.8462 145.949C5.32262 144.551 0.494075 143.715 0.118629 144.092C-0.988267 145.198 5.75031 147.384 16.1753 149.3C37.6766 153.25 67.6818 146.879 99.7138 131.561C106.561 128.287 112.298 125.741 112.463 125.906C112.627 126.07 111.871 129.168 110.782 132.79C107.848 142.544 107.925 155.38 110.948 160.511C115.147 167.64 119.156 169.751 128.477 169.748C135.848 169.744 137.899 169.149 148.128 164.036C161.15 157.527 178.769 144.673 194.292 130.357C200.146 124.959 205.248 120.542 205.632 120.542C206.015 120.542 206.328 123.177 206.328 126.396C206.328 134.423 209.438 144.211 213.377 148.585C217.251 152.888 223.581 154.046 224.297 150.583C224.561 149.311 224.111 148.562 223.203 148.76C222.355 148.945 221.443 148.094 221.176 146.871C220.715 144.753 220.845 144.746 223.83 146.701C225.782 147.98 228.09 148.475 229.941 148.009C233.377 147.147 243.034 137.537 249.681 128.366C253.989 122.421 254.643 122.002 260.536 121.393C267.719 120.652 272.854 118.314 279.988 112.538L284.999 108.479L280.777 118.248C272.997 136.243 274.108 147.273 283.698 147.273C288.398 147.273 296.412 140.666 302.571 131.713L306.209 126.427L309.221 129.257C311.514 131.41 313.629 132.085 318.086 132.085H323.939L324.551 137.512C325.035 141.809 326.103 143.799 329.685 147.082C334.038 151.071 334.486 151.203 341.651 150.579C350.964 149.77 361.436 145.37 382.508 133.416C425.694 108.917 439.006 103.529 458.549 102.64C476.52 101.821 484.101 103.911 491.977 111.852C495.061 114.962 497.861 118.325 498.201 119.327C498.54 120.33 499.248 120.751 499.77 120.263C501.33 118.81 494.623 109.846 489.605 106.679C478.973 99.9681 463.511 98.1918 446.426 101.721C431.556 104.793 420.15 109.978 386.761 128.845C351.265 148.901 337.926 152.695 330.168 144.937C327.336 142.104 326.617 140.321 326.619 136.128C326.623 130.958 326.738 130.811 333.606 127.26C341.745 123.053 354.079 111.349 355.238 106.732C356.749 100.711 353.735 97.7009 347.707 99.2136C342.783 100.451 332.524 111.843 328.439 120.614C326.434 124.918 324.247 128.842 323.579 129.333C321.437 130.907 313.879 130.325 311.092 128.371C307.764 126.04 307.701 123.545 310.794 116.726C313.481 110.806 314.009 105.506 311.842 106.229C309.583 106.983 305.961 114.704 305.961 118.767C305.961 125.314 293.644 141.893 286.618 144.803C282.263 146.606 278.375 144.89 277.771 140.897C276.585 133.073 282.357 116.957 292.068 100.969C294.508 96.9537 296.275 93.441 295.995 93.1615C295.717 92.8821 291.231 97.306 286.027 102.992C275.81 114.156 267.704 119.327 260.423 119.327H256.114L260.408 110.8C262.77 106.11 265.028 99.8989 265.426 96.9962C266.056 92.3997 265.782 91.4617 263.306 89.7279C256.976 85.293 250.122 88.5675 238.05 101.788L231.5 108.964L232.353 100.998C233.702 88.401 230.828 84.5603 220.773 85.5202C217.092 85.8725 216.228 86.7218 212.626 93.5358C210.408 97.7276 207.916 104.836 207.086 109.331L205.58 117.505L192.892 128.87C174.667 145.197 161.165 155.08 148.271 161.529C129.57 170.885 117.702 170.054 112.701 159.04C109.684 152.393 109.751 145.372 112.943 133.543L115.544 123.899L124.623 118.271C168.737 90.9283 202.683 56.781 202.683 39.7498C202.683 29.7355 195.217 27.218 183.285 33.2105ZM199.152 34.3891C202.457 37.694 201.549 43.305 196.225 52.5004C191.107 61.3373 164.936 87.4934 150.437 98.2598C139.714 106.223 119.687 119.327 118.239 119.327C116.92 119.327 128.626 97.5867 135.902 86.5214C156.124 55.7737 180.99 32.0963 193.267 31.8983C195.104 31.8691 197.753 32.9894 199.152 34.3891ZM240.41 62.1016C238.947 64.9691 238.061 67.6276 238.442 68.0091C238.823 68.3894 239.134 68.0626 239.134 67.2837C239.134 65.3761 246.038 65.4648 246.919 67.3846C247.303 68.2205 247.281 67.5364 246.869 65.8658C246.458 64.1951 245.435 61.4916 244.596 59.8574L243.071 56.8867L240.41 62.1016ZM253.31 58.171C252.864 58.6157 252.5 61.0761 252.5 63.6386C252.5 67.5352 252.909 68.2958 255.01 68.2958C259.169 68.2958 262.22 65.9824 262.22 62.8282C262.22 58.889 255.896 55.5842 253.31 58.171ZM267.559 59.081C267.195 60.0263 267.076 62.3507 267.293 64.2449C267.623 67.1246 268.284 67.7175 271.333 67.8645C274.795 68.031 274.811 68.0115 271.636 67.4793C267.613 66.805 267.201 63.816 271.029 63.0785L273.763 62.5512L271.029 62.3859C267.141 62.1502 267.624 58.838 271.636 58.2305L274.978 57.725L271.599 57.5428C269.666 57.4383 267.937 58.0968 267.559 59.081ZM312.858 58.3058C313.642 58.8064 314.508 61.3945 314.779 64.059L315.273 68.9034L315.477 63.8403C315.589 61.0567 316.365 58.5027 317.2 58.1649C318.036 57.8283 317.079 57.5173 315.074 57.4747C313.025 57.431 312.054 57.7955 312.858 58.3058ZM223.543 62.8282C223.619 65.7516 223.884 66.5596 224.209 64.8561C224.723 62.1611 224.833 62.132 226.474 64.2486C228.145 66.4053 228.252 66.4053 229.924 64.2486C231.564 62.132 231.675 62.1611 232.189 64.8561C232.513 66.5596 232.778 65.7516 232.855 62.8282C232.972 58.3605 232.841 58.154 231.241 60.2669C230.285 61.5305 229.209 63.1708 228.85 63.912C228.374 64.8974 228.024 64.8974 227.548 63.912C227.189 63.1708 226.113 61.5305 225.156 60.2669C223.556 58.154 223.426 58.3605 223.543 62.8282ZM260.203 61.2073C261.775 63.7176 259.366 67.0808 255.996 67.0808C254.19 67.0808 253.715 66.1768 253.715 62.7431C253.715 58.996 254.069 58.4589 256.324 58.7943C257.759 59.0081 259.505 60.0944 260.203 61.2073ZM287.485 63.6289L289.471 68.681L291.204 64.5402L292.938 60.3981L294.76 64.6507L296.582 68.9034L298.179 65.2583C299.057 63.2535 299.777 60.793 299.777 59.7906C299.777 58.7882 299.073 59.6084 298.215 61.6132L296.654 65.2583L294.714 61.6132L292.774 57.9681L291.005 62.1271L289.236 66.2862L288.389 62.4309C287.924 60.3106 287.083 58.5756 286.522 58.5756C285.96 58.5756 286.394 60.8489 287.485 63.6289ZM305.052 62.8282C305.066 65.5013 305.315 66.4514 305.605 64.9399C305.895 63.4284 305.885 61.2414 305.581 60.0798C305.277 58.9182 305.039 60.1551 305.052 62.8282ZM324.05 62.5244C323.725 65.031 323.896 67.0808 324.431 67.0808C324.964 67.0808 325.402 66.2607 325.402 65.2583C325.402 62.6204 331.156 62.8914 331.855 65.562C332.16 66.7321 332.41 65.5013 332.41 62.8282C332.41 60.1551 332.16 58.9243 331.855 60.0944C331.524 61.3592 330.14 62.2207 328.439 62.2207C326.705 62.2207 325.396 61.3835 325.11 60.0944C324.852 58.9243 324.375 60.019 324.05 62.5244ZM245.191 63.7395C245.201 64.2401 244.389 64.6507 243.387 64.6507C241.527 64.6507 240.897 62.0773 242.393 60.5828C243.208 59.7663 245.155 61.9619 245.191 63.7395ZM353.347 103.904C353.347 109.42 342.943 120.137 332.281 125.601L327.618 127.992L328.488 125.178C332.746 111.399 353.347 93.7703 353.347 103.904ZM221.071 140.778C219.928 142.743 219.763 142.578 219.73 139.436C219.703 136.823 220.057 136.215 221.035 137.193C221.996 138.154 222.006 139.169 221.071 140.778Z"/>
</mask>
<path fill-rule="evenodd" clip-rule="evenodd" d="M183.285 33.2105C164.491 42.6489 131.87 82.9321 118.237 113.534C114.707 121.46 114.309 121.864 105.48 126.492C93.8974 132.564 74.6999 140.199 62.9541 143.406C42.3192 149.037 26.1775 149.825 10.8462 145.949C5.32262 144.551 0.494075 143.715 0.118629 144.092C-0.988267 145.198 5.75031 147.384 16.1753 149.3C37.6766 153.25 67.6818 146.879 99.7138 131.561C106.561 128.287 112.298 125.741 112.463 125.906C112.627 126.07 111.871 129.168 110.782 132.79C107.848 142.544 107.925 155.38 110.948 160.511C115.147 167.64 119.156 169.751 128.477 169.748C135.848 169.744 137.899 169.149 148.128 164.036C161.15 157.527 178.769 144.673 194.292 130.357C200.146 124.959 205.248 120.542 205.632 120.542C206.015 120.542 206.328 123.177 206.328 126.396C206.328 134.423 209.438 144.211 213.377 148.585C217.251 152.888 223.581 154.046 224.297 150.583C224.561 149.311 224.111 148.562 223.203 148.76C222.355 148.945 221.443 148.094 221.176 146.871C220.715 144.753 220.845 144.746 223.83 146.701C225.782 147.98 228.09 148.475 229.941 148.009C233.377 147.147 243.034 137.537 249.681 128.366C253.989 122.421 254.643 122.002 260.536 121.393C267.719 120.652 272.854 118.314 279.988 112.538L284.999 108.479L280.777 118.248C272.997 136.243 274.108 147.273 283.698 147.273C288.398 147.273 296.412 140.666 302.571 131.713L306.209 126.427L309.221 129.257C311.514 131.41 313.629 132.085 318.086 132.085H323.939L324.551 137.512C325.035 141.809 326.103 143.799 329.685 147.082C334.038 151.071 334.486 151.203 341.651 150.579C350.964 149.77 361.436 145.37 382.508 133.416C425.694 108.917 439.006 103.529 458.549 102.64C476.52 101.821 484.101 103.911 491.977 111.852C495.061 114.962 497.861 118.325 498.201 119.327C498.54 120.33 499.248 120.751 499.77 120.263C501.33 118.81 494.623 109.846 489.605 106.679C478.973 99.9681 463.511 98.1918 446.426 101.721C431.556 104.793 420.15 109.978 386.761 128.845C351.265 148.901 337.926 152.695 330.168 144.937C327.336 142.104 326.617 140.321 326.619 136.128C326.623 130.958 326.738 130.811 333.606 127.26C341.745 123.053 354.079 111.349 355.238 106.732C356.749 100.711 353.735 97.7009 347.707 99.2136C342.783 100.451 332.524 111.843 328.439 120.614C326.434 124.918 324.247 128.842 323.579 129.333C321.437 130.907 313.879 130.325 311.092 128.371C307.764 126.04 307.701 123.545 310.794 116.726C313.481 110.806 314.009 105.506 311.842 106.229C309.583 106.983 305.961 114.704 305.961 118.767C305.961 125.314 293.644 141.893 286.618 144.803C282.263 146.606 278.375 144.89 277.771 140.897C276.585 133.073 282.357 116.957 292.068 100.969C294.508 96.9537 296.275 93.441 295.995 93.1615C295.717 92.8821 291.231 97.306 286.027 102.992C275.81 114.156 267.704 119.327 260.423 119.327H256.114L260.408 110.8C262.77 106.11 265.028 99.8989 265.426 96.9962C266.056 92.3997 265.782 91.4617 263.306 89.7279C256.976 85.293 250.122 88.5675 238.05 101.788L231.5 108.964L232.353 100.998C233.702 88.401 230.828 84.5603 220.773 85.5202C217.092 85.8725 216.228 86.7218 212.626 93.5358C210.408 97.7276 207.916 104.836 207.086 109.331L205.58 117.505L192.892 128.87C174.667 145.197 161.165 155.08 148.271 161.529C129.57 170.885 117.702 170.054 112.701 159.04C109.684 152.393 109.751 145.372 112.943 133.543L115.544 123.899L124.623 118.271C168.737 90.9283 202.683 56.781 202.683 39.7498C202.683 29.7355 195.217 27.218 183.285 33.2105ZM199.152 34.3891C202.457 37.694 201.549 43.305 196.225 52.5004C191.107 61.3373 164.936 87.4934 150.437 98.2598C139.714 106.223 119.687 119.327 118.239 119.327C116.92 119.327 128.626 97.5867 135.902 86.5214C156.124 55.7737 180.99 32.0963 193.267 31.8983C195.104 31.8691 197.753 32.9894 199.152 34.3891ZM240.41 62.1016C238.947 64.9691 238.061 67.6276 238.442 68.0091C238.823 68.3894 239.134 68.0626 239.134 67.2837C239.134 65.3761 246.038 65.4648 246.919 67.3846C247.303 68.2205 247.281 67.5364 246.869 65.8658C246.458 64.1951 245.435 61.4916 244.596 59.8574L243.071 56.8867L240.41 62.1016ZM253.31 58.171C252.864 58.6157 252.5 61.0761 252.5 63.6386C252.5 67.5352 252.909 68.2958 255.01 68.2958C259.169 68.2958 262.22 65.9824 262.22 62.8282C262.22 58.889 255.896 55.5842 253.31 58.171ZM267.559 59.081C267.195 60.0263 267.076 62.3507 267.293 64.2449C267.623 67.1246 268.284 67.7175 271.333 67.8645C274.795 68.031 274.811 68.0115 271.636 67.4793C267.613 66.805 267.201 63.816 271.029 63.0785L273.763 62.5512L271.029 62.3859C267.141 62.1502 267.624 58.838 271.636 58.2305L274.978 57.725L271.599 57.5428C269.666 57.4383 267.937 58.0968 267.559 59.081ZM312.858 58.3058C313.642 58.8064 314.508 61.3945 314.779 64.059L315.273 68.9034L315.477 63.8403C315.589 61.0567 316.365 58.5027 317.2 58.1649C318.036 57.8283 317.079 57.5173 315.074 57.4747C313.025 57.431 312.054 57.7955 312.858 58.3058ZM223.543 62.8282C223.619 65.7516 223.884 66.5596 224.209 64.8561C224.723 62.1611 224.833 62.132 226.474 64.2486C228.145 66.4053 228.252 66.4053 229.924 64.2486C231.564 62.132 231.675 62.1611 232.189 64.8561C232.513 66.5596 232.778 65.7516 232.855 62.8282C232.972 58.3605 232.841 58.154 231.241 60.2669C230.285 61.5305 229.209 63.1708 228.85 63.912C228.374 64.8974 228.024 64.8974 227.548 63.912C227.189 63.1708 226.113 61.5305 225.156 60.2669C223.556 58.154 223.426 58.3605 223.543 62.8282ZM260.203 61.2073C261.775 63.7176 259.366 67.0808 255.996 67.0808C254.19 67.0808 253.715 66.1768 253.715 62.7431C253.715 58.996 254.069 58.4589 256.324 58.7943C257.759 59.0081 259.505 60.0944 260.203 61.2073ZM287.485 63.6289L289.471 68.681L291.204 64.5402L292.938 60.3981L294.76 64.6507L296.582 68.9034L298.179 65.2583C299.057 63.2535 299.777 60.793 299.777 59.7906C299.777 58.7882 299.073 59.6084 298.215 61.6132L296.654 65.2583L294.714 61.6132L292.774 57.9681L291.005 62.1271L289.236 66.2862L288.389 62.4309C287.924 60.3106 287.083 58.5756 286.522 58.5756C285.96 58.5756 286.394 60.8489 287.485 63.6289ZM305.052 62.8282C305.066 65.5013 305.315 66.4514 305.605 64.9399C305.895 63.4284 305.885 61.2414 305.581 60.0798C305.277 58.9182 305.039 60.1551 305.052 62.8282ZM324.05 62.5244C323.725 65.031 323.896 67.0808 324.431 67.0808C324.964 67.0808 325.402 66.2607 325.402 65.2583C325.402 62.6204 331.156 62.8914 331.855 65.562C332.16 66.7321 332.41 65.5013 332.41 62.8282C332.41 60.1551 332.16 58.9243 331.855 60.0944C331.524 61.3592 330.14 62.2207 328.439 62.2207C326.705 62.2207 325.396 61.3835 325.11 60.0944C324.852 58.9243 324.375 60.019 324.05 62.5244ZM245.191 63.7395C245.201 64.2401 244.389 64.6507 243.387 64.6507C241.527 64.6507 240.897 62.0773 242.393 60.5828C243.208 59.7663 245.155 61.9619 245.191 63.7395ZM353.347 103.904C353.347 109.42 342.943 120.137 332.281 125.601L327.618 127.992L328.488 125.178C332.746 111.399 353.347 93.7703 353.347 103.904ZM221.071 140.778C219.928 142.743 219.763 142.578 219.73 139.436C219.703 136.823 220.057 136.215 221.035 137.193C221.996 138.154 222.006 139.169 221.071 140.778Z" fill="white" stroke="white" stroke-width="2" mask="url(#path-3-inside-1_359_36)"/>
<path d="M230.249 147.858C228.995 144.436 224.173 133.886 213.846 135.708L223.566 152.111C223.566 152.111 225.282 151.059 226.604 150.288C227.925 149.517 230.249 147.858 230.249 147.858Z" fill="white"/>
<rect x="213.846" y="51.8711" width="132.439" height="25.5157" fill="#0097EC"/>
</svg>
