<svg width="1282" height="224" viewBox="0 0 1282 224" fill="none" xmlns="http://www.w3.org/2000/svg">
<path d="M437.541 112.042L460.213 108.046L473.873 84.5099C478.081 77.2601 486.363 73.4033 494.62 74.8489L501.713 76.0907C505.712 76.7907 509.403 78.6912 512.296 81.5394L525.934 94.9671H527.943L528.517 91.6975V84.0683L529.665 82.9784V81.1619L530.526 79.7088L532.535 83.705H533.683V81.8885L534.257 80.072L534.544 81.5252V81.8885V83.705H536.266V81.8885L536.553 80.072L537.414 81.8885V83.3417H539.71H541.144V80.072L542.292 77.1657L544.014 79.7088V82.9784H544.875L545.162 83.3417H548.032V81.1619L548.606 79.3455L549.18 81.1619V82.9784H551.189V81.1619L551.763 78.9822L552.624 81.1619V82.9784H553.772L554.346 81.1619L555.207 79.3455L555.781 78.2556L556.642 82.9784L557.599 87.4763L565.252 82.9784H576.131L583.963 81.8885V80.0906C583.963 78.9059 584.384 77.7596 585.15 76.8562L591.218 69.7025C591.602 69.2497 591.961 68.7829 592.334 68.3204C594.012 66.2362 599.374 60.3449 605.075 62.1866C610.59 63.9682 614.609 70.7321 614.609 70.7321L617.54 81.8885L618.476 92.4241L615.043 108.772L614.609 125.121L609.161 139.652V141.832H601.412H569.843H555.207H534.257H516.75H503.549H479.155H460.213H437.541V112.042Z" fill="#0097EC"/>
<path d="M527.943 94.9671H525.934L512.296 81.5394C509.403 78.6912 505.712 76.7907 501.713 76.0907L494.62 74.8489C486.363 73.4033 478.081 77.2601 473.873 84.5099L460.213 108.046L437.541 112.042V141.832H460.213H479.155H503.549H516.75H534.257H555.207H569.843H601.412H609.161V139.652M527.943 94.9671L528.517 91.6975V84.0683L529.665 82.9784V81.1619L530.526 79.7088L532.535 83.705H533.683V81.8885L534.257 80.072L534.544 81.5252V81.8885V83.705H536.266V81.8885L536.553 80.072L537.414 81.8885V83.3417H539.71H541.144V80.072L542.292 77.1657L544.014 79.7088V82.9784H544.875L545.162 83.3417H548.032V81.1619L548.606 79.3455L549.18 81.1619V82.9784H551.189V81.1619L551.763 78.9822L552.624 81.1619V82.9784H553.772L554.346 81.1619L555.207 79.3455L555.781 78.2556L556.642 82.9784M527.943 94.9671L528.23 100.417L527.943 108.046H525.934V116.402L523.638 118.945V125.121H521.055L519.907 130.207L518.759 134.566H516.75V139.652H533.683M556.642 82.9784L557.216 87.7012M556.642 82.9784L568.696 139.652M568.696 139.652V134.566H566.687L566.974 130.207H565.252V125.121H564.104L563.817 121.851H562.669V118.945H563.53L560.373 106.229C560.373 106.108 560.373 105.721 560.373 105.139C560.373 104.558 560.373 103.686 560.373 103.323H559.799V101.506H559.225V98.2368H558.651V96.4203H558.077V94.6038H557.216L556.929 92.4241H557.79L557.216 87.7012M568.696 139.652H598.542H609.161M609.161 139.652L614.609 125.121L615.043 108.772L618.476 92.4241M617.54 81.8885L615.54 90.0197L618.476 92.4241M617.54 81.8885L614.609 70.7321C614.609 70.7321 610.59 63.9682 605.075 62.1866C599.374 60.3449 594.012 66.2362 592.334 68.3204C591.961 68.7829 591.602 69.2497 591.218 69.7025L585.15 76.8562C584.384 77.7596 583.963 78.9059 583.963 80.0906V81.8885L576.131 82.9784H565.252L557.216 87.7012M617.54 81.8885L618.476 92.4241" stroke="#1F96DE"/>
<path d="M266.262 109.701H263.538V107.992H270.008V79.6202H268.646V77.911H266.262V74.8346H271.029V57.0596H268.646V55.6923H271.71V53.6413H275.456V51.2485V44.0702H277.159V51.2485H279.542V53.6413H281.585V55.0086H283.628V57.0596H281.585V73.4673H283.628V74.8346H287.374V76.8855H284.65V79.6202H283.628V106.624H289.417V109.701H287.374V112.436H284.65V130.894H288.396V133.971L287.374 134.996H286.352V136.363H284.65V142.516H287.374V140.807H289.417V138.756H291.46V136.363H297.249V138.756H299.633V139.782H301.335V142.516H304.4V137.389H302.697V134.996H299.633V132.603H304.4V114.486L302.697 113.461V109.701H299.633V107.992H304.4L305.421 80.6456L304.4 79.6202V77.911H302.697L302.357 75.5182H307.124V58.4269L305.421 57.0596V55.6923H307.124V53.6413H309.508V51.2485H311.21V48.8557H313.253V51.2485H315.296V53.6413H317.339V55.0086L319.723 55.6923V57.0596H318.361V73.4673H323.469V76.8855H321.085V78.5947H319.723V106.624H325.171V109.701H323.469V112.436H325.852V114.486H327.895V117.221H321.085V126.109H327.895V142.516H338.111V140.807H340.154V138.756H341.857V139.782H344.24V140.807H345.943V142.516H355.818V140.807H354.115V137.389V127.476H356.839V120.639V115.854H358.882V112.436H362.628V115.854H368.076V113.461H375.908V111.068H381.356V107.992H387.145V104.915L404.171 103.89V99.7879H409.279V85.4312H406.895V77.911H409.279V73.4673H410.981V71.0745H409.279V67.6562H406.895V64.9216H404.171V58.4269H406.895V53.6413H409.279V51.2485H410.981V48.8557H413.365H416.77V47.1466H421.878V45.0957H427.667V42.7029H431.753V29.3716V23.2187H435.839V40.6519H437.542V42.7029H440.947V45.0957H445.033V47.1466H449.46V48.8557H454.567V51.2485H458.313V53.6413H461.378V66.2889H459.675V69.7072H458.313V75.5182H461.378V77.911V83.3802H458.313V85.4312V97.737H462.74V101.497H465.464V103.89H473.636V106.283H480.447V110.043H488.619V112.436H499.516V114.486H505.985V116.879H502.24V129.869H503.942V125.425H505.985V122.007H508.71V124.399H511.093V129.869H515.52L514.839 115.17H510.072V113.461H514.839V110.043H521.649V106.283H518.584V103.89H521.649V101.497H523.352V95.686H520.287V93.9769H523.352V91.2423H520.287V89.5331H523.352H528.459V83.3802H526.076V81.3293H528.459V78.9365H530.162V75.5182H528.459V71.0745H530.162V67.6562H533.567V63.2125H536.291V55.0086H539.015V48.8557V42.7029H542.761V34.499H545.145V30.7389H549.571V26.2952H550.933V30.7389H553.658V26.2952H555.36V30.7389H559.446V26.2952H561.49V30.7389H563.873V26.2952H566.257V30.7389H568.64V32.4481H571.024V40.6519H573.748L574.77 53.6413H579.196V61.8452H582.261V67.6562H584.985V81.3293H587.028V83.3802H584.985V87.1403H590.093V89.5331H595.541V91.2423H592.476V101.497H595.541V103.89H593.498V106.283V110.043H599.287V112.436H603.714V114.486L601.67 115.17V129.869H603.714L604.395 136.705H600.989V140.465H605.757V138.756H607.119V127.476V123.716H612.567V105.257V101.497H617.334V86.4567V82.3548H624.144L624.826 67.6562H627.89V50.5649H632.657V36.2082H637.084V10.5711H638.446V11.9385H642.192V5.10192H645.256V9.20384H647.3V11.9385H651.386V9.20384H653.088V5.10192H654.791V9.20384H656.834V11.9385H661.261V9.20384H662.623V4.07644H664.666V9.20384H667.049V11.9385H671.136V8.52019H672.498V5.10192V1H674.541V6.46923H676.243V4.07644H679.308V6.46923H681.692V1H683.735V6.46923H685.437V8.52019L687.48 9.20384V11.9385H691.907V5.10192H693.61V1H695.653V5.10192H698.036V10.5711H701.442V5.10192H703.485V10.5711H705.528V11.9385H711.317V5.10192H713.7V1H716.084V5.10192V10.5711H717.786V8.52019H719.489V10.5711V34.499H724.597V48.5139H730.385V64.238H735.153V80.3038H740.26V100.13H746.39V122.007H752.519V106.624L749.114 107.308V101.497H752.519L753.541 81.3293V78.9365H757.627V76.2019H755.584V74.1509H758.989V57.7432H761.713V62.187H764.437V51.9322H766.48V43.3865H768.183V25.2697H763.416V23.5606H768.183V16.724H770.226V23.5606H776.015V25.2697H770.226V43.3865H774.312V53.6413H776.015V62.187H779.42V57.7432H782.484V73.1255H786.571V76.2019H783.506V78.9365H788.273V101.497H790.657V106.624H788.273V110.043H798.829V105.257H800.872V100.13H803.256V87.4822V85.0894V80.3038H798.829V78.9365H803.256V73.1255H804.958V78.9365H809.726V80.3038H804.958V85.0894V86.4567V96.7115H808.023V100.13H811.088V105.257H813.812V110.043H820.963V104.232H818.239V102.523H821.984V81.3293H826.07V77.5692H828.454V60.4779V55.6923H830.497V62.187H833.221V55.6923V50.5649H836.286V41.3356H837.989V25.2697H834.583V23.5606H837.989V16.724H839.691V23.5606H844.458V25.2697H839.691L840.713 41.3356H843.437L844.458 62.187H846.842V57.7432H851.269V74.1509H853.993V78.9365H857.057V81.3293H854.674V102.523H859.441V105.941H854.674L855.695 172.255H861.484L860.803 142.858V138.073H862.506V135.68H864.549V134.312H866.251V120.981H864.549V118.93H867.613V115.854H875.445V113.803H873.402V111.41H871.7V108.334H875.445V101.497V96.7115H877.148V94.3187H880.894V85.0894H883.277V77.5692H887.363V69.3654H891.45V60.4779V48.1721H896.217V43.3865V35.8663H898.6V38.9428H900.303V43.3865H904.389V39.6264H906.432V43.3865H909.837V39.9683H911.881V43.3865H917.669V39.9683V37.2336H919.031V34.8409H921.074V37.2336H922.437V43.3865H923.458V55.6923H928.906V62.187V69.3654H932.652V74.1509H937.079V85.0894H941.846V87.4822V106.624H947.294V111.41V118.93H955.807V124.399H950.699V130.552H955.807V138.073H959.212V142.858H965.342V130.552H972.833V113.803H978.281V106.624H980.324V96.7115V91.2423H990.199V85.0894H993.604V79.6202L997.01 74.1509L1001.44 79.6202V85.0894H1006.88V91.2423H1016.76V96.7115H1021.53V105.257V111.41H1028.34V120.981V128.501H1034.13V138.073V142.858H1060.69L1063.5 133.139C1063.66 132.559 1063.93 132.015 1064.32 131.552C1065.83 129.743 1070.13 125.06 1074.65 124.399C1080.44 123.554 1089.63 124.399 1089.63 124.399C1089.63 124.399 1100.73 127.885 1107.68 126.45C1112.69 125.415 1119.6 120.981 1119.6 120.981C1119.6 120.981 1135.96 118.876 1146.5 118.93C1156.37 118.981 1171.69 120.981 1171.69 120.981C1171.69 120.981 1188.36 119.852 1198.94 120.981C1206.33 121.77 1217.66 124.399 1217.66 124.399C1217.66 124.399 1225.58 118.73 1231.97 113.803C1235.92 110.748 1237.17 107.288 1241.84 105.257C1248.06 102.552 1259.21 105.257 1259.21 105.257C1259.21 105.257 1267.72 112.477 1269.42 118.93C1270.58 123.318 1268.22 126.178 1269.42 130.552C1270.73 135.288 1276.01 140.19 1278.97 142.636C1280.22 143.668 1280.99 145.187 1280.98 146.807L1280.66 201.918V205.5V223H1241.84H1105H1037H970.5H836.286H705.528H603.714H550.933H499.516L358.498 220.629L151.689 223H143.336H111H76.9351H41.5214H20H1V204V183L7.46981 160.291H1L2.70258 148.669H41.5214C40.9539 146.048 40.1594 140.807 41.5214 140.807H51.3964V134.996L66.0386 133.971V122.69H76.9351V132.603H89.8747V139.782H101.112V144.909H144.698V150.72H137.887H135.844V156.873H143.336V223H151.689L151.849 190.714V139.782L148.784 138.756V117.221L151.849 115.854V113.461H154.232V111.068H156.956V113.461H159.34V115.854H161.724V136.363H158.318V142.174H168.874V140.807H170.918V138.756H172.961V137.389H175.004V138.756H177.047V139.782H178.409V141.833L188.624 142.174V129.527H186.922V117.905H188.624V114.486H190.667V112.094H192.711V114.486H194.754V115.854H196.456V117.905H197.478V128.501H196.456V142.516H206.672V140.807H208.715V138.756H212.46V140.465H214.504V142.174L224.379 142.516V119.614H223.357V115.854H226.762V114.486H227.784C227.67 113.689 227.511 112.162 227.784 112.436C228.056 112.709 229.259 112.549 229.827 112.436V114.486H232.21V117.905H233.913V127.818H232.21V142.516H242.766V140.807H245.15V138.756H248.215V140.465H252.301V142.516H262.516V129.869H260.133V127.476H262.176V119.614H260.133V117.905H261.835V114.828H263.878V112.436H266.262V109.701Z" fill="#0097EC"/>
<path d="M896.217 43.3865V48.1721H891.45V60.4779V69.3654H887.363V77.5692H883.277V85.0894H880.894V94.3187H877.148V96.7115H875.445V101.497V108.334H871.7V111.41H873.402V113.803H875.445V115.854H867.613V118.93H864.549V120.981H866.251V134.312H864.549V135.68H862.506V138.073H860.803V142.858L861.484 172.255H855.695L854.674 105.941H859.441V102.523H854.674V81.3293H857.057V78.9365H853.993V74.1509H851.269V57.7432H846.842V62.187H844.458L843.437 41.3356H840.713L839.691 25.2697H844.458V23.5606H839.691V16.724H837.989V23.5606H834.583V25.2697H837.989V41.3356H836.286V50.5649H833.221V55.6923V62.187H830.497V55.6923H828.454V60.4779V77.5692H826.07V81.3293H821.984V102.523H818.239V104.232H820.963V110.043H813.812V105.257H811.088V100.13H808.023V96.7115H804.958V86.4567V85.0894V80.3038H809.726V78.9365H804.958V73.1255H803.256V78.9365H798.829V80.3038H803.256V85.0894V87.4822V100.13H800.872V105.257H798.829V110.043H788.273V106.624H790.657V101.497H788.273V78.9365H783.506V76.2019H786.571V73.1255H782.484V57.7432H779.42V62.187H776.015V53.6413H774.312V43.3865H770.226V25.2697H776.015V23.5606H770.226V16.724H768.183V23.5606H763.416V25.2697H768.183V43.3865H766.48V51.9322H764.437V62.187H761.713V57.7432H758.989V74.1509H755.584V76.2019H757.627V78.9365H753.541V81.3293L752.519 101.497H749.114V107.308L752.519 106.624V122.007H746.39V100.13H740.26V80.3038H735.153V64.238H730.385V48.5139H724.597V34.499H719.489V10.5711V8.52019H717.786V10.5711H716.084V5.10192V1H713.7V5.10192H711.317V11.9385H705.528V10.5711H703.485V5.10192H701.442V10.5711H698.036V5.10192H695.653V1H693.61V5.10192H691.907V11.9385H687.48V9.20384L685.437 8.52019V6.46923H683.735V1H681.692V6.46923H679.308V4.07644H676.243V6.46923H674.541V1H672.498V5.10192V8.52019H671.136V11.9385H667.049V9.20384H664.666V4.07644H662.623V9.20384H661.261V11.9385H656.834V9.20384H654.791V5.10192H653.088V9.20384H651.386V11.9385H647.3V9.20384H645.256V5.10192H642.192V11.9385H638.446V10.5711H637.084V36.2082H632.657V50.5649H627.89V67.6562H624.826L624.144 82.3548H617.334V86.4567V101.497H612.567V105.257V123.716H607.119V127.476V138.756H605.757V140.465H600.989V136.705H604.395L603.714 129.869H601.67V115.17L603.714 114.486V112.436H599.287V110.043H593.498V106.283V103.89H595.541V101.497H592.476V91.2423H595.541V89.5331H590.093V87.1403H584.985V83.3802H587.028V81.3293H584.985V67.6562H582.261V61.8452H579.196V53.6413H574.77L573.748 40.6519H571.024V32.4481H568.64V30.7389H566.257V26.2952H563.873V30.7389H561.49V26.2952H559.446V30.7389H555.36V26.2952H553.658V30.7389H550.933V26.2952H549.571V30.7389H545.145V34.499H542.761V42.7029H539.015V48.8557V55.0086H536.291V63.2125H533.567V67.6562H530.162V71.0745H528.459V75.5182H530.162V78.9365H528.459V81.3293H526.076V83.3802H528.459V89.5331H523.352H520.287V91.2423H523.352V93.9769H520.287V95.686H523.352V101.497H521.649V103.89H518.584V106.283H521.649V110.043H514.839V113.461H510.072V115.17H514.839L515.52 129.869H511.093V124.399H508.71V122.007H505.985V125.425H503.942V129.869H502.24V116.879H505.985V114.486H499.516V112.436H488.619V110.043H480.447V106.283H473.636V103.89H465.464V101.497H462.74V97.737H458.313V85.4312V83.3802H461.378V77.911V75.5182H458.313V69.7072H459.675V66.2889H461.378V53.6413H458.313V51.2485H454.567V48.8557H449.46V47.1466H445.033V45.0957H440.947V42.7029H437.542V40.6519H435.839V23.2187H431.753V29.3716V42.7029H427.667V45.0957H421.878V47.1466H416.77V48.8557H413.365H410.981V51.2485H409.279V53.6413H406.895V58.4269H404.171V64.9216H406.895V67.6562H409.279V71.0745H410.981V73.4673H409.279V77.911H406.895V85.4312H409.279V99.7879H404.171V103.89L387.145 104.915V107.992H381.356V111.068H375.908V113.461H368.076V115.854H362.628V112.436H358.882V115.854H356.839V120.639V127.476H354.115V137.389V140.807H355.818V142.516H345.943V140.807H344.24V139.782H341.857V138.756H340.154V140.807H338.111V142.516H327.895V126.109H321.085V117.221H327.895V114.486H325.852V112.436H323.469V109.701H325.171V106.624H319.723V78.5947H321.085V76.8855H323.469V73.4673H318.361V57.0596H319.723V55.6923L317.339 55.0086V53.6413H315.296V51.2485H313.253V48.8557H311.21V51.2485H309.508V53.6413H307.124V55.6923H305.421V57.0596L307.124 58.4269V75.5182H302.357L302.697 77.911H304.4V79.6202L305.421 80.6456L304.4 107.992H299.633V109.701H302.697V113.461L304.4 114.486V132.603H299.633V134.996H302.697V137.389H304.4V142.516H301.335V139.782H299.633V138.756H297.249V136.363H291.46V138.756H289.417V140.807H287.374V142.516H284.65V136.363H286.352V134.996H287.374L288.396 133.971V130.894H284.65V112.436H287.374V109.701H289.417V106.624H283.628V79.6202H284.65V76.8855H287.374V74.8346H283.628V73.4673H281.585V57.0596H283.628V55.0086H281.585V53.6413H279.542V51.2485H277.159V44.0702H275.456V51.2485V53.6413H271.71V55.6923H268.646V57.0596H271.029V74.8346H266.262V77.911H268.646V79.6202H270.008V107.992H263.538V109.701H266.262V112.436H263.878V114.828H261.835V117.905H260.133V119.614H262.176V127.476H260.133V129.869H262.516V142.516H252.301V140.465H248.215V138.756H245.15V140.807H242.766V142.516H232.21V127.818H233.913V117.905H232.21V114.486H229.827V112.436C229.259 112.549 228.056 112.709 227.784 112.436C227.511 112.162 227.67 113.689 227.784 114.486H226.762V115.854H223.357V119.614H224.379V142.516L214.504 142.174V140.465H212.46V138.756H208.715V140.807H206.672V142.516H196.456V128.501H197.478V117.905H196.456V115.854H194.754V114.486H192.711V112.094H190.667V114.486H188.624V117.905H186.922V129.527H188.624V142.174L178.409 141.833V139.782H177.047V138.756H175.004V137.389H172.961V138.756H170.918V140.807H168.874V142.174H158.318V136.363H161.724V115.854H159.34V113.461H156.956V111.068H154.232V113.461H151.849V115.854L148.784 117.221V138.756L151.849 139.782V190.714M896.217 43.3865H900.303M896.217 43.3865V35.8663H898.6V38.9428H900.303V43.3865M499.516 223L413.365 220L151.689 223M499.516 223L321.085 220L151.689 223M499.516 223H550.933H603.714H705.528H836.286H970.5H1037H1105H1241.84H1280.66V205.5V201.918L1280.98 146.807C1280.99 145.187 1280.22 143.668 1278.97 142.636C1276.01 140.19 1270.73 135.288 1269.42 130.552C1268.22 126.178 1270.58 123.318 1269.42 118.93C1267.72 112.477 1259.21 105.257 1259.21 105.257C1259.21 105.257 1248.06 102.552 1241.84 105.257C1237.17 107.288 1235.92 110.748 1231.97 113.803C1225.58 118.73 1217.66 124.399 1217.66 124.399C1217.66 124.399 1206.33 121.77 1198.94 120.981C1188.36 119.852 1171.69 120.981 1171.69 120.981C1171.69 120.981 1156.37 118.981 1146.5 118.93C1135.96 118.876 1119.6 120.981 1119.6 120.981C1119.6 120.981 1112.69 125.415 1107.68 126.45C1100.73 127.885 1089.63 124.399 1089.63 124.399C1089.63 124.399 1080.44 123.554 1074.65 124.399C1070.13 125.06 1065.83 129.743 1064.32 131.552C1063.93 132.015 1063.66 132.559 1063.5 133.139L1060.69 142.858H1034.13V138.073V128.501H1028.34V120.981V111.41H1021.53V105.257V96.7115H1016.76V91.2423H1006.88M151.689 223L151.849 190.714M151.689 223H143.336M151.689 199.5L151.849 190.714M143.336 223V156.873H135.844V150.72H137.887H144.698V144.909H101.112V139.782H89.8747V132.603H76.9351V122.69H66.0386V133.971L51.3964 134.996V140.807C48.6723 140.807 42.8835 140.807 41.5214 140.807C40.1594 140.807 40.9539 146.048 41.5214 148.669H2.70258L1 160.291H7.46981L1 183V204V223H20H41.5214H76.9351H111H143.336ZM906.432 43.3865H909.837M906.432 43.3865V39.6264H904.389V43.3865M906.432 43.3865H904.389M909.837 43.3865V39.9683H911.881V43.3865M909.837 43.3865H911.881M911.881 43.3865H917.669M917.669 43.3865V39.9683V37.2336H919.031V34.8409H921.074V37.2336H922.437V43.3865M917.669 43.3865H922.437M922.437 43.3865H923.458V55.6923H928.906V62.187V69.3654H932.652V74.1509H937.079V85.0894H941.846V87.4822V106.624H947.294V111.41V118.93H955.807V124.399H950.699V130.552H955.807V138.073H959.212V142.858H965.342V130.552H972.833V113.803H978.281V106.624H980.324V96.7115V91.2423H990.199M904.389 43.3865H900.303M979.984 90.9004L990.199 91.2423M990.199 91.2423V85.0894H993.604V79.6202L997.01 74.1509L1001.44 79.6202V85.0894H1006.88V91.2423M990.199 91.2423H1006.88" stroke="#1F96DE"/>
</svg>
