<svg width="81" height="80" viewBox="0 0 81 80" fill="none" xmlns="http://www.w3.org/2000/svg">
<rect x="0.5" width="80" height="80" rx="8" fill="#D6F5F1"/>
<path d="M40.5003 37.3337C43.4458 37.3337 45.8337 34.9458 45.8337 32.0003C45.8337 29.0548 43.4458 26.667 40.5003 26.667C37.5548 26.667 35.167 29.0548 35.167 32.0003C35.167 34.9458 37.5548 37.3337 40.5003 37.3337Z" fill="#0097EC"/>
<path fill-rule="evenodd" clip-rule="evenodd" d="M46.5007 53.3333C44.3008 53.3333 43.2008 53.3333 42.5175 52.6499C41.834 51.9665 41.834 50.8665 41.834 48.6667C41.834 46.4668 41.834 45.3668 42.5175 44.6835C43.2008 44 44.3008 44 46.5007 44C48.7005 44 49.8005 44 50.4839 44.6835C51.1673 45.3668 51.1673 46.4668 51.1673 48.6667C51.1673 50.8665 51.1673 51.9665 50.4839 52.6499C49.8005 53.3333 48.7005 53.3333 46.5007 53.3333ZM49.1247 47.6611C49.4284 47.3573 49.4284 46.8649 49.1247 46.5612C48.8209 46.2573 48.3285 46.2573 48.0248 46.5612L45.4636 49.1223L44.9765 48.6352C44.6728 48.3315 44.1804 48.3315 43.8767 48.6352C43.5729 48.9389 43.5729 49.4315 43.8767 49.7352L44.9136 50.7721C45.2173 51.076 45.7099 51.076 46.0136 50.7721L49.1247 47.6611Z" fill="#0097EC"/>
<path opacity="0.5" d="M48.6266 44.0423C48.0602 44.0007 47.3653 44.0007 46.5003 44.0007C44.3005 44.0007 43.2005 44.0007 42.5171 44.6841C41.8337 45.3675 41.8337 46.4675 41.8337 48.6673C41.8337 50.2224 41.8337 51.2279 42.0751 51.9251C41.5631 51.9748 41.037 52.0007 40.5003 52.0007C35.3457 52.0007 31.167 49.6128 31.167 46.6673C31.167 43.7219 35.3457 41.334 40.5003 41.334C43.9849 41.334 47.0235 42.4252 48.6266 44.0423Z" fill="#0097EC"/>
</svg>
