<svg width="1440" height="451" viewBox="0 0 1440 451" fill="none" xmlns="http://www.w3.org/2000/svg">
<rect x="180.489" y="167.711" width="80" height="26.6667" rx="13.3333" transform="rotate(-18.2782 180.489 167.711)" fill="#66C3B8"/>
<rect x="1380.51" y="197.877" width="80" height="26.6667" rx="13.3333" transform="rotate(153.56 1380.51 197.877)" fill="#66C3B8"/>
<circle cx="289" cy="399" r="25" fill="#ADD17D"/>
<circle cx="1253" cy="136" r="25" fill="#ADD17D"/>
<circle cx="1323" cy="73" r="15" fill="#ADD17D"/>
<path d="M421.629 248.427C420.141 253.591 423.133 259.087 428.488 259.548C438.298 260.393 448.218 258.326 456.962 253.494C468.569 247.08 477.152 236.318 480.823 223.576C484.495 210.833 482.954 197.154 476.54 185.548C471.707 176.804 464.407 169.776 455.652 165.271C450.873 162.812 445.415 165.873 443.927 171.038C442.439 176.202 445.562 181.484 450 184.515C453.905 187.182 457.175 190.745 459.505 194.962C463.423 202.05 464.364 210.405 462.121 218.187C459.879 225.969 454.637 232.542 447.548 236.46C443.332 238.79 438.668 240.067 433.942 240.247C428.572 240.452 423.117 243.262 421.629 248.427Z" fill="#E9C088"/>
<mask id="path-7-inside-1_403_3" fill="white">
<path d="M15.3023 117.588C10.5663 121.965 10.2245 129.467 15.4356 133.267C24.9825 140.228 36.4511 144.27 48.4302 144.741C64.3309 145.366 79.8287 139.649 91.5143 128.848C103.2 118.046 110.116 103.045 110.741 87.1445C111.212 75.1653 108.083 63.4148 101.893 53.3508C98.5139 47.8575 91.0085 47.6093 86.2725 51.987C81.5365 56.3647 81.4623 63.7277 84.1356 69.597C86.4877 74.7611 87.6311 80.4505 87.4039 86.227C87.0221 95.9383 82.7981 105.1 75.6612 111.697C68.5243 118.294 59.0591 121.786 49.3478 121.404C43.5713 121.177 37.9892 119.59 33.0257 116.84C27.3845 113.714 20.0383 113.21 15.3023 117.588Z"/>
</mask>
<path d="M15.3023 117.588C10.5663 121.965 10.2245 129.467 15.4356 133.267C24.9825 140.228 36.4511 144.27 48.4302 144.741C64.3309 145.366 79.8287 139.649 91.5143 128.848C103.2 118.046 110.116 103.045 110.741 87.1445C111.212 75.1653 108.083 63.4148 101.893 53.3508C98.5139 47.8575 91.0085 47.6093 86.2725 51.987C81.5365 56.3647 81.4623 63.7277 84.1356 69.597C86.4877 74.7611 87.6311 80.4505 87.4039 86.227C87.0221 95.9383 82.7981 105.1 75.6612 111.697C68.5243 118.294 59.0591 121.786 49.3478 121.404C43.5713 121.177 37.9892 119.59 33.0257 116.84C27.3845 113.714 20.0383 113.21 15.3023 117.588Z" stroke="#66C3B8" stroke-width="10" mask="url(#path-7-inside-1_403_3)"/>
<path d="M108.661 259.171C109.674 253.742 106.07 248.412 100.548 248.497C93.4213 248.607 86.3603 250.241 79.8535 253.334C70.3172 257.867 62.4609 265.303 57.4105 274.576C52.3601 283.849 50.375 294.483 51.7396 304.953C52.6707 312.097 55.1287 318.915 58.9021 324.962C61.826 329.648 68.2584 329.784 72.2695 325.988C76.2805 322.191 76.2589 315.882 73.9839 310.849C72.7739 308.173 71.9561 305.317 71.5718 302.368C70.7531 296.086 71.9442 289.706 74.9744 284.142C78.0046 278.579 82.7184 274.117 88.4402 271.397C91.1257 270.12 93.9686 269.258 96.8734 268.823C102.335 268.004 107.647 264.6 108.661 259.171Z" fill="#FA8CA6"/>
<mask id="path-9-inside-2_403_3" fill="white">
<path d="M1386.37 341.688C1388.58 345.518 1393.54 346.89 1396.85 343.97C1401.13 340.201 1404.58 335.54 1406.93 330.279C1410.38 322.568 1411.3 313.963 1409.56 305.697C1407.82 297.432 1403.5 289.93 1397.23 284.267C1392.96 280.404 1387.92 277.532 1382.48 275.812C1378.27 274.479 1374.28 277.737 1373.82 282.13C1373.35 286.523 1376.64 290.351 1380.63 292.232C1382.76 293.232 1384.74 294.546 1386.51 296.14C1390.27 299.538 1392.86 304.039 1393.9 308.998C1394.95 313.957 1394.4 319.12 1392.33 323.747C1391.36 325.919 1390.07 327.92 1388.53 329.693C1385.63 333.028 1384.17 337.858 1386.37 341.688Z"/>
</mask>
<path d="M1386.37 341.688C1388.58 345.518 1393.54 346.89 1396.85 343.97C1401.13 340.201 1404.58 335.54 1406.93 330.279C1410.38 322.568 1411.3 313.963 1409.56 305.697C1407.82 297.432 1403.5 289.93 1397.23 284.267C1392.96 280.404 1387.92 277.532 1382.48 275.812C1378.27 274.479 1374.28 277.737 1373.82 282.13C1373.35 286.523 1376.64 290.351 1380.63 292.232C1382.76 293.232 1384.74 294.546 1386.51 296.14C1390.27 299.538 1392.86 304.039 1393.9 308.998C1394.95 313.957 1394.4 319.12 1392.33 323.747C1391.36 325.919 1390.07 327.92 1388.53 329.693C1385.63 333.028 1384.17 337.858 1386.37 341.688Z" stroke="#FA8CA6" stroke-width="10" mask="url(#path-9-inside-2_403_3)"/>
<path d="M1359.78 404.512C1355.87 409.639 1356.82 417.088 1362.61 419.935C1373.21 425.15 1385.21 427.159 1397.09 425.562C1412.86 423.443 1427.14 415.146 1436.8 402.495C1446.45 389.845 1450.68 373.877 1448.56 358.106C1446.97 346.225 1441.86 335.187 1434.03 326.338C1429.76 321.508 1422.32 322.555 1418.41 327.682C1414.5 332.809 1415.69 340.075 1419.34 345.397C1422.54 350.079 1424.65 355.487 1425.42 361.217C1426.71 370.849 1424.12 380.601 1418.23 388.327C1412.33 396.053 1403.61 401.121 1393.98 402.415C1388.25 403.185 1382.48 402.583 1377.11 400.727C1371.02 398.618 1363.7 399.385 1359.78 404.512Z" fill="#E9C088"/>
</svg>
