<svg width="23" height="23" viewBox="0 0 23 23" fill="none" xmlns="http://www.w3.org/2000/svg">
<path d="M17.9687 8.73044V14.2504C17.9687 14.9189 17.7032 15.56 17.2305 16.0326C16.7579 16.5053 16.1168 16.7709 15.4483 16.7709H10.4171C10.0865 16.7709 9.75926 16.7056 9.45401 16.5788C9.14875 16.452 8.87154 16.2662 8.63826 16.0321C8.40498 15.7979 8.22023 15.52 8.09462 15.2142C7.969 14.9085 7.90499 14.581 7.90625 14.2504V5.86503C7.90625 5.19911 8.17078 4.56047 8.64165 4.0896C9.11253 3.61873 9.75117 3.35419 10.4171 3.35419H12.5925C12.7009 3.35372 12.8083 3.37464 12.9087 3.41575C13.009 3.45686 13.1002 3.51736 13.1771 3.59378L17.7196 8.13628C17.7985 8.21384 17.8611 8.30631 17.9039 8.40832C17.9467 8.51033 17.9687 8.61983 17.9687 8.73044Z" stroke="#000D26" stroke-width="1.5" stroke-miterlimit="10" stroke-linecap="round"/>
<path d="M12.9375 3.75665V7.58998C12.9362 7.70027 12.9569 7.80972 12.9982 7.91199C13.0395 8.01425 13.1007 8.1073 13.1783 8.18573C13.2558 8.26417 13.3482 8.32645 13.45 8.36894C13.5517 8.41144 13.6609 8.43332 13.7712 8.43331H17.6046C17.6367 8.43086 17.6675 8.41945 17.6935 8.40037C17.7195 8.38129 17.7396 8.35531 17.7516 8.32538C17.7636 8.29544 17.7669 8.26275 17.7613 8.23101C17.7556 8.19928 17.7412 8.16976 17.7196 8.14581L13.225 3.64165C13.203 3.61532 13.1732 3.59663 13.1399 3.58824C13.1066 3.57986 13.0715 3.58221 13.0396 3.59497C13.0077 3.60772 12.9807 3.63022 12.9623 3.65926C12.944 3.68829 12.9353 3.72238 12.9375 3.75665Z" stroke="#000D26" stroke-width="1.5" stroke-linecap="round" stroke-linejoin="round"/>
<path d="M15.0937 16.7613V17.1254C15.0937 17.7939 14.8282 18.435 14.3555 18.9076C13.8829 19.3803 13.2418 19.6459 12.5733 19.6459H7.54208C6.87529 19.6433 6.23667 19.3767 5.76607 18.9043C5.29547 18.4319 5.03125 17.7922 5.03125 17.1254V8.74002C5.03377 8.07488 5.29912 7.43771 5.76944 6.96738C6.23977 6.49706 6.87695 6.23171 7.54208 6.22919H7.90625" stroke="#000D26" stroke-width="1.5" stroke-miterlimit="10" stroke-linecap="round"/>
</svg>
