<svg width="21" height="21" viewBox="0 0 21 21" fill="none" xmlns="http://www.w3.org/2000/svg">
<path d="M4.22625 13.0637L13.0637 4.22623C13.1451 4.14422 13.2419 4.07912 13.3485 4.0347C13.4551 3.99028 13.5695 3.96741 13.685 3.96741C13.8005 3.96741 13.9149 3.99028 14.0215 4.0347C14.1281 4.07912 14.2249 4.14422 14.3062 4.22623L16.7737 6.69373C16.8558 6.77507 16.9209 6.87185 16.9653 6.97848C17.0097 7.0851 17.0326 7.19947 17.0326 7.31498C17.0326 7.43049 17.0097 7.54486 16.9653 7.65149C16.9209 7.75811 16.8558 7.85489 16.7737 7.93623L7.93625 16.7737C7.85521 16.8564 7.75857 16.9222 7.65193 16.9672C7.54529 17.0123 7.43077 17.0357 7.315 17.0362H4.83875C4.60668 17.0362 4.38412 16.944 4.22003 16.7799C4.05594 16.6159 3.96375 16.3933 3.96375 16.1612V13.685C3.96423 13.5692 3.98768 13.4547 4.03274 13.348C4.0778 13.2414 4.14357 13.1448 4.22625 13.0637Z" stroke="#0E0E0E" stroke-width="1.5" stroke-linecap="round" stroke-linejoin="round"/>
<path d="M10.9375 6.35248L14.6475 10.0625" stroke="#0E0E0E" stroke-width="1.5" stroke-linecap="round" stroke-linejoin="round"/>
</svg>
