<svg width="14" height="16" viewBox="0 0 14 16" fill="none" xmlns="http://www.w3.org/2000/svg">
<path d="M1 3.66669H2.33333H13" stroke="#0E0E0E" stroke-width="1.5" stroke-linecap="round" stroke-linejoin="round"/>
<path d="M11.6667 3.66667V13C11.6667 13.3536 11.5262 13.6928 11.2761 13.9428C11.0261 14.1929 10.6869 14.3333 10.3333 14.3333H3.66665C3.31303 14.3333 2.97389 14.1929 2.72384 13.9428C2.4738 13.6928 2.33332 13.3536 2.33332 13V3.66667M4.33332 3.66667V2.33333C4.33332 1.97971 4.4738 1.64057 4.72385 1.39052C4.97389 1.14048 5.31303 1 5.66665 1H8.33332C8.68694 1 9.02608 1.14048 9.27613 1.39052C9.52618 1.64057 9.66665 1.97971 9.66665 2.33333V3.66667" stroke="#0E0E0E" stroke-width="1.5" stroke-linecap="round" stroke-linejoin="round"/>
</svg>
